<mxfile host="Electron" modified="2024-02-13T17:25:42.960Z" agent="Mozilla/5.0 (Windows NT 10.0; Win64; x64) AppleWebKit/537.36 (KHTML, like Gecko) draw.io/21.8.2 Chrome/114.0.5735.289 Electron/25.8.1 Safari/537.36" etag="lerd6VL0H0OeJ8mP1qXu" version="21.8.2" type="device">
  <diagram id="R2lEEEUBdFMjLlhIrx00" name="Page-1">
    <mxGraphModel dx="1322" dy="1945" grid="1" gridSize="10" guides="1" tooltips="1" connect="1" arrows="1" fold="1" page="1" pageScale="1" pageWidth="850" pageHeight="1100" math="0" shadow="0" extFonts="Permanent Marker^https://fonts.googleapis.com/css?family=Permanent+Marker">
      <root>
        <mxCell id="0" />
        <mxCell id="1" parent="0" />
        <mxCell id="W1w_GPU8LvK_WI4qFMCy-1" value="" style="rounded=0;whiteSpace=wrap;html=1;fillColor=#2D384A;movable=0;resizable=0;rotatable=0;deletable=0;editable=0;locked=1;connectable=0;" parent="1" vertex="1">
          <mxGeometry x="-450" y="-390" width="1510" height="1530" as="geometry" />
        </mxCell>
        <mxCell id="C-vyLk0tnHw3VtMMgP7b-1" value="" style="edgeStyle=orthogonalEdgeStyle;endArrow=ERzeroToMany;startArrow=ERone;endFill=1;startFill=0;exitX=1;exitY=0.5;exitDx=0;exitDy=0;entryX=0;entryY=0.5;entryDx=0;entryDy=0;strokeWidth=2;" parent="1" source="C-vyLk0tnHw3VtMMgP7b-24" target="W1w_GPU8LvK_WI4qFMCy-123" edge="1">
          <mxGeometry width="100" height="100" relative="1" as="geometry">
            <mxPoint x="340" y="720" as="sourcePoint" />
            <mxPoint x="-62" y="-67" as="targetPoint" />
            <Array as="points">
              <mxPoint x="-80" y="-304" />
              <mxPoint x="-80" y="-47" />
            </Array>
          </mxGeometry>
        </mxCell>
        <mxCell id="C-vyLk0tnHw3VtMMgP7b-2" value="Children" style="shape=table;startSize=30;container=1;collapsible=1;childLayout=tableLayout;fixedRows=1;rowLines=0;fontStyle=1;align=center;resizeLast=1;" parent="1" vertex="1">
          <mxGeometry x="-60" y="-350" width="260" height="200" as="geometry" />
        </mxCell>
        <mxCell id="C-vyLk0tnHw3VtMMgP7b-3" value="" style="shape=partialRectangle;collapsible=0;dropTarget=0;pointerEvents=0;fillColor=none;points=[[0,0.5],[1,0.5]];portConstraint=eastwest;top=0;left=0;right=0;bottom=1;" parent="C-vyLk0tnHw3VtMMgP7b-2" vertex="1">
          <mxGeometry y="30" width="260" height="30" as="geometry" />
        </mxCell>
        <mxCell id="C-vyLk0tnHw3VtMMgP7b-4" value="PK" style="shape=partialRectangle;overflow=hidden;connectable=0;fillColor=none;top=0;left=0;bottom=0;right=0;fontStyle=1;" parent="C-vyLk0tnHw3VtMMgP7b-3" vertex="1">
          <mxGeometry width="30" height="30" as="geometry">
            <mxRectangle width="30" height="30" as="alternateBounds" />
          </mxGeometry>
        </mxCell>
        <mxCell id="C-vyLk0tnHw3VtMMgP7b-5" value="child_id int NOT NULL " style="shape=partialRectangle;overflow=hidden;connectable=0;fillColor=none;top=0;left=0;bottom=0;right=0;align=left;spacingLeft=6;fontStyle=1;" parent="C-vyLk0tnHw3VtMMgP7b-3" vertex="1">
          <mxGeometry x="30" width="230" height="30" as="geometry">
            <mxRectangle width="230" height="30" as="alternateBounds" />
          </mxGeometry>
        </mxCell>
        <mxCell id="C-vyLk0tnHw3VtMMgP7b-6" value="" style="shape=partialRectangle;collapsible=0;dropTarget=0;pointerEvents=0;fillColor=none;points=[[0,0.5],[1,0.5]];portConstraint=eastwest;top=0;left=0;right=0;bottom=0;" parent="C-vyLk0tnHw3VtMMgP7b-2" vertex="1">
          <mxGeometry y="60" width="260" height="30" as="geometry" />
        </mxCell>
        <mxCell id="C-vyLk0tnHw3VtMMgP7b-7" value="" style="shape=partialRectangle;overflow=hidden;connectable=0;fillColor=none;top=0;left=0;bottom=0;right=0;" parent="C-vyLk0tnHw3VtMMgP7b-6" vertex="1">
          <mxGeometry width="30" height="30" as="geometry">
            <mxRectangle width="30" height="30" as="alternateBounds" />
          </mxGeometry>
        </mxCell>
        <mxCell id="C-vyLk0tnHw3VtMMgP7b-8" value="child_first_name char(50) NOT NULL" style="shape=partialRectangle;overflow=hidden;connectable=0;fillColor=none;top=0;left=0;bottom=0;right=0;align=left;spacingLeft=6;" parent="C-vyLk0tnHw3VtMMgP7b-6" vertex="1">
          <mxGeometry x="30" width="230" height="30" as="geometry">
            <mxRectangle width="230" height="30" as="alternateBounds" />
          </mxGeometry>
        </mxCell>
        <mxCell id="C-vyLk0tnHw3VtMMgP7b-9" value="" style="shape=partialRectangle;collapsible=0;dropTarget=0;pointerEvents=0;fillColor=none;points=[[0,0.5],[1,0.5]];portConstraint=eastwest;top=0;left=0;right=0;bottom=0;" parent="C-vyLk0tnHw3VtMMgP7b-2" vertex="1">
          <mxGeometry y="90" width="260" height="30" as="geometry" />
        </mxCell>
        <mxCell id="C-vyLk0tnHw3VtMMgP7b-10" value="" style="shape=partialRectangle;overflow=hidden;connectable=0;fillColor=none;top=0;left=0;bottom=0;right=0;" parent="C-vyLk0tnHw3VtMMgP7b-9" vertex="1">
          <mxGeometry width="30" height="30" as="geometry">
            <mxRectangle width="30" height="30" as="alternateBounds" />
          </mxGeometry>
        </mxCell>
        <mxCell id="C-vyLk0tnHw3VtMMgP7b-11" value="child_middle_name char(50) NOT NULL" style="shape=partialRectangle;overflow=hidden;connectable=0;fillColor=none;top=0;left=0;bottom=0;right=0;align=left;spacingLeft=6;" parent="C-vyLk0tnHw3VtMMgP7b-9" vertex="1">
          <mxGeometry x="30" width="230" height="30" as="geometry">
            <mxRectangle width="230" height="30" as="alternateBounds" />
          </mxGeometry>
        </mxCell>
        <mxCell id="C-vyLk0tnHw3VtMMgP7b-13" value="Passport_data" style="shape=table;startSize=30;container=1;collapsible=1;childLayout=tableLayout;fixedRows=1;rowLines=0;fontStyle=1;align=center;resizeLast=1;" parent="1" vertex="1">
          <mxGeometry x="-379.5" y="7" width="250" height="263" as="geometry" />
        </mxCell>
        <mxCell id="C-vyLk0tnHw3VtMMgP7b-14" value="" style="shape=partialRectangle;collapsible=0;dropTarget=0;pointerEvents=0;fillColor=none;points=[[0,0.5],[1,0.5]];portConstraint=eastwest;top=0;left=0;right=0;bottom=1;" parent="C-vyLk0tnHw3VtMMgP7b-13" vertex="1">
          <mxGeometry y="30" width="250" height="30" as="geometry" />
        </mxCell>
        <mxCell id="C-vyLk0tnHw3VtMMgP7b-15" value="PK" style="shape=partialRectangle;overflow=hidden;connectable=0;fillColor=none;top=0;left=0;bottom=0;right=0;fontStyle=1;" parent="C-vyLk0tnHw3VtMMgP7b-14" vertex="1">
          <mxGeometry width="30" height="30" as="geometry">
            <mxRectangle width="30" height="30" as="alternateBounds" />
          </mxGeometry>
        </mxCell>
        <mxCell id="C-vyLk0tnHw3VtMMgP7b-16" value="pass_data_id int NOT NULL " style="shape=partialRectangle;overflow=hidden;connectable=0;fillColor=none;top=0;left=0;bottom=0;right=0;align=left;spacingLeft=6;fontStyle=1;" parent="C-vyLk0tnHw3VtMMgP7b-14" vertex="1">
          <mxGeometry x="30" width="220" height="30" as="geometry">
            <mxRectangle width="220" height="30" as="alternateBounds" />
          </mxGeometry>
        </mxCell>
        <mxCell id="C-vyLk0tnHw3VtMMgP7b-17" value="" style="shape=partialRectangle;collapsible=0;dropTarget=0;pointerEvents=0;fillColor=none;points=[[0,0.5],[1,0.5]];portConstraint=eastwest;top=0;left=0;right=0;bottom=0;" parent="C-vyLk0tnHw3VtMMgP7b-13" vertex="1">
          <mxGeometry y="60" width="250" height="30" as="geometry" />
        </mxCell>
        <mxCell id="C-vyLk0tnHw3VtMMgP7b-18" value="FK1" style="shape=partialRectangle;overflow=hidden;connectable=0;fillColor=none;top=0;left=0;bottom=0;right=0;" parent="C-vyLk0tnHw3VtMMgP7b-17" vertex="1">
          <mxGeometry width="30" height="30" as="geometry">
            <mxRectangle width="30" height="30" as="alternateBounds" />
          </mxGeometry>
        </mxCell>
        <mxCell id="C-vyLk0tnHw3VtMMgP7b-19" value="tourist_id int NOT NULL" style="shape=partialRectangle;overflow=hidden;connectable=0;fillColor=none;top=0;left=0;bottom=0;right=0;align=left;spacingLeft=6;" parent="C-vyLk0tnHw3VtMMgP7b-17" vertex="1">
          <mxGeometry x="30" width="220" height="30" as="geometry">
            <mxRectangle width="220" height="30" as="alternateBounds" />
          </mxGeometry>
        </mxCell>
        <mxCell id="C-vyLk0tnHw3VtMMgP7b-20" value="" style="shape=partialRectangle;collapsible=0;dropTarget=0;pointerEvents=0;fillColor=none;points=[[0,0.5],[1,0.5]];portConstraint=eastwest;top=0;left=0;right=0;bottom=0;" parent="C-vyLk0tnHw3VtMMgP7b-13" vertex="1">
          <mxGeometry y="90" width="250" height="30" as="geometry" />
        </mxCell>
        <mxCell id="C-vyLk0tnHw3VtMMgP7b-21" value="" style="shape=partialRectangle;overflow=hidden;connectable=0;fillColor=none;top=0;left=0;bottom=0;right=0;" parent="C-vyLk0tnHw3VtMMgP7b-20" vertex="1">
          <mxGeometry width="30" height="30" as="geometry">
            <mxRectangle width="30" height="30" as="alternateBounds" />
          </mxGeometry>
        </mxCell>
        <mxCell id="C-vyLk0tnHw3VtMMgP7b-22" value="birthday date NOT NULL" style="shape=partialRectangle;overflow=hidden;connectable=0;fillColor=none;top=0;left=0;bottom=0;right=0;align=left;spacingLeft=6;" parent="C-vyLk0tnHw3VtMMgP7b-20" vertex="1">
          <mxGeometry x="30" width="220" height="30" as="geometry">
            <mxRectangle width="220" height="30" as="alternateBounds" />
          </mxGeometry>
        </mxCell>
        <mxCell id="C-vyLk0tnHw3VtMMgP7b-23" value="Tourist" style="shape=table;startSize=30;container=1;collapsible=1;childLayout=tableLayout;fixedRows=1;rowLines=0;fontStyle=1;align=center;resizeLast=1;" parent="1" vertex="1">
          <mxGeometry x="-389" y="-349" width="280" height="299" as="geometry" />
        </mxCell>
        <mxCell id="C-vyLk0tnHw3VtMMgP7b-24" value="" style="shape=partialRectangle;collapsible=0;dropTarget=0;pointerEvents=0;fillColor=none;points=[[0,0.5],[1,0.5]];portConstraint=eastwest;top=0;left=0;right=0;bottom=1;" parent="C-vyLk0tnHw3VtMMgP7b-23" vertex="1">
          <mxGeometry y="30" width="280" height="30" as="geometry" />
        </mxCell>
        <mxCell id="C-vyLk0tnHw3VtMMgP7b-25" value="PK" style="shape=partialRectangle;overflow=hidden;connectable=0;fillColor=none;top=0;left=0;bottom=0;right=0;fontStyle=1;" parent="C-vyLk0tnHw3VtMMgP7b-24" vertex="1">
          <mxGeometry width="30" height="30" as="geometry">
            <mxRectangle width="30" height="30" as="alternateBounds" />
          </mxGeometry>
        </mxCell>
        <mxCell id="C-vyLk0tnHw3VtMMgP7b-26" value="tourist_id int NOT NULL " style="shape=partialRectangle;overflow=hidden;connectable=0;fillColor=none;top=0;left=0;bottom=0;right=0;align=left;spacingLeft=6;fontStyle=1;" parent="C-vyLk0tnHw3VtMMgP7b-24" vertex="1">
          <mxGeometry x="30" width="250" height="30" as="geometry">
            <mxRectangle width="250" height="30" as="alternateBounds" />
          </mxGeometry>
        </mxCell>
        <mxCell id="C-vyLk0tnHw3VtMMgP7b-27" value="" style="shape=partialRectangle;collapsible=0;dropTarget=0;pointerEvents=0;fillColor=none;points=[[0,0.5],[1,0.5]];portConstraint=eastwest;top=0;left=0;right=0;bottom=0;" parent="C-vyLk0tnHw3VtMMgP7b-23" vertex="1">
          <mxGeometry y="60" width="280" height="29" as="geometry" />
        </mxCell>
        <mxCell id="C-vyLk0tnHw3VtMMgP7b-28" value="" style="shape=partialRectangle;overflow=hidden;connectable=0;fillColor=none;top=0;left=0;bottom=0;right=0;" parent="C-vyLk0tnHw3VtMMgP7b-27" vertex="1">
          <mxGeometry width="30" height="29" as="geometry">
            <mxRectangle width="30" height="29" as="alternateBounds" />
          </mxGeometry>
        </mxCell>
        <mxCell id="C-vyLk0tnHw3VtMMgP7b-29" value="tourist_first_name char(50) NOT NULL" style="shape=partialRectangle;overflow=hidden;connectable=0;fillColor=none;top=0;left=0;bottom=0;right=0;align=left;spacingLeft=6;" parent="C-vyLk0tnHw3VtMMgP7b-27" vertex="1">
          <mxGeometry x="30" width="250" height="29" as="geometry">
            <mxRectangle width="250" height="29" as="alternateBounds" />
          </mxGeometry>
        </mxCell>
        <mxCell id="QZeqmvYRpOHpBTYo1mOe-3" value="" style="shape=tableRow;horizontal=0;startSize=0;swimlaneHead=0;swimlaneBody=0;fillColor=none;collapsible=0;dropTarget=0;points=[[0,0.5],[1,0.5]];portConstraint=eastwest;top=0;left=0;right=0;bottom=0;" parent="C-vyLk0tnHw3VtMMgP7b-23" vertex="1">
          <mxGeometry y="89" width="280" height="30" as="geometry" />
        </mxCell>
        <mxCell id="QZeqmvYRpOHpBTYo1mOe-4" value="" style="shape=partialRectangle;connectable=0;fillColor=none;top=0;left=0;bottom=0;right=0;editable=1;overflow=hidden;" parent="QZeqmvYRpOHpBTYo1mOe-3" vertex="1">
          <mxGeometry width="30" height="30" as="geometry">
            <mxRectangle width="30" height="30" as="alternateBounds" />
          </mxGeometry>
        </mxCell>
        <mxCell id="QZeqmvYRpOHpBTYo1mOe-5" value="tourist_middle_name char(50) NOT NULL" style="shape=partialRectangle;connectable=0;fillColor=none;top=0;left=0;bottom=0;right=0;align=left;spacingLeft=6;overflow=hidden;" parent="QZeqmvYRpOHpBTYo1mOe-3" vertex="1">
          <mxGeometry x="30" width="250" height="30" as="geometry">
            <mxRectangle width="250" height="30" as="alternateBounds" />
          </mxGeometry>
        </mxCell>
        <mxCell id="QZeqmvYRpOHpBTYo1mOe-6" value="" style="shape=tableRow;horizontal=0;startSize=0;swimlaneHead=0;swimlaneBody=0;fillColor=none;collapsible=0;dropTarget=0;points=[[0,0.5],[1,0.5]];portConstraint=eastwest;top=0;left=0;right=0;bottom=0;" parent="C-vyLk0tnHw3VtMMgP7b-23" vertex="1">
          <mxGeometry y="119" width="280" height="30" as="geometry" />
        </mxCell>
        <mxCell id="QZeqmvYRpOHpBTYo1mOe-7" value="" style="shape=partialRectangle;connectable=0;fillColor=none;top=0;left=0;bottom=0;right=0;editable=1;overflow=hidden;" parent="QZeqmvYRpOHpBTYo1mOe-6" vertex="1">
          <mxGeometry width="30" height="30" as="geometry">
            <mxRectangle width="30" height="30" as="alternateBounds" />
          </mxGeometry>
        </mxCell>
        <mxCell id="QZeqmvYRpOHpBTYo1mOe-8" value="tourist_last_name char(50) NOT NULL" style="shape=partialRectangle;connectable=0;fillColor=none;top=0;left=0;bottom=0;right=0;align=left;spacingLeft=6;overflow=hidden;" parent="QZeqmvYRpOHpBTYo1mOe-6" vertex="1">
          <mxGeometry x="30" width="250" height="30" as="geometry">
            <mxRectangle width="250" height="30" as="alternateBounds" />
          </mxGeometry>
        </mxCell>
        <mxCell id="QZeqmvYRpOHpBTYo1mOe-9" value="" style="shape=tableRow;horizontal=0;startSize=0;swimlaneHead=0;swimlaneBody=0;fillColor=none;collapsible=0;dropTarget=0;points=[[0,0.5],[1,0.5]];portConstraint=eastwest;top=0;left=0;right=0;bottom=0;" parent="C-vyLk0tnHw3VtMMgP7b-23" vertex="1">
          <mxGeometry y="149" width="280" height="30" as="geometry" />
        </mxCell>
        <mxCell id="QZeqmvYRpOHpBTYo1mOe-10" value="" style="shape=partialRectangle;connectable=0;fillColor=none;top=0;left=0;bottom=0;right=0;editable=1;overflow=hidden;" parent="QZeqmvYRpOHpBTYo1mOe-9" vertex="1">
          <mxGeometry width="30" height="30" as="geometry">
            <mxRectangle width="30" height="30" as="alternateBounds" />
          </mxGeometry>
        </mxCell>
        <mxCell id="QZeqmvYRpOHpBTYo1mOe-11" value="tourist_residence_city chat(100) NOT NULL" style="shape=partialRectangle;connectable=0;fillColor=none;top=0;left=0;bottom=0;right=0;align=left;spacingLeft=6;overflow=hidden;" parent="QZeqmvYRpOHpBTYo1mOe-9" vertex="1">
          <mxGeometry x="30" width="250" height="30" as="geometry">
            <mxRectangle width="250" height="30" as="alternateBounds" />
          </mxGeometry>
        </mxCell>
        <mxCell id="QZeqmvYRpOHpBTYo1mOe-12" value="" style="shape=tableRow;horizontal=0;startSize=0;swimlaneHead=0;swimlaneBody=0;fillColor=none;collapsible=0;dropTarget=0;points=[[0,0.5],[1,0.5]];portConstraint=eastwest;top=0;left=0;right=0;bottom=0;" parent="C-vyLk0tnHw3VtMMgP7b-23" vertex="1">
          <mxGeometry y="179" width="280" height="30" as="geometry" />
        </mxCell>
        <mxCell id="QZeqmvYRpOHpBTYo1mOe-13" value="" style="shape=partialRectangle;connectable=0;fillColor=none;top=0;left=0;bottom=0;right=0;editable=1;overflow=hidden;" parent="QZeqmvYRpOHpBTYo1mOe-12" vertex="1">
          <mxGeometry width="30" height="30" as="geometry">
            <mxRectangle width="30" height="30" as="alternateBounds" />
          </mxGeometry>
        </mxCell>
        <mxCell id="QZeqmvYRpOHpBTYo1mOe-14" value="tourist_age int NOT NULL" style="shape=partialRectangle;connectable=0;fillColor=none;top=0;left=0;bottom=0;right=0;align=left;spacingLeft=6;overflow=hidden;" parent="QZeqmvYRpOHpBTYo1mOe-12" vertex="1">
          <mxGeometry x="30" width="250" height="30" as="geometry">
            <mxRectangle width="250" height="30" as="alternateBounds" />
          </mxGeometry>
        </mxCell>
        <mxCell id="QZeqmvYRpOHpBTYo1mOe-15" value="" style="shape=tableRow;horizontal=0;startSize=0;swimlaneHead=0;swimlaneBody=0;fillColor=none;collapsible=0;dropTarget=0;points=[[0,0.5],[1,0.5]];portConstraint=eastwest;top=0;left=0;right=0;bottom=0;" parent="C-vyLk0tnHw3VtMMgP7b-23" vertex="1">
          <mxGeometry y="209" width="280" height="30" as="geometry" />
        </mxCell>
        <mxCell id="QZeqmvYRpOHpBTYo1mOe-16" value="" style="shape=partialRectangle;connectable=0;fillColor=none;top=0;left=0;bottom=0;right=0;editable=1;overflow=hidden;" parent="QZeqmvYRpOHpBTYo1mOe-15" vertex="1">
          <mxGeometry width="30" height="30" as="geometry">
            <mxRectangle width="30" height="30" as="alternateBounds" />
          </mxGeometry>
        </mxCell>
        <mxCell id="QZeqmvYRpOHpBTYo1mOe-17" value="phone_number char(50) NOT NULL" style="shape=partialRectangle;connectable=0;fillColor=none;top=0;left=0;bottom=0;right=0;align=left;spacingLeft=6;overflow=hidden;" parent="QZeqmvYRpOHpBTYo1mOe-15" vertex="1">
          <mxGeometry x="30" width="250" height="30" as="geometry">
            <mxRectangle width="250" height="30" as="alternateBounds" />
          </mxGeometry>
        </mxCell>
        <mxCell id="QZeqmvYRpOHpBTYo1mOe-18" value="" style="shape=tableRow;horizontal=0;startSize=0;swimlaneHead=0;swimlaneBody=0;fillColor=none;collapsible=0;dropTarget=0;points=[[0,0.5],[1,0.5]];portConstraint=eastwest;top=0;left=0;right=0;bottom=0;" parent="C-vyLk0tnHw3VtMMgP7b-23" vertex="1">
          <mxGeometry y="239" width="280" height="30" as="geometry" />
        </mxCell>
        <mxCell id="QZeqmvYRpOHpBTYo1mOe-19" value="" style="shape=partialRectangle;connectable=0;fillColor=none;top=0;left=0;bottom=0;right=0;editable=1;overflow=hidden;" parent="QZeqmvYRpOHpBTYo1mOe-18" vertex="1">
          <mxGeometry width="30" height="30" as="geometry">
            <mxRectangle width="30" height="30" as="alternateBounds" />
          </mxGeometry>
        </mxCell>
        <mxCell id="QZeqmvYRpOHpBTYo1mOe-20" value="tourist_type TouristType NOT NULL" style="shape=partialRectangle;connectable=0;fillColor=none;top=0;left=0;bottom=0;right=0;align=left;spacingLeft=6;overflow=hidden;" parent="QZeqmvYRpOHpBTYo1mOe-18" vertex="1">
          <mxGeometry x="30" width="250" height="30" as="geometry">
            <mxRectangle width="250" height="30" as="alternateBounds" />
          </mxGeometry>
        </mxCell>
        <mxCell id="QZeqmvYRpOHpBTYo1mOe-198" value="" style="shape=tableRow;horizontal=0;startSize=0;swimlaneHead=0;swimlaneBody=0;fillColor=none;collapsible=0;dropTarget=0;points=[[0,0.5],[1,0.5]];portConstraint=eastwest;top=0;left=0;right=0;bottom=0;" parent="C-vyLk0tnHw3VtMMgP7b-23" vertex="1">
          <mxGeometry y="269" width="280" height="30" as="geometry" />
        </mxCell>
        <mxCell id="QZeqmvYRpOHpBTYo1mOe-199" value="" style="shape=partialRectangle;connectable=0;fillColor=none;top=0;left=0;bottom=0;right=0;editable=1;overflow=hidden;" parent="QZeqmvYRpOHpBTYo1mOe-198" vertex="1">
          <mxGeometry width="30" height="30" as="geometry">
            <mxRectangle width="30" height="30" as="alternateBounds" />
          </mxGeometry>
        </mxCell>
        <mxCell id="QZeqmvYRpOHpBTYo1mOe-200" value="visa_issued boolean NOT NULL" style="shape=partialRectangle;connectable=0;fillColor=none;top=0;left=0;bottom=0;right=0;align=left;spacingLeft=6;overflow=hidden;" parent="QZeqmvYRpOHpBTYo1mOe-198" vertex="1">
          <mxGeometry x="30" width="250" height="30" as="geometry">
            <mxRectangle width="250" height="30" as="alternateBounds" />
          </mxGeometry>
        </mxCell>
        <mxCell id="W1w_GPU8LvK_WI4qFMCy-53" value="child_last_name char(50) NOT NULL" style="shape=partialRectangle;overflow=hidden;connectable=0;fillColor=none;top=0;left=0;bottom=0;right=0;align=left;spacingLeft=6;" parent="1" vertex="1">
          <mxGeometry x="-32" y="-233" width="220" height="30" as="geometry">
            <mxRectangle width="220" height="30" as="alternateBounds" />
          </mxGeometry>
        </mxCell>
        <mxCell id="W1w_GPU8LvK_WI4qFMCy-54" value="child_sex char(10) NOT NULL" style="shape=partialRectangle;overflow=hidden;connectable=0;fillColor=none;top=0;left=0;bottom=0;right=0;align=left;spacingLeft=6;" parent="1" vertex="1">
          <mxGeometry x="-30" y="-207" width="220" height="30" as="geometry">
            <mxRectangle width="220" height="30" as="alternateBounds" />
          </mxGeometry>
        </mxCell>
        <mxCell id="W1w_GPU8LvK_WI4qFMCy-55" value="child_age int NOT NULL" style="shape=partialRectangle;overflow=hidden;connectable=0;fillColor=none;top=0;left=0;bottom=0;right=0;align=left;spacingLeft=6;" parent="1" vertex="1">
          <mxGeometry x="-29" y="-180" width="220" height="30" as="geometry">
            <mxRectangle width="220" height="30" as="alternateBounds" />
          </mxGeometry>
        </mxCell>
        <mxCell id="W1w_GPU8LvK_WI4qFMCy-62" value="" style="line;strokeWidth=1;rotatable=0;dashed=0;labelPosition=right;align=left;verticalAlign=middle;spacingTop=0;spacingLeft=6;points=[];portConstraint=eastwest;direction=south;" parent="1" vertex="1">
          <mxGeometry x="-35" y="-320" width="10" height="170" as="geometry" />
        </mxCell>
        <mxCell id="W1w_GPU8LvK_WI4qFMCy-83" value="" style="edgeStyle=orthogonalEdgeStyle;fontSize=12;html=1;endArrow=ERmandOne;startArrow=ERmandOne;rounded=0;entryX=0;entryY=0.5;entryDx=0;entryDy=0;strokeWidth=2;" parent="1" target="C-vyLk0tnHw3VtMMgP7b-17" edge="1">
          <mxGeometry width="100" height="100" relative="1" as="geometry">
            <mxPoint x="-390" y="-335" as="sourcePoint" />
            <mxPoint x="-379.5" y="90" as="targetPoint" />
            <Array as="points">
              <mxPoint x="-420" y="-335" />
              <mxPoint x="-420" y="82" />
            </Array>
          </mxGeometry>
        </mxCell>
        <mxCell id="W1w_GPU8LvK_WI4qFMCy-87" value="" style="shape=tableRow;horizontal=0;startSize=0;swimlaneHead=0;swimlaneBody=0;fillColor=none;collapsible=0;dropTarget=0;points=[[0,0.5],[1,0.5]];portConstraint=eastwest;top=0;left=0;right=0;bottom=0;" parent="1" vertex="1">
          <mxGeometry x="-391" y="-134" width="270" height="30" as="geometry" />
        </mxCell>
        <mxCell id="W1w_GPU8LvK_WI4qFMCy-90" value="" style="shape=tableRow;horizontal=0;startSize=0;swimlaneHead=0;swimlaneBody=0;fillColor=none;collapsible=0;dropTarget=0;points=[[0,0.5],[1,0.5]];portConstraint=eastwest;top=0;left=0;right=0;bottom=0;" parent="1" vertex="1">
          <mxGeometry x="-389" y="-99" width="270" height="30" as="geometry" />
        </mxCell>
        <mxCell id="W1w_GPU8LvK_WI4qFMCy-107" value="" style="shape=partialRectangle;collapsible=0;dropTarget=0;pointerEvents=0;fillColor=none;points=[[0,0.5],[1,0.5]];portConstraint=eastwest;top=0;left=0;right=0;bottom=0;" parent="1" vertex="1">
          <mxGeometry x="-379.5" y="127" width="250" height="30" as="geometry" />
        </mxCell>
        <mxCell id="W1w_GPU8LvK_WI4qFMCy-108" value="" style="shape=partialRectangle;overflow=hidden;connectable=0;fillColor=none;top=0;left=0;bottom=0;right=0;" parent="W1w_GPU8LvK_WI4qFMCy-107" vertex="1">
          <mxGeometry width="30" height="30" as="geometry">
            <mxRectangle width="30" height="30" as="alternateBounds" />
          </mxGeometry>
        </mxCell>
        <mxCell id="W1w_GPU8LvK_WI4qFMCy-109" value="series int NOT NULL" style="shape=partialRectangle;overflow=hidden;connectable=0;fillColor=none;top=0;left=0;bottom=0;right=0;align=left;spacingLeft=6;" parent="W1w_GPU8LvK_WI4qFMCy-107" vertex="1">
          <mxGeometry x="30" width="220" height="30" as="geometry">
            <mxRectangle width="220" height="30" as="alternateBounds" />
          </mxGeometry>
        </mxCell>
        <mxCell id="W1w_GPU8LvK_WI4qFMCy-110" value="" style="shape=partialRectangle;collapsible=0;dropTarget=0;pointerEvents=0;fillColor=none;points=[[0,0.5],[1,0.5]];portConstraint=eastwest;top=0;left=0;right=0;bottom=0;" parent="1" vertex="1">
          <mxGeometry x="-379.5" y="153" width="250" height="30" as="geometry" />
        </mxCell>
        <mxCell id="W1w_GPU8LvK_WI4qFMCy-111" value="" style="shape=partialRectangle;overflow=hidden;connectable=0;fillColor=none;top=0;left=0;bottom=0;right=0;" parent="W1w_GPU8LvK_WI4qFMCy-110" vertex="1">
          <mxGeometry width="30" height="30" as="geometry">
            <mxRectangle width="30" height="30" as="alternateBounds" />
          </mxGeometry>
        </mxCell>
        <mxCell id="W1w_GPU8LvK_WI4qFMCy-112" value="number int NOT NULL" style="shape=partialRectangle;overflow=hidden;connectable=0;fillColor=none;top=0;left=0;bottom=0;right=0;align=left;spacingLeft=6;" parent="W1w_GPU8LvK_WI4qFMCy-110" vertex="1">
          <mxGeometry x="30" width="220" height="30" as="geometry">
            <mxRectangle width="220" height="30" as="alternateBounds" />
          </mxGeometry>
        </mxCell>
        <mxCell id="W1w_GPU8LvK_WI4qFMCy-113" value="" style="shape=partialRectangle;collapsible=0;dropTarget=0;pointerEvents=0;fillColor=none;points=[[0,0.5],[1,0.5]];portConstraint=eastwest;top=0;left=0;right=0;bottom=0;" parent="1" vertex="1">
          <mxGeometry x="-379.5" y="183" width="250" height="30" as="geometry" />
        </mxCell>
        <mxCell id="W1w_GPU8LvK_WI4qFMCy-114" value="" style="shape=partialRectangle;overflow=hidden;connectable=0;fillColor=none;top=0;left=0;bottom=0;right=0;" parent="W1w_GPU8LvK_WI4qFMCy-113" vertex="1">
          <mxGeometry width="30" height="30" as="geometry">
            <mxRectangle width="30" height="30" as="alternateBounds" />
          </mxGeometry>
        </mxCell>
        <mxCell id="W1w_GPU8LvK_WI4qFMCy-115" value="issued_by char(240) NOT NULL" style="shape=partialRectangle;overflow=hidden;connectable=0;fillColor=none;top=0;left=0;bottom=0;right=0;align=left;spacingLeft=6;" parent="W1w_GPU8LvK_WI4qFMCy-113" vertex="1">
          <mxGeometry x="30" width="220" height="30" as="geometry">
            <mxRectangle width="220" height="30" as="alternateBounds" />
          </mxGeometry>
        </mxCell>
        <mxCell id="W1w_GPU8LvK_WI4qFMCy-116" value="" style="shape=partialRectangle;collapsible=0;dropTarget=0;pointerEvents=0;fillColor=none;points=[[0,0.5],[1,0.5]];portConstraint=eastwest;top=0;left=0;right=0;bottom=0;" parent="1" vertex="1">
          <mxGeometry x="-378.5" y="210" width="250" height="30" as="geometry" />
        </mxCell>
        <mxCell id="W1w_GPU8LvK_WI4qFMCy-117" value="" style="shape=partialRectangle;overflow=hidden;connectable=0;fillColor=none;top=0;left=0;bottom=0;right=0;" parent="W1w_GPU8LvK_WI4qFMCy-116" vertex="1">
          <mxGeometry width="30" height="30" as="geometry">
            <mxRectangle width="30" height="30" as="alternateBounds" />
          </mxGeometry>
        </mxCell>
        <mxCell id="W1w_GPU8LvK_WI4qFMCy-118" value="when_issued date NOT NULL" style="shape=partialRectangle;overflow=hidden;connectable=0;fillColor=none;top=0;left=0;bottom=0;right=0;align=left;spacingLeft=6;" parent="W1w_GPU8LvK_WI4qFMCy-116" vertex="1">
          <mxGeometry x="30" width="220" height="30" as="geometry">
            <mxRectangle width="220" height="30" as="alternateBounds" />
          </mxGeometry>
        </mxCell>
        <mxCell id="W1w_GPU8LvK_WI4qFMCy-119" value="Tourist_Children" style="shape=table;startSize=30;container=1;collapsible=1;childLayout=tableLayout;fixedRows=1;rowLines=0;fontStyle=1;align=center;resizeLast=1;" parent="1" vertex="1">
          <mxGeometry x="-62" y="-92" width="250" height="90" as="geometry" />
        </mxCell>
        <mxCell id="W1w_GPU8LvK_WI4qFMCy-123" value="" style="shape=partialRectangle;collapsible=0;dropTarget=0;pointerEvents=0;fillColor=none;points=[[0,0.5],[1,0.5]];portConstraint=eastwest;top=0;left=0;right=0;bottom=0;" parent="W1w_GPU8LvK_WI4qFMCy-119" vertex="1">
          <mxGeometry y="30" width="250" height="30" as="geometry" />
        </mxCell>
        <mxCell id="W1w_GPU8LvK_WI4qFMCy-124" value="PK, FK1" style="shape=partialRectangle;overflow=hidden;connectable=0;fillColor=none;top=0;left=0;bottom=0;right=0;" parent="W1w_GPU8LvK_WI4qFMCy-123" vertex="1">
          <mxGeometry width="52" height="30" as="geometry">
            <mxRectangle width="52" height="30" as="alternateBounds" />
          </mxGeometry>
        </mxCell>
        <mxCell id="W1w_GPU8LvK_WI4qFMCy-125" value="tourist_id int NOT NULL" style="shape=partialRectangle;overflow=hidden;connectable=0;fillColor=none;top=0;left=0;bottom=0;right=0;align=left;spacingLeft=6;" parent="W1w_GPU8LvK_WI4qFMCy-123" vertex="1">
          <mxGeometry x="52" width="198" height="30" as="geometry">
            <mxRectangle width="198" height="30" as="alternateBounds" />
          </mxGeometry>
        </mxCell>
        <mxCell id="W1w_GPU8LvK_WI4qFMCy-126" value="" style="shape=partialRectangle;collapsible=0;dropTarget=0;pointerEvents=0;fillColor=none;points=[[0,0.5],[1,0.5]];portConstraint=eastwest;top=0;left=0;right=0;bottom=0;" parent="W1w_GPU8LvK_WI4qFMCy-119" vertex="1">
          <mxGeometry y="60" width="250" height="30" as="geometry" />
        </mxCell>
        <mxCell id="W1w_GPU8LvK_WI4qFMCy-127" value="PK, FK2" style="shape=partialRectangle;overflow=hidden;connectable=0;fillColor=none;top=0;left=0;bottom=0;right=0;" parent="W1w_GPU8LvK_WI4qFMCy-126" vertex="1">
          <mxGeometry width="52" height="30" as="geometry">
            <mxRectangle width="52" height="30" as="alternateBounds" />
          </mxGeometry>
        </mxCell>
        <mxCell id="W1w_GPU8LvK_WI4qFMCy-128" value="child_id int NOT NULL" style="shape=partialRectangle;overflow=hidden;connectable=0;fillColor=none;top=0;left=0;bottom=0;right=0;align=left;spacingLeft=6;" parent="W1w_GPU8LvK_WI4qFMCy-126" vertex="1">
          <mxGeometry x="52" width="198" height="30" as="geometry">
            <mxRectangle width="198" height="30" as="alternateBounds" />
          </mxGeometry>
        </mxCell>
        <mxCell id="W1w_GPU8LvK_WI4qFMCy-129" value="" style="edgeStyle=orthogonalEdgeStyle;endArrow=ERzeroToMany;startArrow=ERone;endFill=1;startFill=0;exitX=1;exitY=0.5;exitDx=0;exitDy=0;entryX=1;entryY=0.5;entryDx=0;entryDy=0;strokeWidth=2;" parent="1" source="C-vyLk0tnHw3VtMMgP7b-3" target="W1w_GPU8LvK_WI4qFMCy-126" edge="1">
          <mxGeometry width="100" height="100" relative="1" as="geometry">
            <mxPoint x="-110" y="-295" as="sourcePoint" />
            <mxPoint x="188" y="-67" as="targetPoint" />
            <Array as="points">
              <mxPoint x="220" y="-305" />
              <mxPoint x="220" y="-17" />
            </Array>
          </mxGeometry>
        </mxCell>
        <mxCell id="W1w_GPU8LvK_WI4qFMCy-150" value="Tour_card" style="shape=table;startSize=30;container=1;collapsible=1;childLayout=tableLayout;fixedRows=1;rowLines=0;fontStyle=1;align=center;resizeLast=1;" parent="1" vertex="1">
          <mxGeometry x="-79" y="40" width="289.0000000000002" height="360" as="geometry" />
        </mxCell>
        <mxCell id="W1w_GPU8LvK_WI4qFMCy-151" value="" style="shape=partialRectangle;collapsible=0;dropTarget=0;pointerEvents=0;fillColor=none;points=[[0,0.5],[1,0.5]];portConstraint=eastwest;top=0;left=0;right=0;bottom=1;" parent="W1w_GPU8LvK_WI4qFMCy-150" vertex="1">
          <mxGeometry y="30" width="289.0000000000002" height="30" as="geometry" />
        </mxCell>
        <mxCell id="W1w_GPU8LvK_WI4qFMCy-152" value="PK" style="shape=partialRectangle;overflow=hidden;connectable=0;fillColor=none;top=0;left=0;bottom=0;right=0;fontStyle=1;" parent="W1w_GPU8LvK_WI4qFMCy-151" vertex="1">
          <mxGeometry width="30" height="30" as="geometry">
            <mxRectangle width="30" height="30" as="alternateBounds" />
          </mxGeometry>
        </mxCell>
        <mxCell id="W1w_GPU8LvK_WI4qFMCy-153" value="tour_card_id int NOT NULL " style="shape=partialRectangle;overflow=hidden;connectable=0;fillColor=none;top=0;left=0;bottom=0;right=0;align=left;spacingLeft=6;fontStyle=1;" parent="W1w_GPU8LvK_WI4qFMCy-151" vertex="1">
          <mxGeometry x="30" width="259.0000000000002" height="30" as="geometry">
            <mxRectangle width="259.0000000000002" height="30" as="alternateBounds" />
          </mxGeometry>
        </mxCell>
        <mxCell id="IjkAew8CNjYwR2uWhOrY-29" value="" style="shape=tableRow;horizontal=0;startSize=0;swimlaneHead=0;swimlaneBody=0;fillColor=none;collapsible=0;dropTarget=0;points=[[0,0.5],[1,0.5]];portConstraint=eastwest;top=0;left=0;right=0;bottom=0;" parent="W1w_GPU8LvK_WI4qFMCy-150" vertex="1">
          <mxGeometry y="60" width="289.0000000000002" height="30" as="geometry" />
        </mxCell>
        <mxCell id="IjkAew8CNjYwR2uWhOrY-30" value="FK1" style="shape=partialRectangle;connectable=0;fillColor=none;top=0;left=0;bottom=0;right=0;editable=1;overflow=hidden;" parent="IjkAew8CNjYwR2uWhOrY-29" vertex="1">
          <mxGeometry width="30" height="30" as="geometry">
            <mxRectangle width="30" height="30" as="alternateBounds" />
          </mxGeometry>
        </mxCell>
        <mxCell id="IjkAew8CNjYwR2uWhOrY-31" value="tourist_id int NOT NULL" style="shape=partialRectangle;connectable=0;fillColor=none;top=0;left=0;bottom=0;right=0;align=left;spacingLeft=6;overflow=hidden;" parent="IjkAew8CNjYwR2uWhOrY-29" vertex="1">
          <mxGeometry x="30" width="259.0000000000002" height="30" as="geometry">
            <mxRectangle width="259.0000000000002" height="30" as="alternateBounds" />
          </mxGeometry>
        </mxCell>
        <mxCell id="W1w_GPU8LvK_WI4qFMCy-154" value="" style="shape=partialRectangle;collapsible=0;dropTarget=0;pointerEvents=0;fillColor=none;points=[[0,0.5],[1,0.5]];portConstraint=eastwest;top=0;left=0;right=0;bottom=0;" parent="W1w_GPU8LvK_WI4qFMCy-150" vertex="1">
          <mxGeometry y="90" width="289.0000000000002" height="30" as="geometry" />
        </mxCell>
        <mxCell id="W1w_GPU8LvK_WI4qFMCy-155" value="FK2" style="shape=partialRectangle;overflow=hidden;connectable=0;fillColor=none;top=0;left=0;bottom=0;right=0;" parent="W1w_GPU8LvK_WI4qFMCy-154" vertex="1">
          <mxGeometry width="30" height="30" as="geometry">
            <mxRectangle width="30" height="30" as="alternateBounds" />
          </mxGeometry>
        </mxCell>
        <mxCell id="W1w_GPU8LvK_WI4qFMCy-156" value="tour_id int NOT NULL" style="shape=partialRectangle;overflow=hidden;connectable=0;fillColor=none;top=0;left=0;bottom=0;right=0;align=left;spacingLeft=6;" parent="W1w_GPU8LvK_WI4qFMCy-154" vertex="1">
          <mxGeometry x="30" width="259.0000000000002" height="30" as="geometry">
            <mxRectangle width="259.0000000000002" height="30" as="alternateBounds" />
          </mxGeometry>
        </mxCell>
        <mxCell id="W1w_GPU8LvK_WI4qFMCy-157" value="" style="shape=partialRectangle;collapsible=0;dropTarget=0;pointerEvents=0;fillColor=none;points=[[0,0.5],[1,0.5]];portConstraint=eastwest;top=0;left=0;right=0;bottom=0;" parent="W1w_GPU8LvK_WI4qFMCy-150" vertex="1">
          <mxGeometry y="120" width="289.0000000000002" height="30" as="geometry" />
        </mxCell>
        <mxCell id="W1w_GPU8LvK_WI4qFMCy-158" value="FK3" style="shape=partialRectangle;overflow=hidden;connectable=0;fillColor=none;top=0;left=0;bottom=0;right=0;" parent="W1w_GPU8LvK_WI4qFMCy-157" vertex="1">
          <mxGeometry width="30" height="30" as="geometry">
            <mxRectangle width="30" height="30" as="alternateBounds" />
          </mxGeometry>
        </mxCell>
        <mxCell id="W1w_GPU8LvK_WI4qFMCy-159" value="flights_card_id int NOT NULL" style="shape=partialRectangle;overflow=hidden;connectable=0;fillColor=none;top=0;left=0;bottom=0;right=0;align=left;spacingLeft=6;" parent="W1w_GPU8LvK_WI4qFMCy-157" vertex="1">
          <mxGeometry x="30" width="259.0000000000002" height="30" as="geometry">
            <mxRectangle width="259.0000000000002" height="30" as="alternateBounds" />
          </mxGeometry>
        </mxCell>
        <mxCell id="QZeqmvYRpOHpBTYo1mOe-40" value="" style="shape=tableRow;horizontal=0;startSize=0;swimlaneHead=0;swimlaneBody=0;fillColor=none;collapsible=0;dropTarget=0;points=[[0,0.5],[1,0.5]];portConstraint=eastwest;top=0;left=0;right=0;bottom=0;" parent="W1w_GPU8LvK_WI4qFMCy-150" vertex="1">
          <mxGeometry y="150" width="289.0000000000002" height="30" as="geometry" />
        </mxCell>
        <mxCell id="QZeqmvYRpOHpBTYo1mOe-41" value="FK4" style="shape=partialRectangle;connectable=0;fillColor=none;top=0;left=0;bottom=0;right=0;editable=1;overflow=hidden;" parent="QZeqmvYRpOHpBTYo1mOe-40" vertex="1">
          <mxGeometry width="30" height="30" as="geometry">
            <mxRectangle width="30" height="30" as="alternateBounds" />
          </mxGeometry>
        </mxCell>
        <mxCell id="QZeqmvYRpOHpBTYo1mOe-42" value="hotel_card_id int NOT NULL" style="shape=partialRectangle;connectable=0;fillColor=none;top=0;left=0;bottom=0;right=0;align=left;spacingLeft=6;overflow=hidden;" parent="QZeqmvYRpOHpBTYo1mOe-40" vertex="1">
          <mxGeometry x="30" width="259.0000000000002" height="30" as="geometry">
            <mxRectangle width="259.0000000000002" height="30" as="alternateBounds" />
          </mxGeometry>
        </mxCell>
        <mxCell id="QZeqmvYRpOHpBTYo1mOe-76" value="" style="shape=tableRow;horizontal=0;startSize=0;swimlaneHead=0;swimlaneBody=0;fillColor=none;collapsible=0;dropTarget=0;points=[[0,0.5],[1,0.5]];portConstraint=eastwest;top=0;left=0;right=0;bottom=0;" parent="W1w_GPU8LvK_WI4qFMCy-150" vertex="1">
          <mxGeometry y="180" width="289.0000000000002" height="30" as="geometry" />
        </mxCell>
        <mxCell id="QZeqmvYRpOHpBTYo1mOe-77" value="" style="shape=partialRectangle;connectable=0;fillColor=none;top=0;left=0;bottom=0;right=0;editable=1;overflow=hidden;" parent="QZeqmvYRpOHpBTYo1mOe-76" vertex="1">
          <mxGeometry width="30" height="30" as="geometry">
            <mxRectangle width="30" height="30" as="alternateBounds" />
          </mxGeometry>
        </mxCell>
        <mxCell id="QZeqmvYRpOHpBTYo1mOe-78" value="main_excursions_cost float" style="shape=partialRectangle;connectable=0;fillColor=none;top=0;left=0;bottom=0;right=0;align=left;spacingLeft=6;overflow=hidden;" parent="QZeqmvYRpOHpBTYo1mOe-76" vertex="1">
          <mxGeometry x="30" width="259.0000000000002" height="30" as="geometry">
            <mxRectangle width="259.0000000000002" height="30" as="alternateBounds" />
          </mxGeometry>
        </mxCell>
        <mxCell id="9sxgn1_CPgtoZr-VSsLu-25" value="" style="shape=tableRow;horizontal=0;startSize=0;swimlaneHead=0;swimlaneBody=0;fillColor=none;collapsible=0;dropTarget=0;points=[[0,0.5],[1,0.5]];portConstraint=eastwest;top=0;left=0;right=0;bottom=0;" parent="W1w_GPU8LvK_WI4qFMCy-150" vertex="1">
          <mxGeometry y="210" width="289.0000000000002" height="30" as="geometry" />
        </mxCell>
        <mxCell id="9sxgn1_CPgtoZr-VSsLu-26" value="" style="shape=partialRectangle;connectable=0;fillColor=none;top=0;left=0;bottom=0;right=0;editable=1;overflow=hidden;" parent="9sxgn1_CPgtoZr-VSsLu-25" vertex="1">
          <mxGeometry width="30" height="30" as="geometry">
            <mxRectangle width="30" height="30" as="alternateBounds" />
          </mxGeometry>
        </mxCell>
        <mxCell id="9sxgn1_CPgtoZr-VSsLu-27" value="main_excursions_expenses float NOT NULL" style="shape=partialRectangle;connectable=0;fillColor=none;top=0;left=0;bottom=0;right=0;align=left;spacingLeft=6;overflow=hidden;" parent="9sxgn1_CPgtoZr-VSsLu-25" vertex="1">
          <mxGeometry x="30" width="259.0000000000002" height="30" as="geometry">
            <mxRectangle width="259.0000000000002" height="30" as="alternateBounds" />
          </mxGeometry>
        </mxCell>
        <mxCell id="QZeqmvYRpOHpBTYo1mOe-79" value="" style="shape=tableRow;horizontal=0;startSize=0;swimlaneHead=0;swimlaneBody=0;fillColor=none;collapsible=0;dropTarget=0;points=[[0,0.5],[1,0.5]];portConstraint=eastwest;top=0;left=0;right=0;bottom=0;" parent="W1w_GPU8LvK_WI4qFMCy-150" vertex="1">
          <mxGeometry y="240" width="289.0000000000002" height="30" as="geometry" />
        </mxCell>
        <mxCell id="QZeqmvYRpOHpBTYo1mOe-80" value="" style="shape=partialRectangle;connectable=0;fillColor=none;top=0;left=0;bottom=0;right=0;editable=1;overflow=hidden;" parent="QZeqmvYRpOHpBTYo1mOe-79" vertex="1">
          <mxGeometry width="30" height="30" as="geometry">
            <mxRectangle width="30" height="30" as="alternateBounds" />
          </mxGeometry>
        </mxCell>
        <mxCell id="QZeqmvYRpOHpBTYo1mOe-81" value="cargo_traffic_cost float" style="shape=partialRectangle;connectable=0;fillColor=none;top=0;left=0;bottom=0;right=0;align=left;spacingLeft=6;overflow=hidden;" parent="QZeqmvYRpOHpBTYo1mOe-79" vertex="1">
          <mxGeometry x="30" width="259.0000000000002" height="30" as="geometry">
            <mxRectangle width="259.0000000000002" height="30" as="alternateBounds" />
          </mxGeometry>
        </mxCell>
        <mxCell id="9sxgn1_CPgtoZr-VSsLu-22" value="" style="shape=tableRow;horizontal=0;startSize=0;swimlaneHead=0;swimlaneBody=0;fillColor=none;collapsible=0;dropTarget=0;points=[[0,0.5],[1,0.5]];portConstraint=eastwest;top=0;left=0;right=0;bottom=0;" parent="W1w_GPU8LvK_WI4qFMCy-150" vertex="1">
          <mxGeometry y="270" width="289.0000000000002" height="30" as="geometry" />
        </mxCell>
        <mxCell id="9sxgn1_CPgtoZr-VSsLu-23" value="" style="shape=partialRectangle;connectable=0;fillColor=none;top=0;left=0;bottom=0;right=0;editable=1;overflow=hidden;" parent="9sxgn1_CPgtoZr-VSsLu-22" vertex="1">
          <mxGeometry width="30" height="30" as="geometry">
            <mxRectangle width="30" height="30" as="alternateBounds" />
          </mxGeometry>
        </mxCell>
        <mxCell id="9sxgn1_CPgtoZr-VSsLu-24" value="cargo_traffic_expenses float NOT NULL" style="shape=partialRectangle;connectable=0;fillColor=none;top=0;left=0;bottom=0;right=0;align=left;spacingLeft=6;overflow=hidden;" parent="9sxgn1_CPgtoZr-VSsLu-22" vertex="1">
          <mxGeometry x="30" width="259.0000000000002" height="30" as="geometry">
            <mxRectangle width="259.0000000000002" height="30" as="alternateBounds" />
          </mxGeometry>
        </mxCell>
        <mxCell id="QZeqmvYRpOHpBTYo1mOe-46" value="" style="shape=tableRow;horizontal=0;startSize=0;swimlaneHead=0;swimlaneBody=0;fillColor=none;collapsible=0;dropTarget=0;points=[[0,0.5],[1,0.5]];portConstraint=eastwest;top=0;left=0;right=0;bottom=0;" parent="W1w_GPU8LvK_WI4qFMCy-150" vertex="1">
          <mxGeometry y="300" width="289.0000000000002" height="30" as="geometry" />
        </mxCell>
        <mxCell id="QZeqmvYRpOHpBTYo1mOe-47" value="" style="shape=partialRectangle;connectable=0;fillColor=none;top=0;left=0;bottom=0;right=0;editable=1;overflow=hidden;" parent="QZeqmvYRpOHpBTYo1mOe-46" vertex="1">
          <mxGeometry width="30" height="30" as="geometry">
            <mxRectangle width="30" height="30" as="alternateBounds" />
          </mxGeometry>
        </mxCell>
        <mxCell id="QZeqmvYRpOHpBTYo1mOe-48" value="main_tour_cost float NOT NULL" style="shape=partialRectangle;connectable=0;fillColor=none;top=0;left=0;bottom=0;right=0;align=left;spacingLeft=6;overflow=hidden;" parent="QZeqmvYRpOHpBTYo1mOe-46" vertex="1">
          <mxGeometry x="30" width="259.0000000000002" height="30" as="geometry">
            <mxRectangle width="259.0000000000002" height="30" as="alternateBounds" />
          </mxGeometry>
        </mxCell>
        <mxCell id="9sxgn1_CPgtoZr-VSsLu-19" value="" style="shape=tableRow;horizontal=0;startSize=0;swimlaneHead=0;swimlaneBody=0;fillColor=none;collapsible=0;dropTarget=0;points=[[0,0.5],[1,0.5]];portConstraint=eastwest;top=0;left=0;right=0;bottom=0;" parent="W1w_GPU8LvK_WI4qFMCy-150" vertex="1">
          <mxGeometry y="330" width="289.0000000000002" height="30" as="geometry" />
        </mxCell>
        <mxCell id="9sxgn1_CPgtoZr-VSsLu-20" value="" style="shape=partialRectangle;connectable=0;fillColor=none;top=0;left=0;bottom=0;right=0;editable=1;overflow=hidden;" parent="9sxgn1_CPgtoZr-VSsLu-19" vertex="1">
          <mxGeometry width="30" height="30" as="geometry">
            <mxRectangle width="30" height="30" as="alternateBounds" />
          </mxGeometry>
        </mxCell>
        <mxCell id="9sxgn1_CPgtoZr-VSsLu-21" value="main_tour_expenses float NOT NULL" style="shape=partialRectangle;connectable=0;fillColor=none;top=0;left=0;bottom=0;right=0;align=left;spacingLeft=6;overflow=hidden;" parent="9sxgn1_CPgtoZr-VSsLu-19" vertex="1">
          <mxGeometry x="30" width="259.0000000000002" height="30" as="geometry">
            <mxRectangle width="259.0000000000002" height="30" as="alternateBounds" />
          </mxGeometry>
        </mxCell>
        <mxCell id="W1w_GPU8LvK_WI4qFMCy-172" value="" style="edgeStyle=orthogonalEdgeStyle;fontSize=12;html=1;endArrow=ERmandOne;startArrow=ERmandOne;rounded=0;entryX=0;entryY=0.5;entryDx=0;entryDy=0;exitX=0;exitY=0.5;exitDx=0;exitDy=0;fillColor=#60a917;strokeColor=#2D7600;strokeWidth=2;" parent="1" source="C-vyLk0tnHw3VtMMgP7b-24" target="W1w_GPU8LvK_WI4qFMCy-151" edge="1">
          <mxGeometry width="100" height="100" relative="1" as="geometry">
            <mxPoint x="-380" y="-171" as="sourcePoint" />
            <mxPoint x="-369" y="95" as="targetPoint" />
            <Array as="points">
              <mxPoint x="-410" y="-304" />
              <mxPoint x="-410" y="-20" />
              <mxPoint x="-110" y="-20" />
              <mxPoint x="-110" y="85" />
            </Array>
          </mxGeometry>
        </mxCell>
        <mxCell id="W1w_GPU8LvK_WI4qFMCy-173" value="Tour" style="shape=table;startSize=30;container=1;collapsible=1;childLayout=tableLayout;fixedRows=1;rowLines=0;fontStyle=1;align=center;resizeLast=1;" parent="1" vertex="1">
          <mxGeometry x="290" y="40" width="250" height="300" as="geometry" />
        </mxCell>
        <mxCell id="W1w_GPU8LvK_WI4qFMCy-174" value="" style="shape=partialRectangle;collapsible=0;dropTarget=0;pointerEvents=0;fillColor=none;points=[[0,0.5],[1,0.5]];portConstraint=eastwest;top=0;left=0;right=0;bottom=1;" parent="W1w_GPU8LvK_WI4qFMCy-173" vertex="1">
          <mxGeometry y="30" width="250" height="30" as="geometry" />
        </mxCell>
        <mxCell id="W1w_GPU8LvK_WI4qFMCy-175" value="PK" style="shape=partialRectangle;overflow=hidden;connectable=0;fillColor=none;top=0;left=0;bottom=0;right=0;fontStyle=1;" parent="W1w_GPU8LvK_WI4qFMCy-174" vertex="1">
          <mxGeometry width="30" height="30" as="geometry">
            <mxRectangle width="30" height="30" as="alternateBounds" />
          </mxGeometry>
        </mxCell>
        <mxCell id="W1w_GPU8LvK_WI4qFMCy-176" value="tour_id int NOT NULL " style="shape=partialRectangle;overflow=hidden;connectable=0;fillColor=none;top=0;left=0;bottom=0;right=0;align=left;spacingLeft=6;fontStyle=1;" parent="W1w_GPU8LvK_WI4qFMCy-174" vertex="1">
          <mxGeometry x="30" width="220" height="30" as="geometry">
            <mxRectangle width="220" height="30" as="alternateBounds" />
          </mxGeometry>
        </mxCell>
        <mxCell id="W1w_GPU8LvK_WI4qFMCy-180" value="" style="shape=partialRectangle;collapsible=0;dropTarget=0;pointerEvents=0;fillColor=none;points=[[0,0.5],[1,0.5]];portConstraint=eastwest;top=0;left=0;right=0;bottom=0;" parent="W1w_GPU8LvK_WI4qFMCy-173" vertex="1">
          <mxGeometry y="60" width="250" height="30" as="geometry" />
        </mxCell>
        <mxCell id="W1w_GPU8LvK_WI4qFMCy-181" value="" style="shape=partialRectangle;overflow=hidden;connectable=0;fillColor=none;top=0;left=0;bottom=0;right=0;" parent="W1w_GPU8LvK_WI4qFMCy-180" vertex="1">
          <mxGeometry width="30" height="30" as="geometry">
            <mxRectangle width="30" height="30" as="alternateBounds" />
          </mxGeometry>
        </mxCell>
        <mxCell id="W1w_GPU8LvK_WI4qFMCy-182" value="tour_ name char(240) NOT NULL" style="shape=partialRectangle;overflow=hidden;connectable=0;fillColor=none;top=0;left=0;bottom=0;right=0;align=left;spacingLeft=6;" parent="W1w_GPU8LvK_WI4qFMCy-180" vertex="1">
          <mxGeometry x="30" width="220" height="30" as="geometry">
            <mxRectangle width="220" height="30" as="alternateBounds" />
          </mxGeometry>
        </mxCell>
        <mxCell id="QZeqmvYRpOHpBTYo1mOe-22" value="" style="shape=tableRow;horizontal=0;startSize=0;swimlaneHead=0;swimlaneBody=0;fillColor=none;collapsible=0;dropTarget=0;points=[[0,0.5],[1,0.5]];portConstraint=eastwest;top=0;left=0;right=0;bottom=0;" parent="W1w_GPU8LvK_WI4qFMCy-173" vertex="1">
          <mxGeometry y="90" width="250" height="30" as="geometry" />
        </mxCell>
        <mxCell id="QZeqmvYRpOHpBTYo1mOe-23" value="" style="shape=partialRectangle;connectable=0;fillColor=none;top=0;left=0;bottom=0;right=0;editable=1;overflow=hidden;" parent="QZeqmvYRpOHpBTYo1mOe-22" vertex="1">
          <mxGeometry width="30" height="30" as="geometry">
            <mxRectangle width="30" height="30" as="alternateBounds" />
          </mxGeometry>
        </mxCell>
        <mxCell id="QZeqmvYRpOHpBTYo1mOe-24" value="tour_description varchar " style="shape=partialRectangle;connectable=0;fillColor=none;top=0;left=0;bottom=0;right=0;align=left;spacingLeft=6;overflow=hidden;" parent="QZeqmvYRpOHpBTYo1mOe-22" vertex="1">
          <mxGeometry x="30" width="220" height="30" as="geometry">
            <mxRectangle width="220" height="30" as="alternateBounds" />
          </mxGeometry>
        </mxCell>
        <mxCell id="QZeqmvYRpOHpBTYo1mOe-25" value="" style="shape=tableRow;horizontal=0;startSize=0;swimlaneHead=0;swimlaneBody=0;fillColor=none;collapsible=0;dropTarget=0;points=[[0,0.5],[1,0.5]];portConstraint=eastwest;top=0;left=0;right=0;bottom=0;" parent="W1w_GPU8LvK_WI4qFMCy-173" vertex="1">
          <mxGeometry y="120" width="250" height="30" as="geometry" />
        </mxCell>
        <mxCell id="QZeqmvYRpOHpBTYo1mOe-26" value="" style="shape=partialRectangle;connectable=0;fillColor=none;top=0;left=0;bottom=0;right=0;editable=1;overflow=hidden;" parent="QZeqmvYRpOHpBTYo1mOe-25" vertex="1">
          <mxGeometry width="30" height="30" as="geometry">
            <mxRectangle width="30" height="30" as="alternateBounds" />
          </mxGeometry>
        </mxCell>
        <mxCell id="QZeqmvYRpOHpBTYo1mOe-27" value="tour_cost float NOT NULL" style="shape=partialRectangle;connectable=0;fillColor=none;top=0;left=0;bottom=0;right=0;align=left;spacingLeft=6;overflow=hidden;" parent="QZeqmvYRpOHpBTYo1mOe-25" vertex="1">
          <mxGeometry x="30" width="220" height="30" as="geometry">
            <mxRectangle width="220" height="30" as="alternateBounds" />
          </mxGeometry>
        </mxCell>
        <mxCell id="QZeqmvYRpOHpBTYo1mOe-28" value="" style="shape=tableRow;horizontal=0;startSize=0;swimlaneHead=0;swimlaneBody=0;fillColor=none;collapsible=0;dropTarget=0;points=[[0,0.5],[1,0.5]];portConstraint=eastwest;top=0;left=0;right=0;bottom=0;" parent="W1w_GPU8LvK_WI4qFMCy-173" vertex="1">
          <mxGeometry y="150" width="250" height="30" as="geometry" />
        </mxCell>
        <mxCell id="QZeqmvYRpOHpBTYo1mOe-29" value="" style="shape=partialRectangle;connectable=0;fillColor=none;top=0;left=0;bottom=0;right=0;editable=1;overflow=hidden;" parent="QZeqmvYRpOHpBTYo1mOe-28" vertex="1">
          <mxGeometry width="30" height="30" as="geometry">
            <mxRectangle width="30" height="30" as="alternateBounds" />
          </mxGeometry>
        </mxCell>
        <mxCell id="QZeqmvYRpOHpBTYo1mOe-30" value="tour_country char(50) NOT NULL" style="shape=partialRectangle;connectable=0;fillColor=none;top=0;left=0;bottom=0;right=0;align=left;spacingLeft=6;overflow=hidden;" parent="QZeqmvYRpOHpBTYo1mOe-28" vertex="1">
          <mxGeometry x="30" width="220" height="30" as="geometry">
            <mxRectangle width="220" height="30" as="alternateBounds" />
          </mxGeometry>
        </mxCell>
        <mxCell id="QZeqmvYRpOHpBTYo1mOe-31" value="" style="shape=tableRow;horizontal=0;startSize=0;swimlaneHead=0;swimlaneBody=0;fillColor=none;collapsible=0;dropTarget=0;points=[[0,0.5],[1,0.5]];portConstraint=eastwest;top=0;left=0;right=0;bottom=0;" parent="W1w_GPU8LvK_WI4qFMCy-173" vertex="1">
          <mxGeometry y="180" width="250" height="30" as="geometry" />
        </mxCell>
        <mxCell id="QZeqmvYRpOHpBTYo1mOe-32" value="" style="shape=partialRectangle;connectable=0;fillColor=none;top=0;left=0;bottom=0;right=0;editable=1;overflow=hidden;" parent="QZeqmvYRpOHpBTYo1mOe-31" vertex="1">
          <mxGeometry width="30" height="30" as="geometry">
            <mxRectangle width="30" height="30" as="alternateBounds" />
          </mxGeometry>
        </mxCell>
        <mxCell id="QZeqmvYRpOHpBTYo1mOe-33" value="tour_city char(50) NOT NULL" style="shape=partialRectangle;connectable=0;fillColor=none;top=0;left=0;bottom=0;right=0;align=left;spacingLeft=6;overflow=hidden;" parent="QZeqmvYRpOHpBTYo1mOe-31" vertex="1">
          <mxGeometry x="30" width="220" height="30" as="geometry">
            <mxRectangle width="220" height="30" as="alternateBounds" />
          </mxGeometry>
        </mxCell>
        <mxCell id="QZeqmvYRpOHpBTYo1mOe-94" value="" style="shape=tableRow;horizontal=0;startSize=0;swimlaneHead=0;swimlaneBody=0;fillColor=none;collapsible=0;dropTarget=0;points=[[0,0.5],[1,0.5]];portConstraint=eastwest;top=0;left=0;right=0;bottom=0;" parent="W1w_GPU8LvK_WI4qFMCy-173" vertex="1">
          <mxGeometry y="210" width="250" height="30" as="geometry" />
        </mxCell>
        <mxCell id="QZeqmvYRpOHpBTYo1mOe-95" value="" style="shape=partialRectangle;connectable=0;fillColor=none;top=0;left=0;bottom=0;right=0;editable=1;overflow=hidden;" parent="QZeqmvYRpOHpBTYo1mOe-94" vertex="1">
          <mxGeometry width="30" height="30" as="geometry">
            <mxRectangle width="30" height="30" as="alternateBounds" />
          </mxGeometry>
        </mxCell>
        <mxCell id="QZeqmvYRpOHpBTYo1mOe-96" value="tour_start_date date NOT NULL" style="shape=partialRectangle;connectable=0;fillColor=none;top=0;left=0;bottom=0;right=0;align=left;spacingLeft=6;overflow=hidden;" parent="QZeqmvYRpOHpBTYo1mOe-94" vertex="1">
          <mxGeometry x="30" width="220" height="30" as="geometry">
            <mxRectangle width="220" height="30" as="alternateBounds" />
          </mxGeometry>
        </mxCell>
        <mxCell id="QZeqmvYRpOHpBTYo1mOe-97" value="" style="shape=tableRow;horizontal=0;startSize=0;swimlaneHead=0;swimlaneBody=0;fillColor=none;collapsible=0;dropTarget=0;points=[[0,0.5],[1,0.5]];portConstraint=eastwest;top=0;left=0;right=0;bottom=0;" parent="W1w_GPU8LvK_WI4qFMCy-173" vertex="1">
          <mxGeometry y="240" width="250" height="30" as="geometry" />
        </mxCell>
        <mxCell id="QZeqmvYRpOHpBTYo1mOe-98" value="" style="shape=partialRectangle;connectable=0;fillColor=none;top=0;left=0;bottom=0;right=0;editable=1;overflow=hidden;" parent="QZeqmvYRpOHpBTYo1mOe-97" vertex="1">
          <mxGeometry width="30" height="30" as="geometry">
            <mxRectangle width="30" height="30" as="alternateBounds" />
          </mxGeometry>
        </mxCell>
        <mxCell id="QZeqmvYRpOHpBTYo1mOe-99" value="tour_end_date date NOT NULL" style="shape=partialRectangle;connectable=0;fillColor=none;top=0;left=0;bottom=0;right=0;align=left;spacingLeft=6;overflow=hidden;" parent="QZeqmvYRpOHpBTYo1mOe-97" vertex="1">
          <mxGeometry x="30" width="220" height="30" as="geometry">
            <mxRectangle width="220" height="30" as="alternateBounds" />
          </mxGeometry>
        </mxCell>
        <mxCell id="QZeqmvYRpOHpBTYo1mOe-34" value="" style="shape=tableRow;horizontal=0;startSize=0;swimlaneHead=0;swimlaneBody=0;fillColor=none;collapsible=0;dropTarget=0;points=[[0,0.5],[1,0.5]];portConstraint=eastwest;top=0;left=0;right=0;bottom=0;" parent="W1w_GPU8LvK_WI4qFMCy-173" vertex="1">
          <mxGeometry y="270" width="250" height="30" as="geometry" />
        </mxCell>
        <mxCell id="QZeqmvYRpOHpBTYo1mOe-35" value="" style="shape=partialRectangle;connectable=0;fillColor=none;top=0;left=0;bottom=0;right=0;editable=1;overflow=hidden;" parent="QZeqmvYRpOHpBTYo1mOe-34" vertex="1">
          <mxGeometry width="30" height="30" as="geometry">
            <mxRectangle width="30" height="30" as="alternateBounds" />
          </mxGeometry>
        </mxCell>
        <mxCell id="QZeqmvYRpOHpBTYo1mOe-36" value="duration_in_days int NOT NULL" style="shape=partialRectangle;connectable=0;fillColor=none;top=0;left=0;bottom=0;right=0;align=left;spacingLeft=6;overflow=hidden;" parent="QZeqmvYRpOHpBTYo1mOe-34" vertex="1">
          <mxGeometry x="30" width="220" height="30" as="geometry">
            <mxRectangle width="220" height="30" as="alternateBounds" />
          </mxGeometry>
        </mxCell>
        <mxCell id="W1w_GPU8LvK_WI4qFMCy-195" value="" style="edgeStyle=orthogonalEdgeStyle;fontSize=12;html=1;endArrow=ERmandOne;startArrow=ERmandOne;rounded=0;exitX=1;exitY=0.5;exitDx=0;exitDy=0;entryX=0;entryY=0.5;entryDx=0;entryDy=0;strokeWidth=2;" parent="1" source="W1w_GPU8LvK_WI4qFMCy-154" target="W1w_GPU8LvK_WI4qFMCy-174" edge="1">
          <mxGeometry width="100" height="100" relative="1" as="geometry">
            <mxPoint x="200" y="130" as="sourcePoint" />
            <mxPoint x="300" y="30" as="targetPoint" />
          </mxGeometry>
        </mxCell>
        <mxCell id="W1w_GPU8LvK_WI4qFMCy-196" value="Excursion_card" style="shape=table;startSize=30;container=1;collapsible=1;childLayout=tableLayout;fixedRows=1;rowLines=0;fontStyle=1;align=center;resizeLast=1;" parent="1" vertex="1">
          <mxGeometry x="-387.5" y="319" width="251.5" height="90" as="geometry" />
        </mxCell>
        <mxCell id="W1w_GPU8LvK_WI4qFMCy-200" value="" style="shape=partialRectangle;collapsible=0;dropTarget=0;pointerEvents=0;fillColor=none;points=[[0,0.5],[1,0.5]];portConstraint=eastwest;top=0;left=0;right=0;bottom=0;" parent="W1w_GPU8LvK_WI4qFMCy-196" vertex="1">
          <mxGeometry y="30" width="251.5" height="30" as="geometry" />
        </mxCell>
        <mxCell id="W1w_GPU8LvK_WI4qFMCy-201" value="PK, FK1" style="shape=partialRectangle;overflow=hidden;connectable=0;fillColor=none;top=0;left=0;bottom=0;right=0;" parent="W1w_GPU8LvK_WI4qFMCy-200" vertex="1">
          <mxGeometry width="57.5" height="30" as="geometry">
            <mxRectangle width="57.5" height="30" as="alternateBounds" />
          </mxGeometry>
        </mxCell>
        <mxCell id="W1w_GPU8LvK_WI4qFMCy-202" value="excursion_id int NOT NULL" style="shape=partialRectangle;overflow=hidden;connectable=0;fillColor=none;top=0;left=0;bottom=0;right=0;align=left;spacingLeft=6;" parent="W1w_GPU8LvK_WI4qFMCy-200" vertex="1">
          <mxGeometry x="57.5" width="194" height="30" as="geometry">
            <mxRectangle width="194" height="30" as="alternateBounds" />
          </mxGeometry>
        </mxCell>
        <mxCell id="ZO-J2TBk0OJasq5sorBM-4" value="" style="shape=tableRow;horizontal=0;startSize=0;swimlaneHead=0;swimlaneBody=0;fillColor=none;collapsible=0;dropTarget=0;points=[[0,0.5],[1,0.5]];portConstraint=eastwest;top=0;left=0;right=0;bottom=0;" parent="W1w_GPU8LvK_WI4qFMCy-196" vertex="1">
          <mxGeometry y="60" width="251.5" height="30" as="geometry" />
        </mxCell>
        <mxCell id="ZO-J2TBk0OJasq5sorBM-5" value="PK, FK2" style="shape=partialRectangle;connectable=0;fillColor=none;top=0;left=0;bottom=0;right=0;editable=1;overflow=hidden;" parent="ZO-J2TBk0OJasq5sorBM-4" vertex="1">
          <mxGeometry width="57.5" height="30" as="geometry">
            <mxRectangle width="57.5" height="30" as="alternateBounds" />
          </mxGeometry>
        </mxCell>
        <mxCell id="ZO-J2TBk0OJasq5sorBM-6" value="tour_card_id int NOT NULL" style="shape=partialRectangle;connectable=0;fillColor=none;top=0;left=0;bottom=0;right=0;align=left;spacingLeft=6;overflow=hidden;" parent="ZO-J2TBk0OJasq5sorBM-4" vertex="1">
          <mxGeometry x="57.5" width="194" height="30" as="geometry">
            <mxRectangle width="194" height="30" as="alternateBounds" />
          </mxGeometry>
        </mxCell>
        <mxCell id="W1w_GPU8LvK_WI4qFMCy-219" value="Excursion" style="shape=table;startSize=30;container=1;collapsible=1;childLayout=tableLayout;fixedRows=1;rowLines=0;fontStyle=1;align=center;resizeLast=1;" parent="1" vertex="1">
          <mxGeometry x="-83" y="433" width="292" height="333" as="geometry" />
        </mxCell>
        <mxCell id="W1w_GPU8LvK_WI4qFMCy-220" value="" style="shape=partialRectangle;collapsible=0;dropTarget=0;pointerEvents=0;fillColor=none;points=[[0,0.5],[1,0.5]];portConstraint=eastwest;top=0;left=0;right=0;bottom=1;" parent="W1w_GPU8LvK_WI4qFMCy-219" vertex="1">
          <mxGeometry y="30" width="292" height="30" as="geometry" />
        </mxCell>
        <mxCell id="W1w_GPU8LvK_WI4qFMCy-221" value="PK" style="shape=partialRectangle;overflow=hidden;connectable=0;fillColor=none;top=0;left=0;bottom=0;right=0;fontStyle=1;" parent="W1w_GPU8LvK_WI4qFMCy-220" vertex="1">
          <mxGeometry width="30" height="30" as="geometry">
            <mxRectangle width="30" height="30" as="alternateBounds" />
          </mxGeometry>
        </mxCell>
        <mxCell id="W1w_GPU8LvK_WI4qFMCy-222" value="excursion_id int NOT NULL " style="shape=partialRectangle;overflow=hidden;connectable=0;fillColor=none;top=0;left=0;bottom=0;right=0;align=left;spacingLeft=6;fontStyle=1;" parent="W1w_GPU8LvK_WI4qFMCy-220" vertex="1">
          <mxGeometry x="30" width="262" height="30" as="geometry">
            <mxRectangle width="262" height="30" as="alternateBounds" />
          </mxGeometry>
        </mxCell>
        <mxCell id="QZeqmvYRpOHpBTYo1mOe-211" value="" style="shape=tableRow;horizontal=0;startSize=0;swimlaneHead=0;swimlaneBody=0;fillColor=none;collapsible=0;dropTarget=0;points=[[0,0.5],[1,0.5]];portConstraint=eastwest;top=0;left=0;right=0;bottom=0;" parent="W1w_GPU8LvK_WI4qFMCy-219" vertex="1">
          <mxGeometry y="60" width="292" height="30" as="geometry" />
        </mxCell>
        <mxCell id="QZeqmvYRpOHpBTYo1mOe-212" value="" style="shape=partialRectangle;connectable=0;fillColor=none;top=0;left=0;bottom=0;right=0;editable=1;overflow=hidden;" parent="QZeqmvYRpOHpBTYo1mOe-211" vertex="1">
          <mxGeometry width="30" height="30" as="geometry">
            <mxRectangle width="30" height="30" as="alternateBounds" />
          </mxGeometry>
        </mxCell>
        <mxCell id="QZeqmvYRpOHpBTYo1mOe-213" value="excursion_agency_name char(100) NOT NULL" style="shape=partialRectangle;connectable=0;fillColor=none;top=0;left=0;bottom=0;right=0;align=left;spacingLeft=6;overflow=hidden;" parent="QZeqmvYRpOHpBTYo1mOe-211" vertex="1">
          <mxGeometry x="30" width="262" height="30" as="geometry">
            <mxRectangle width="262" height="30" as="alternateBounds" />
          </mxGeometry>
        </mxCell>
        <mxCell id="W1w_GPU8LvK_WI4qFMCy-226" value="" style="shape=partialRectangle;collapsible=0;dropTarget=0;pointerEvents=0;fillColor=none;points=[[0,0.5],[1,0.5]];portConstraint=eastwest;top=0;left=0;right=0;bottom=0;" parent="W1w_GPU8LvK_WI4qFMCy-219" vertex="1">
          <mxGeometry y="90" width="292" height="30" as="geometry" />
        </mxCell>
        <mxCell id="W1w_GPU8LvK_WI4qFMCy-227" value="" style="shape=partialRectangle;overflow=hidden;connectable=0;fillColor=none;top=0;left=0;bottom=0;right=0;" parent="W1w_GPU8LvK_WI4qFMCy-226" vertex="1">
          <mxGeometry width="30" height="30" as="geometry">
            <mxRectangle width="30" height="30" as="alternateBounds" />
          </mxGeometry>
        </mxCell>
        <mxCell id="W1w_GPU8LvK_WI4qFMCy-228" value="excursion_ name char(240) NOT NULL" style="shape=partialRectangle;overflow=hidden;connectable=0;fillColor=none;top=0;left=0;bottom=0;right=0;align=left;spacingLeft=6;" parent="W1w_GPU8LvK_WI4qFMCy-226" vertex="1">
          <mxGeometry x="30" width="262" height="30" as="geometry">
            <mxRectangle width="262" height="30" as="alternateBounds" />
          </mxGeometry>
        </mxCell>
        <mxCell id="QZeqmvYRpOHpBTYo1mOe-58" value="" style="shape=tableRow;horizontal=0;startSize=0;swimlaneHead=0;swimlaneBody=0;fillColor=none;collapsible=0;dropTarget=0;points=[[0,0.5],[1,0.5]];portConstraint=eastwest;top=0;left=0;right=0;bottom=0;" parent="W1w_GPU8LvK_WI4qFMCy-219" vertex="1">
          <mxGeometry y="120" width="292" height="30" as="geometry" />
        </mxCell>
        <mxCell id="QZeqmvYRpOHpBTYo1mOe-59" value="" style="shape=partialRectangle;connectable=0;fillColor=none;top=0;left=0;bottom=0;right=0;editable=1;overflow=hidden;" parent="QZeqmvYRpOHpBTYo1mOe-58" vertex="1">
          <mxGeometry width="30" height="30" as="geometry">
            <mxRectangle width="30" height="30" as="alternateBounds" />
          </mxGeometry>
        </mxCell>
        <mxCell id="QZeqmvYRpOHpBTYo1mOe-60" value="excursion_description varchar " style="shape=partialRectangle;connectable=0;fillColor=none;top=0;left=0;bottom=0;right=0;align=left;spacingLeft=6;overflow=hidden;" parent="QZeqmvYRpOHpBTYo1mOe-58" vertex="1">
          <mxGeometry x="30" width="262" height="30" as="geometry">
            <mxRectangle width="262" height="30" as="alternateBounds" />
          </mxGeometry>
        </mxCell>
        <mxCell id="QZeqmvYRpOHpBTYo1mOe-61" value="" style="shape=tableRow;horizontal=0;startSize=0;swimlaneHead=0;swimlaneBody=0;fillColor=none;collapsible=0;dropTarget=0;points=[[0,0.5],[1,0.5]];portConstraint=eastwest;top=0;left=0;right=0;bottom=0;" parent="W1w_GPU8LvK_WI4qFMCy-219" vertex="1">
          <mxGeometry y="150" width="292" height="30" as="geometry" />
        </mxCell>
        <mxCell id="QZeqmvYRpOHpBTYo1mOe-62" value="" style="shape=partialRectangle;connectable=0;fillColor=none;top=0;left=0;bottom=0;right=0;editable=1;overflow=hidden;" parent="QZeqmvYRpOHpBTYo1mOe-61" vertex="1">
          <mxGeometry width="30" height="30" as="geometry">
            <mxRectangle width="30" height="30" as="alternateBounds" />
          </mxGeometry>
        </mxCell>
        <mxCell id="QZeqmvYRpOHpBTYo1mOe-63" value="excursion_country char(50) NOT NULL" style="shape=partialRectangle;connectable=0;fillColor=none;top=0;left=0;bottom=0;right=0;align=left;spacingLeft=6;overflow=hidden;" parent="QZeqmvYRpOHpBTYo1mOe-61" vertex="1">
          <mxGeometry x="30" width="262" height="30" as="geometry">
            <mxRectangle width="262" height="30" as="alternateBounds" />
          </mxGeometry>
        </mxCell>
        <mxCell id="QZeqmvYRpOHpBTYo1mOe-64" value="" style="shape=tableRow;horizontal=0;startSize=0;swimlaneHead=0;swimlaneBody=0;fillColor=none;collapsible=0;dropTarget=0;points=[[0,0.5],[1,0.5]];portConstraint=eastwest;top=0;left=0;right=0;bottom=0;" parent="W1w_GPU8LvK_WI4qFMCy-219" vertex="1">
          <mxGeometry y="180" width="292" height="30" as="geometry" />
        </mxCell>
        <mxCell id="QZeqmvYRpOHpBTYo1mOe-65" value="" style="shape=partialRectangle;connectable=0;fillColor=none;top=0;left=0;bottom=0;right=0;editable=1;overflow=hidden;" parent="QZeqmvYRpOHpBTYo1mOe-64" vertex="1">
          <mxGeometry width="30" height="30" as="geometry">
            <mxRectangle width="30" height="30" as="alternateBounds" />
          </mxGeometry>
        </mxCell>
        <mxCell id="QZeqmvYRpOHpBTYo1mOe-66" value="excurcion_city char(50) NOT NULL" style="shape=partialRectangle;connectable=0;fillColor=none;top=0;left=0;bottom=0;right=0;align=left;spacingLeft=6;overflow=hidden;" parent="QZeqmvYRpOHpBTYo1mOe-64" vertex="1">
          <mxGeometry x="30" width="262" height="30" as="geometry">
            <mxRectangle width="262" height="30" as="alternateBounds" />
          </mxGeometry>
        </mxCell>
        <mxCell id="QZeqmvYRpOHpBTYo1mOe-67" value="" style="shape=tableRow;horizontal=0;startSize=0;swimlaneHead=0;swimlaneBody=0;fillColor=none;collapsible=0;dropTarget=0;points=[[0,0.5],[1,0.5]];portConstraint=eastwest;top=0;left=0;right=0;bottom=0;" parent="W1w_GPU8LvK_WI4qFMCy-219" vertex="1">
          <mxGeometry y="210" width="292" height="33" as="geometry" />
        </mxCell>
        <mxCell id="QZeqmvYRpOHpBTYo1mOe-68" value="" style="shape=partialRectangle;connectable=0;fillColor=none;top=0;left=0;bottom=0;right=0;editable=1;overflow=hidden;" parent="QZeqmvYRpOHpBTYo1mOe-67" vertex="1">
          <mxGeometry width="30" height="33" as="geometry">
            <mxRectangle width="30" height="33" as="alternateBounds" />
          </mxGeometry>
        </mxCell>
        <mxCell id="QZeqmvYRpOHpBTYo1mOe-69" value="excursion_start datetime NOT NULL" style="shape=partialRectangle;connectable=0;fillColor=none;top=0;left=0;bottom=0;right=0;align=left;spacingLeft=6;overflow=hidden;" parent="QZeqmvYRpOHpBTYo1mOe-67" vertex="1">
          <mxGeometry x="30" width="262" height="33" as="geometry">
            <mxRectangle width="262" height="33" as="alternateBounds" />
          </mxGeometry>
        </mxCell>
        <mxCell id="QZeqmvYRpOHpBTYo1mOe-70" value="" style="shape=tableRow;horizontal=0;startSize=0;swimlaneHead=0;swimlaneBody=0;fillColor=none;collapsible=0;dropTarget=0;points=[[0,0.5],[1,0.5]];portConstraint=eastwest;top=0;left=0;right=0;bottom=0;" parent="W1w_GPU8LvK_WI4qFMCy-219" vertex="1">
          <mxGeometry y="243" width="292" height="30" as="geometry" />
        </mxCell>
        <mxCell id="QZeqmvYRpOHpBTYo1mOe-71" value="" style="shape=partialRectangle;connectable=0;fillColor=none;top=0;left=0;bottom=0;right=0;editable=1;overflow=hidden;" parent="QZeqmvYRpOHpBTYo1mOe-70" vertex="1">
          <mxGeometry width="30" height="30" as="geometry">
            <mxRectangle width="30" height="30" as="alternateBounds" />
          </mxGeometry>
        </mxCell>
        <mxCell id="QZeqmvYRpOHpBTYo1mOe-72" value="excursion_end datetime NOT NULL" style="shape=partialRectangle;connectable=0;fillColor=none;top=0;left=0;bottom=0;right=0;align=left;spacingLeft=6;overflow=hidden;" parent="QZeqmvYRpOHpBTYo1mOe-70" vertex="1">
          <mxGeometry x="30" width="262" height="30" as="geometry">
            <mxRectangle width="262" height="30" as="alternateBounds" />
          </mxGeometry>
        </mxCell>
        <mxCell id="QZeqmvYRpOHpBTYo1mOe-73" value="" style="shape=tableRow;horizontal=0;startSize=0;swimlaneHead=0;swimlaneBody=0;fillColor=none;collapsible=0;dropTarget=0;points=[[0,0.5],[1,0.5]];portConstraint=eastwest;top=0;left=0;right=0;bottom=0;" parent="W1w_GPU8LvK_WI4qFMCy-219" vertex="1">
          <mxGeometry y="273" width="292" height="30" as="geometry" />
        </mxCell>
        <mxCell id="QZeqmvYRpOHpBTYo1mOe-74" value="" style="shape=partialRectangle;connectable=0;fillColor=none;top=0;left=0;bottom=0;right=0;editable=1;overflow=hidden;" parent="QZeqmvYRpOHpBTYo1mOe-73" vertex="1">
          <mxGeometry width="30" height="30" as="geometry">
            <mxRectangle width="30" height="30" as="alternateBounds" />
          </mxGeometry>
        </mxCell>
        <mxCell id="QZeqmvYRpOHpBTYo1mOe-75" value="excursion_cost float NOT NULL" style="shape=partialRectangle;connectable=0;fillColor=none;top=0;left=0;bottom=0;right=0;align=left;spacingLeft=6;overflow=hidden;" parent="QZeqmvYRpOHpBTYo1mOe-73" vertex="1">
          <mxGeometry x="30" width="262" height="30" as="geometry">
            <mxRectangle width="262" height="30" as="alternateBounds" />
          </mxGeometry>
        </mxCell>
        <mxCell id="9sxgn1_CPgtoZr-VSsLu-28" value="" style="shape=tableRow;horizontal=0;startSize=0;swimlaneHead=0;swimlaneBody=0;fillColor=none;collapsible=0;dropTarget=0;points=[[0,0.5],[1,0.5]];portConstraint=eastwest;top=0;left=0;right=0;bottom=0;" parent="W1w_GPU8LvK_WI4qFMCy-219" vertex="1">
          <mxGeometry y="303" width="292" height="30" as="geometry" />
        </mxCell>
        <mxCell id="9sxgn1_CPgtoZr-VSsLu-29" value="" style="shape=partialRectangle;connectable=0;fillColor=none;top=0;left=0;bottom=0;right=0;editable=1;overflow=hidden;" parent="9sxgn1_CPgtoZr-VSsLu-28" vertex="1">
          <mxGeometry width="30" height="30" as="geometry">
            <mxRectangle width="30" height="30" as="alternateBounds" />
          </mxGeometry>
        </mxCell>
        <mxCell id="9sxgn1_CPgtoZr-VSsLu-30" value="expenses float NOT NULL" style="shape=partialRectangle;connectable=0;fillColor=none;top=0;left=0;bottom=0;right=0;align=left;spacingLeft=6;overflow=hidden;" parent="9sxgn1_CPgtoZr-VSsLu-28" vertex="1">
          <mxGeometry x="30" width="262" height="30" as="geometry">
            <mxRectangle width="262" height="30" as="alternateBounds" />
          </mxGeometry>
        </mxCell>
        <mxCell id="W1w_GPU8LvK_WI4qFMCy-243" value="" style="edgeStyle=orthogonalEdgeStyle;endArrow=ERzeroToMany;startArrow=ERone;endFill=1;startFill=0;exitX=-0.009;exitY=-0.067;exitDx=0;exitDy=0;entryX=0;entryY=0.5;entryDx=0;entryDy=0;strokeWidth=2;strokeColor=#FFD966;exitPerimeter=0;" parent="1" source="IjkAew8CNjYwR2uWhOrY-29" target="ZO-J2TBk0OJasq5sorBM-4" edge="1">
          <mxGeometry width="100" height="100" relative="1" as="geometry">
            <mxPoint x="-79" y="236" as="sourcePoint" />
            <mxPoint x="-381.5" y="434" as="targetPoint" />
            <Array as="points">
              <mxPoint x="-110" y="98" />
              <mxPoint x="-110" y="290" />
              <mxPoint x="-410" y="290" />
              <mxPoint x="-410" y="394" />
            </Array>
          </mxGeometry>
        </mxCell>
        <mxCell id="W1w_GPU8LvK_WI4qFMCy-244" value="" style="endArrow=ERzeroToMany;startArrow=ERone;endFill=1;startFill=0;exitX=0;exitY=0.5;exitDx=0;exitDy=0;strokeWidth=2;entryX=1;entryY=0.5;entryDx=0;entryDy=0;strokeColor=#FFD966;edgeStyle=orthogonalEdgeStyle;" parent="1" source="W1w_GPU8LvK_WI4qFMCy-220" target="W1w_GPU8LvK_WI4qFMCy-200" edge="1">
          <mxGeometry width="100" height="100" relative="1" as="geometry">
            <mxPoint x="-70" y="125" as="sourcePoint" />
            <mxPoint x="-100" y="390" as="targetPoint" />
          </mxGeometry>
        </mxCell>
        <mxCell id="W1w_GPU8LvK_WI4qFMCy-246" value="Cargo_card" style="shape=table;startSize=30;container=1;collapsible=1;childLayout=tableLayout;fixedRows=1;rowLines=0;fontStyle=1;align=center;resizeLast=1;" parent="1" vertex="1">
          <mxGeometry x="-80" y="800" width="280" height="121" as="geometry" />
        </mxCell>
        <mxCell id="W1w_GPU8LvK_WI4qFMCy-250" value="" style="shape=partialRectangle;collapsible=0;dropTarget=0;pointerEvents=0;fillColor=none;points=[[0,0.5],[1,0.5]];portConstraint=eastwest;top=0;left=0;right=0;bottom=0;" parent="W1w_GPU8LvK_WI4qFMCy-246" vertex="1">
          <mxGeometry y="30" width="280" height="29" as="geometry" />
        </mxCell>
        <mxCell id="W1w_GPU8LvK_WI4qFMCy-251" value="PK, FK1" style="shape=partialRectangle;overflow=hidden;connectable=0;fillColor=none;top=0;left=0;bottom=0;right=0;" parent="W1w_GPU8LvK_WI4qFMCy-250" vertex="1">
          <mxGeometry width="50" height="29" as="geometry">
            <mxRectangle width="50" height="29" as="alternateBounds" />
          </mxGeometry>
        </mxCell>
        <mxCell id="W1w_GPU8LvK_WI4qFMCy-252" value="cargo_id int NOT NULL" style="shape=partialRectangle;overflow=hidden;connectable=0;fillColor=none;top=0;left=0;bottom=0;right=0;align=left;spacingLeft=6;" parent="W1w_GPU8LvK_WI4qFMCy-250" vertex="1">
          <mxGeometry x="50" width="230" height="29" as="geometry">
            <mxRectangle width="230" height="29" as="alternateBounds" />
          </mxGeometry>
        </mxCell>
        <mxCell id="ZO-J2TBk0OJasq5sorBM-8" value="" style="shape=tableRow;horizontal=0;startSize=0;swimlaneHead=0;swimlaneBody=0;fillColor=none;collapsible=0;dropTarget=0;points=[[0,0.5],[1,0.5]];portConstraint=eastwest;top=0;left=0;right=0;bottom=0;" parent="W1w_GPU8LvK_WI4qFMCy-246" vertex="1">
          <mxGeometry y="59" width="280" height="30" as="geometry" />
        </mxCell>
        <mxCell id="ZO-J2TBk0OJasq5sorBM-9" value="PK, FK2" style="shape=partialRectangle;connectable=0;fillColor=none;top=0;left=0;bottom=0;right=0;editable=1;overflow=hidden;" parent="ZO-J2TBk0OJasq5sorBM-8" vertex="1">
          <mxGeometry width="50" height="30" as="geometry">
            <mxRectangle width="50" height="30" as="alternateBounds" />
          </mxGeometry>
        </mxCell>
        <mxCell id="ZO-J2TBk0OJasq5sorBM-10" value="tour_card_id int NOT NULL" style="shape=partialRectangle;connectable=0;fillColor=none;top=0;left=0;bottom=0;right=0;align=left;spacingLeft=6;overflow=hidden;" parent="ZO-J2TBk0OJasq5sorBM-8" vertex="1">
          <mxGeometry x="50" width="230" height="30" as="geometry">
            <mxRectangle width="230" height="30" as="alternateBounds" />
          </mxGeometry>
        </mxCell>
        <mxCell id="QZeqmvYRpOHpBTYo1mOe-194" value="" style="shape=tableRow;horizontal=0;startSize=0;swimlaneHead=0;swimlaneBody=0;fillColor=none;collapsible=0;dropTarget=0;points=[[0,0.5],[1,0.5]];portConstraint=eastwest;top=0;left=0;right=0;bottom=0;" parent="W1w_GPU8LvK_WI4qFMCy-246" vertex="1">
          <mxGeometry y="89" width="280" height="30" as="geometry" />
        </mxCell>
        <mxCell id="QZeqmvYRpOHpBTYo1mOe-195" value="" style="shape=partialRectangle;connectable=0;fillColor=none;top=0;left=0;bottom=0;right=0;editable=1;overflow=hidden;" parent="QZeqmvYRpOHpBTYo1mOe-194" vertex="1">
          <mxGeometry width="50" height="30" as="geometry">
            <mxRectangle width="50" height="30" as="alternateBounds" />
          </mxGeometry>
        </mxCell>
        <mxCell id="QZeqmvYRpOHpBTYo1mOe-196" value="сustoms_documents boolean NOT NULL" style="shape=partialRectangle;connectable=0;fillColor=none;top=0;left=0;bottom=0;right=0;align=left;spacingLeft=6;overflow=hidden;" parent="QZeqmvYRpOHpBTYo1mOe-194" vertex="1">
          <mxGeometry x="50" width="230" height="30" as="geometry">
            <mxRectangle width="230" height="30" as="alternateBounds" />
          </mxGeometry>
        </mxCell>
        <mxCell id="W1w_GPU8LvK_WI4qFMCy-256" value="Cargo" style="shape=table;startSize=30;container=1;collapsible=1;childLayout=tableLayout;fixedRows=1;rowLines=0;fontStyle=1;align=center;resizeLast=1;" parent="1" vertex="1">
          <mxGeometry x="-415.5" y="463" width="279.5" height="509" as="geometry" />
        </mxCell>
        <mxCell id="W1w_GPU8LvK_WI4qFMCy-257" value="" style="shape=partialRectangle;collapsible=0;dropTarget=0;pointerEvents=0;fillColor=none;points=[[0,0.5],[1,0.5]];portConstraint=eastwest;top=0;left=0;right=0;bottom=1;" parent="W1w_GPU8LvK_WI4qFMCy-256" vertex="1">
          <mxGeometry y="30" width="279.5" height="30" as="geometry" />
        </mxCell>
        <mxCell id="W1w_GPU8LvK_WI4qFMCy-258" value="PK" style="shape=partialRectangle;overflow=hidden;connectable=0;fillColor=none;top=0;left=0;bottom=0;right=0;fontStyle=1;" parent="W1w_GPU8LvK_WI4qFMCy-257" vertex="1">
          <mxGeometry width="30" height="30" as="geometry">
            <mxRectangle width="30" height="30" as="alternateBounds" />
          </mxGeometry>
        </mxCell>
        <mxCell id="W1w_GPU8LvK_WI4qFMCy-259" value="cargo_id int NOT NULL " style="shape=partialRectangle;overflow=hidden;connectable=0;fillColor=none;top=0;left=0;bottom=0;right=0;align=left;spacingLeft=6;fontStyle=1;" parent="W1w_GPU8LvK_WI4qFMCy-257" vertex="1">
          <mxGeometry x="30" width="249.5" height="30" as="geometry">
            <mxRectangle width="249.5" height="30" as="alternateBounds" />
          </mxGeometry>
        </mxCell>
        <mxCell id="W1w_GPU8LvK_WI4qFMCy-263" value="" style="shape=partialRectangle;collapsible=0;dropTarget=0;pointerEvents=0;fillColor=none;points=[[0,0.5],[1,0.5]];portConstraint=eastwest;top=0;left=0;right=0;bottom=0;" parent="W1w_GPU8LvK_WI4qFMCy-256" vertex="1">
          <mxGeometry y="60" width="279.5" height="30" as="geometry" />
        </mxCell>
        <mxCell id="W1w_GPU8LvK_WI4qFMCy-264" value="" style="shape=partialRectangle;overflow=hidden;connectable=0;fillColor=none;top=0;left=0;bottom=0;right=0;" parent="W1w_GPU8LvK_WI4qFMCy-263" vertex="1">
          <mxGeometry width="30" height="30" as="geometry">
            <mxRectangle width="30" height="30" as="alternateBounds" />
          </mxGeometry>
        </mxCell>
        <mxCell id="W1w_GPU8LvK_WI4qFMCy-265" value="cargo_ name char(240) NOT NULL" style="shape=partialRectangle;overflow=hidden;connectable=0;fillColor=none;top=0;left=0;bottom=0;right=0;align=left;spacingLeft=6;" parent="W1w_GPU8LvK_WI4qFMCy-263" vertex="1">
          <mxGeometry x="30" width="249.5" height="30" as="geometry">
            <mxRectangle width="249.5" height="30" as="alternateBounds" />
          </mxGeometry>
        </mxCell>
        <mxCell id="QZeqmvYRpOHpBTYo1mOe-172" value="" style="shape=tableRow;horizontal=0;startSize=0;swimlaneHead=0;swimlaneBody=0;fillColor=none;collapsible=0;dropTarget=0;points=[[0,0.5],[1,0.5]];portConstraint=eastwest;top=0;left=0;right=0;bottom=0;" parent="W1w_GPU8LvK_WI4qFMCy-256" vertex="1">
          <mxGeometry y="90" width="279.5" height="30" as="geometry" />
        </mxCell>
        <mxCell id="QZeqmvYRpOHpBTYo1mOe-173" value="" style="shape=partialRectangle;connectable=0;fillColor=none;top=0;left=0;bottom=0;right=0;editable=1;overflow=hidden;" parent="QZeqmvYRpOHpBTYo1mOe-172" vertex="1">
          <mxGeometry width="30" height="30" as="geometry">
            <mxRectangle width="30" height="30" as="alternateBounds" />
          </mxGeometry>
        </mxCell>
        <mxCell id="QZeqmvYRpOHpBTYo1mOe-174" value="cargo_description varchar " style="shape=partialRectangle;connectable=0;fillColor=none;top=0;left=0;bottom=0;right=0;align=left;spacingLeft=6;overflow=hidden;" parent="QZeqmvYRpOHpBTYo1mOe-172" vertex="1">
          <mxGeometry x="30" width="249.5" height="30" as="geometry">
            <mxRectangle width="249.5" height="30" as="alternateBounds" />
          </mxGeometry>
        </mxCell>
        <mxCell id="9sxgn1_CPgtoZr-VSsLu-7" value="" style="shape=tableRow;horizontal=0;startSize=0;swimlaneHead=0;swimlaneBody=0;fillColor=none;collapsible=0;dropTarget=0;points=[[0,0.5],[1,0.5]];portConstraint=eastwest;top=0;left=0;right=0;bottom=0;" parent="W1w_GPU8LvK_WI4qFMCy-256" vertex="1">
          <mxGeometry y="120" width="279.5" height="30" as="geometry" />
        </mxCell>
        <mxCell id="9sxgn1_CPgtoZr-VSsLu-8" value="" style="shape=partialRectangle;connectable=0;fillColor=none;top=0;left=0;bottom=0;right=0;editable=1;overflow=hidden;" parent="9sxgn1_CPgtoZr-VSsLu-7" vertex="1">
          <mxGeometry width="30" height="30" as="geometry">
            <mxRectangle width="30" height="30" as="alternateBounds" />
          </mxGeometry>
        </mxCell>
        <mxCell id="9sxgn1_CPgtoZr-VSsLu-9" value="receipt_date date NOT NULL " style="shape=partialRectangle;connectable=0;fillColor=none;top=0;left=0;bottom=0;right=0;align=left;spacingLeft=6;overflow=hidden;" parent="9sxgn1_CPgtoZr-VSsLu-7" vertex="1">
          <mxGeometry x="30" width="249.5" height="30" as="geometry">
            <mxRectangle width="249.5" height="30" as="alternateBounds" />
          </mxGeometry>
        </mxCell>
        <mxCell id="9sxgn1_CPgtoZr-VSsLu-10" value="" style="shape=tableRow;horizontal=0;startSize=0;swimlaneHead=0;swimlaneBody=0;fillColor=none;collapsible=0;dropTarget=0;points=[[0,0.5],[1,0.5]];portConstraint=eastwest;top=0;left=0;right=0;bottom=0;" parent="W1w_GPU8LvK_WI4qFMCy-256" vertex="1">
          <mxGeometry y="150" width="279.5" height="30" as="geometry" />
        </mxCell>
        <mxCell id="9sxgn1_CPgtoZr-VSsLu-11" value="" style="shape=partialRectangle;connectable=0;fillColor=none;top=0;left=0;bottom=0;right=0;editable=1;overflow=hidden;" parent="9sxgn1_CPgtoZr-VSsLu-10" vertex="1">
          <mxGeometry width="30" height="30" as="geometry">
            <mxRectangle width="30" height="30" as="alternateBounds" />
          </mxGeometry>
        </mxCell>
        <mxCell id="9sxgn1_CPgtoZr-VSsLu-12" value="departure_date date NOT NULl" style="shape=partialRectangle;connectable=0;fillColor=none;top=0;left=0;bottom=0;right=0;align=left;spacingLeft=6;overflow=hidden;" parent="9sxgn1_CPgtoZr-VSsLu-10" vertex="1">
          <mxGeometry x="30" width="249.5" height="30" as="geometry">
            <mxRectangle width="249.5" height="30" as="alternateBounds" />
          </mxGeometry>
        </mxCell>
        <mxCell id="QZeqmvYRpOHpBTYo1mOe-175" value="" style="shape=tableRow;horizontal=0;startSize=0;swimlaneHead=0;swimlaneBody=0;fillColor=none;collapsible=0;dropTarget=0;points=[[0,0.5],[1,0.5]];portConstraint=eastwest;top=0;left=0;right=0;bottom=0;" parent="W1w_GPU8LvK_WI4qFMCy-256" vertex="1">
          <mxGeometry y="180" width="279.5" height="30" as="geometry" />
        </mxCell>
        <mxCell id="QZeqmvYRpOHpBTYo1mOe-176" value="" style="shape=partialRectangle;connectable=0;fillColor=none;top=0;left=0;bottom=0;right=0;editable=1;overflow=hidden;" parent="QZeqmvYRpOHpBTYo1mOe-175" vertex="1">
          <mxGeometry width="30" height="30" as="geometry">
            <mxRectangle width="30" height="30" as="alternateBounds" />
          </mxGeometry>
        </mxCell>
        <mxCell id="QZeqmvYRpOHpBTYo1mOe-177" value="cargo_weight float NOT NULL" style="shape=partialRectangle;connectable=0;fillColor=none;top=0;left=0;bottom=0;right=0;align=left;spacingLeft=6;overflow=hidden;" parent="QZeqmvYRpOHpBTYo1mOe-175" vertex="1">
          <mxGeometry x="30" width="249.5" height="30" as="geometry">
            <mxRectangle width="249.5" height="30" as="alternateBounds" />
          </mxGeometry>
        </mxCell>
        <mxCell id="QZeqmvYRpOHpBTYo1mOe-178" value="" style="shape=tableRow;horizontal=0;startSize=0;swimlaneHead=0;swimlaneBody=0;fillColor=none;collapsible=0;dropTarget=0;points=[[0,0.5],[1,0.5]];portConstraint=eastwest;top=0;left=0;right=0;bottom=0;" parent="W1w_GPU8LvK_WI4qFMCy-256" vertex="1">
          <mxGeometry y="210" width="279.5" height="30" as="geometry" />
        </mxCell>
        <mxCell id="QZeqmvYRpOHpBTYo1mOe-179" value="" style="shape=partialRectangle;connectable=0;fillColor=none;top=0;left=0;bottom=0;right=0;editable=1;overflow=hidden;" parent="QZeqmvYRpOHpBTYo1mOe-178" vertex="1">
          <mxGeometry width="30" height="30" as="geometry">
            <mxRectangle width="30" height="30" as="alternateBounds" />
          </mxGeometry>
        </mxCell>
        <mxCell id="QZeqmvYRpOHpBTYo1mOe-180" value="cargo_width float NOT NULL" style="shape=partialRectangle;connectable=0;fillColor=none;top=0;left=0;bottom=0;right=0;align=left;spacingLeft=6;overflow=hidden;" parent="QZeqmvYRpOHpBTYo1mOe-178" vertex="1">
          <mxGeometry x="30" width="249.5" height="30" as="geometry">
            <mxRectangle width="249.5" height="30" as="alternateBounds" />
          </mxGeometry>
        </mxCell>
        <mxCell id="QZeqmvYRpOHpBTYo1mOe-181" value="" style="shape=tableRow;horizontal=0;startSize=0;swimlaneHead=0;swimlaneBody=0;fillColor=none;collapsible=0;dropTarget=0;points=[[0,0.5],[1,0.5]];portConstraint=eastwest;top=0;left=0;right=0;bottom=0;" parent="W1w_GPU8LvK_WI4qFMCy-256" vertex="1">
          <mxGeometry y="240" width="279.5" height="30" as="geometry" />
        </mxCell>
        <mxCell id="QZeqmvYRpOHpBTYo1mOe-182" value="" style="shape=partialRectangle;connectable=0;fillColor=none;top=0;left=0;bottom=0;right=0;editable=1;overflow=hidden;" parent="QZeqmvYRpOHpBTYo1mOe-181" vertex="1">
          <mxGeometry width="30" height="30" as="geometry">
            <mxRectangle width="30" height="30" as="alternateBounds" />
          </mxGeometry>
        </mxCell>
        <mxCell id="QZeqmvYRpOHpBTYo1mOe-183" value="cargo_height float NOT NULL" style="shape=partialRectangle;connectable=0;fillColor=none;top=0;left=0;bottom=0;right=0;align=left;spacingLeft=6;overflow=hidden;" parent="QZeqmvYRpOHpBTYo1mOe-181" vertex="1">
          <mxGeometry x="30" width="249.5" height="30" as="geometry">
            <mxRectangle width="249.5" height="30" as="alternateBounds" />
          </mxGeometry>
        </mxCell>
        <mxCell id="QZeqmvYRpOHpBTYo1mOe-184" value="" style="shape=tableRow;horizontal=0;startSize=0;swimlaneHead=0;swimlaneBody=0;fillColor=none;collapsible=0;dropTarget=0;points=[[0,0.5],[1,0.5]];portConstraint=eastwest;top=0;left=0;right=0;bottom=0;" parent="W1w_GPU8LvK_WI4qFMCy-256" vertex="1">
          <mxGeometry y="270" width="279.5" height="30" as="geometry" />
        </mxCell>
        <mxCell id="QZeqmvYRpOHpBTYo1mOe-185" value="" style="shape=partialRectangle;connectable=0;fillColor=none;top=0;left=0;bottom=0;right=0;editable=1;overflow=hidden;" parent="QZeqmvYRpOHpBTYo1mOe-184" vertex="1">
          <mxGeometry width="30" height="30" as="geometry">
            <mxRectangle width="30" height="30" as="alternateBounds" />
          </mxGeometry>
        </mxCell>
        <mxCell id="QZeqmvYRpOHpBTYo1mOe-186" value="cargo_depth float NOT NULL" style="shape=partialRectangle;connectable=0;fillColor=none;top=0;left=0;bottom=0;right=0;align=left;spacingLeft=6;overflow=hidden;" parent="QZeqmvYRpOHpBTYo1mOe-184" vertex="1">
          <mxGeometry x="30" width="249.5" height="30" as="geometry">
            <mxRectangle width="249.5" height="30" as="alternateBounds" />
          </mxGeometry>
        </mxCell>
        <mxCell id="5BBY3FltW9Oz70ZlMqhf-2" value="" style="shape=tableRow;horizontal=0;startSize=0;swimlaneHead=0;swimlaneBody=0;fillColor=none;collapsible=0;dropTarget=0;points=[[0,0.5],[1,0.5]];portConstraint=eastwest;top=0;left=0;right=0;bottom=0;" vertex="1" parent="W1w_GPU8LvK_WI4qFMCy-256">
          <mxGeometry y="300" width="279.5" height="30" as="geometry" />
        </mxCell>
        <mxCell id="5BBY3FltW9Oz70ZlMqhf-3" value="" style="shape=partialRectangle;connectable=0;fillColor=none;top=0;left=0;bottom=0;right=0;editable=1;overflow=hidden;" vertex="1" parent="5BBY3FltW9Oz70ZlMqhf-2">
          <mxGeometry width="30" height="30" as="geometry">
            <mxRectangle width="30" height="30" as="alternateBounds" />
          </mxGeometry>
        </mxCell>
        <mxCell id="5BBY3FltW9Oz70ZlMqhf-4" value="occupied_space int NOT NULL" style="shape=partialRectangle;connectable=0;fillColor=none;top=0;left=0;bottom=0;right=0;align=left;spacingLeft=6;overflow=hidden;" vertex="1" parent="5BBY3FltW9Oz70ZlMqhf-2">
          <mxGeometry x="30" width="249.5" height="30" as="geometry">
            <mxRectangle width="249.5" height="30" as="alternateBounds" />
          </mxGeometry>
        </mxCell>
        <mxCell id="QZeqmvYRpOHpBTYo1mOe-187" value="" style="shape=tableRow;horizontal=0;startSize=0;swimlaneHead=0;swimlaneBody=0;fillColor=none;collapsible=0;dropTarget=0;points=[[0,0.5],[1,0.5]];portConstraint=eastwest;top=0;left=0;right=0;bottom=0;" parent="W1w_GPU8LvK_WI4qFMCy-256" vertex="1">
          <mxGeometry y="330" width="279.5" height="30" as="geometry" />
        </mxCell>
        <mxCell id="QZeqmvYRpOHpBTYo1mOe-188" value="" style="shape=partialRectangle;connectable=0;fillColor=none;top=0;left=0;bottom=0;right=0;editable=1;overflow=hidden;" parent="QZeqmvYRpOHpBTYo1mOe-187" vertex="1">
          <mxGeometry width="30" height="30" as="geometry">
            <mxRectangle width="30" height="30" as="alternateBounds" />
          </mxGeometry>
        </mxCell>
        <mxCell id="QZeqmvYRpOHpBTYo1mOe-189" value="cargo_package_cost float NOT NULL" style="shape=partialRectangle;connectable=0;fillColor=none;top=0;left=0;bottom=0;right=0;align=left;spacingLeft=6;overflow=hidden;" parent="QZeqmvYRpOHpBTYo1mOe-187" vertex="1">
          <mxGeometry x="30" width="249.5" height="30" as="geometry">
            <mxRectangle width="249.5" height="30" as="alternateBounds" />
          </mxGeometry>
        </mxCell>
        <mxCell id="QZeqmvYRpOHpBTYo1mOe-201" value="" style="shape=tableRow;horizontal=0;startSize=0;swimlaneHead=0;swimlaneBody=0;fillColor=none;collapsible=0;dropTarget=0;points=[[0,0.5],[1,0.5]];portConstraint=eastwest;top=0;left=0;right=0;bottom=0;" parent="W1w_GPU8LvK_WI4qFMCy-256" vertex="1">
          <mxGeometry y="360" width="279.5" height="30" as="geometry" />
        </mxCell>
        <mxCell id="QZeqmvYRpOHpBTYo1mOe-202" value="" style="shape=partialRectangle;connectable=0;fillColor=none;top=0;left=0;bottom=0;right=0;editable=1;overflow=hidden;" parent="QZeqmvYRpOHpBTYo1mOe-201" vertex="1">
          <mxGeometry width="30" height="30" as="geometry">
            <mxRectangle width="30" height="30" as="alternateBounds" />
          </mxGeometry>
        </mxCell>
        <mxCell id="QZeqmvYRpOHpBTYo1mOe-203" value="cargo_insurance_cost float NOT NULL" style="shape=partialRectangle;connectable=0;fillColor=none;top=0;left=0;bottom=0;right=0;align=left;spacingLeft=6;overflow=hidden;" parent="QZeqmvYRpOHpBTYo1mOe-201" vertex="1">
          <mxGeometry x="30" width="249.5" height="30" as="geometry">
            <mxRectangle width="249.5" height="30" as="alternateBounds" />
          </mxGeometry>
        </mxCell>
        <mxCell id="QZeqmvYRpOHpBTYo1mOe-190" value="" style="shape=tableRow;horizontal=0;startSize=0;swimlaneHead=0;swimlaneBody=0;fillColor=none;collapsible=0;dropTarget=0;points=[[0,0.5],[1,0.5]];portConstraint=eastwest;top=0;left=0;right=0;bottom=0;" parent="W1w_GPU8LvK_WI4qFMCy-256" vertex="1">
          <mxGeometry y="390" width="279.5" height="29" as="geometry" />
        </mxCell>
        <mxCell id="QZeqmvYRpOHpBTYo1mOe-191" value="" style="shape=partialRectangle;connectable=0;fillColor=none;top=0;left=0;bottom=0;right=0;editable=1;overflow=hidden;" parent="QZeqmvYRpOHpBTYo1mOe-190" vertex="1">
          <mxGeometry width="30" height="29" as="geometry">
            <mxRectangle width="30" height="29" as="alternateBounds" />
          </mxGeometry>
        </mxCell>
        <mxCell id="QZeqmvYRpOHpBTYo1mOe-192" value="cargo_transportation_cost float NOT NULL" style="shape=partialRectangle;connectable=0;fillColor=none;top=0;left=0;bottom=0;right=0;align=left;spacingLeft=6;overflow=hidden;" parent="QZeqmvYRpOHpBTYo1mOe-190" vertex="1">
          <mxGeometry x="30" width="249.5" height="29" as="geometry">
            <mxRectangle width="249.5" height="29" as="alternateBounds" />
          </mxGeometry>
        </mxCell>
        <mxCell id="9sxgn1_CPgtoZr-VSsLu-16" value="" style="shape=tableRow;horizontal=0;startSize=0;swimlaneHead=0;swimlaneBody=0;fillColor=none;collapsible=0;dropTarget=0;points=[[0,0.5],[1,0.5]];portConstraint=eastwest;top=0;left=0;right=0;bottom=0;" parent="W1w_GPU8LvK_WI4qFMCy-256" vertex="1">
          <mxGeometry y="419" width="279.5" height="30" as="geometry" />
        </mxCell>
        <mxCell id="9sxgn1_CPgtoZr-VSsLu-17" value="" style="shape=partialRectangle;connectable=0;fillColor=none;top=0;left=0;bottom=0;right=0;editable=1;overflow=hidden;" parent="9sxgn1_CPgtoZr-VSsLu-16" vertex="1">
          <mxGeometry width="30" height="30" as="geometry">
            <mxRectangle width="30" height="30" as="alternateBounds" />
          </mxGeometry>
        </mxCell>
        <mxCell id="9sxgn1_CPgtoZr-VSsLu-18" value="expenses float NOT NULL" style="shape=partialRectangle;connectable=0;fillColor=none;top=0;left=0;bottom=0;right=0;align=left;spacingLeft=6;overflow=hidden;" parent="9sxgn1_CPgtoZr-VSsLu-16" vertex="1">
          <mxGeometry x="30" width="249.5" height="30" as="geometry">
            <mxRectangle width="249.5" height="30" as="alternateBounds" />
          </mxGeometry>
        </mxCell>
        <mxCell id="hzPQHl6qFczZGBz7P1lN-1" value="" style="shape=tableRow;horizontal=0;startSize=0;swimlaneHead=0;swimlaneBody=0;fillColor=none;collapsible=0;dropTarget=0;points=[[0,0.5],[1,0.5]];portConstraint=eastwest;top=0;left=0;right=0;bottom=0;" parent="W1w_GPU8LvK_WI4qFMCy-256" vertex="1">
          <mxGeometry y="449" width="279.5" height="30" as="geometry" />
        </mxCell>
        <mxCell id="hzPQHl6qFczZGBz7P1lN-2" value="" style="shape=partialRectangle;connectable=0;fillColor=none;top=0;left=0;bottom=0;right=0;editable=1;overflow=hidden;" parent="hzPQHl6qFczZGBz7P1lN-1" vertex="1">
          <mxGeometry width="30" height="30" as="geometry">
            <mxRectangle width="30" height="30" as="alternateBounds" />
          </mxGeometry>
        </mxCell>
        <mxCell id="hzPQHl6qFczZGBz7P1lN-3" value="total_cost float NOT NULL" style="shape=partialRectangle;connectable=0;fillColor=none;top=0;left=0;bottom=0;right=0;align=left;spacingLeft=6;overflow=hidden;" parent="hzPQHl6qFczZGBz7P1lN-1" vertex="1">
          <mxGeometry x="30" width="249.5" height="30" as="geometry">
            <mxRectangle width="249.5" height="30" as="alternateBounds" />
          </mxGeometry>
        </mxCell>
        <mxCell id="9sxgn1_CPgtoZr-VSsLu-13" value="" style="shape=tableRow;horizontal=0;startSize=0;swimlaneHead=0;swimlaneBody=0;fillColor=none;collapsible=0;dropTarget=0;points=[[0,0.5],[1,0.5]];portConstraint=eastwest;top=0;left=0;right=0;bottom=0;" parent="W1w_GPU8LvK_WI4qFMCy-256" vertex="1">
          <mxGeometry y="479" width="279.5" height="30" as="geometry" />
        </mxCell>
        <mxCell id="9sxgn1_CPgtoZr-VSsLu-14" value="" style="shape=partialRectangle;connectable=0;fillColor=none;top=0;left=0;bottom=0;right=0;editable=1;overflow=hidden;" parent="9sxgn1_CPgtoZr-VSsLu-13" vertex="1">
          <mxGeometry width="30" height="30" as="geometry">
            <mxRectangle width="30" height="30" as="alternateBounds" />
          </mxGeometry>
        </mxCell>
        <mxCell id="9sxgn1_CPgtoZr-VSsLu-15" value="cargo_type CargoType NOT NULL" style="shape=partialRectangle;connectable=0;fillColor=none;top=0;left=0;bottom=0;right=0;align=left;spacingLeft=6;overflow=hidden;" parent="9sxgn1_CPgtoZr-VSsLu-13" vertex="1">
          <mxGeometry x="30" width="249.5" height="30" as="geometry">
            <mxRectangle width="249.5" height="30" as="alternateBounds" />
          </mxGeometry>
        </mxCell>
        <mxCell id="W1w_GPU8LvK_WI4qFMCy-278" value="" style="edgeStyle=orthogonalEdgeStyle;endArrow=ERzeroToMany;startArrow=ERone;endFill=1;startFill=0;exitX=1.003;exitY=0.767;exitDx=0;exitDy=0;strokeWidth=2;strokeColor=#FF4C2B;entryX=1;entryY=0.5;entryDx=0;entryDy=0;exitPerimeter=0;" parent="1" source="W1w_GPU8LvK_WI4qFMCy-151" target="ZO-J2TBk0OJasq5sorBM-8" edge="1">
          <mxGeometry width="100" height="100" relative="1" as="geometry">
            <mxPoint x="210" y="295" as="sourcePoint" />
            <mxPoint x="190" y="845" as="targetPoint" />
            <Array as="points">
              <mxPoint x="230" y="93" />
              <mxPoint x="230" y="874" />
            </Array>
          </mxGeometry>
        </mxCell>
        <mxCell id="W1w_GPU8LvK_WI4qFMCy-279" value="" style="endArrow=ERzeroToMany;startArrow=ERone;endFill=1;startFill=0;exitX=1;exitY=0.5;exitDx=0;exitDy=0;strokeWidth=2;entryX=0;entryY=0.5;entryDx=0;entryDy=0;strokeColor=#FF4C2B;edgeStyle=orthogonalEdgeStyle;" parent="1" source="W1w_GPU8LvK_WI4qFMCy-257" edge="1">
          <mxGeometry width="100" height="100" relative="1" as="geometry">
            <mxPoint x="-98" y="640" as="sourcePoint" />
            <mxPoint x="-80" y="845" as="targetPoint" />
            <Array as="points">
              <mxPoint x="-110" y="508" />
              <mxPoint x="-110" y="845" />
            </Array>
          </mxGeometry>
        </mxCell>
        <mxCell id="KQf6K9CdoITa3a_320hS-1" value="Flight" style="shape=table;startSize=30;container=1;collapsible=1;childLayout=tableLayout;fixedRows=1;rowLines=0;fontStyle=1;align=center;resizeLast=1;" parent="1" vertex="1">
          <mxGeometry x="282" y="579" width="291" height="537" as="geometry" />
        </mxCell>
        <mxCell id="KQf6K9CdoITa3a_320hS-2" value="" style="shape=partialRectangle;collapsible=0;dropTarget=0;pointerEvents=0;fillColor=none;points=[[0,0.5],[1,0.5]];portConstraint=eastwest;top=0;left=0;right=0;bottom=1;" parent="KQf6K9CdoITa3a_320hS-1" vertex="1">
          <mxGeometry y="30" width="291" height="27" as="geometry" />
        </mxCell>
        <mxCell id="KQf6K9CdoITa3a_320hS-3" value="PK" style="shape=partialRectangle;overflow=hidden;connectable=0;fillColor=none;top=0;left=0;bottom=0;right=0;fontStyle=1;" parent="KQf6K9CdoITa3a_320hS-2" vertex="1">
          <mxGeometry width="30" height="27" as="geometry">
            <mxRectangle width="30" height="27" as="alternateBounds" />
          </mxGeometry>
        </mxCell>
        <mxCell id="KQf6K9CdoITa3a_320hS-4" value="flight_id int NOT NULL " style="shape=partialRectangle;overflow=hidden;connectable=0;fillColor=none;top=0;left=0;bottom=0;right=0;align=left;spacingLeft=6;fontStyle=1;" parent="KQf6K9CdoITa3a_320hS-2" vertex="1">
          <mxGeometry x="30" width="261" height="27" as="geometry">
            <mxRectangle width="261" height="27" as="alternateBounds" />
          </mxGeometry>
        </mxCell>
        <mxCell id="QZeqmvYRpOHpBTYo1mOe-214" value="" style="shape=tableRow;horizontal=0;startSize=0;swimlaneHead=0;swimlaneBody=0;fillColor=none;collapsible=0;dropTarget=0;points=[[0,0.5],[1,0.5]];portConstraint=eastwest;top=0;left=0;right=0;bottom=0;" parent="KQf6K9CdoITa3a_320hS-1" vertex="1">
          <mxGeometry y="57" width="291" height="30" as="geometry" />
        </mxCell>
        <mxCell id="QZeqmvYRpOHpBTYo1mOe-215" value="" style="shape=partialRectangle;connectable=0;fillColor=none;top=0;left=0;bottom=0;right=0;editable=1;overflow=hidden;" parent="QZeqmvYRpOHpBTYo1mOe-214" vertex="1">
          <mxGeometry width="30" height="30" as="geometry">
            <mxRectangle width="30" height="30" as="alternateBounds" />
          </mxGeometry>
        </mxCell>
        <mxCell id="QZeqmvYRpOHpBTYo1mOe-216" value="airline_name char(100) NOT NULL" style="shape=partialRectangle;connectable=0;fillColor=none;top=0;left=0;bottom=0;right=0;align=left;spacingLeft=6;overflow=hidden;" parent="QZeqmvYRpOHpBTYo1mOe-214" vertex="1">
          <mxGeometry x="30" width="261" height="30" as="geometry">
            <mxRectangle width="261" height="30" as="alternateBounds" />
          </mxGeometry>
        </mxCell>
        <mxCell id="9sxgn1_CPgtoZr-VSsLu-2" value="" style="shape=tableRow;horizontal=0;startSize=0;swimlaneHead=0;swimlaneBody=0;fillColor=none;collapsible=0;dropTarget=0;points=[[0,0.5],[1,0.5]];portConstraint=eastwest;top=0;left=0;right=0;bottom=0;" parent="KQf6K9CdoITa3a_320hS-1" vertex="1">
          <mxGeometry y="87" width="291" height="30" as="geometry" />
        </mxCell>
        <mxCell id="9sxgn1_CPgtoZr-VSsLu-3" value="" style="shape=partialRectangle;connectable=0;fillColor=none;top=0;left=0;bottom=0;right=0;editable=1;overflow=hidden;" parent="9sxgn1_CPgtoZr-VSsLu-2" vertex="1">
          <mxGeometry width="30" height="30" as="geometry">
            <mxRectangle width="30" height="30" as="alternateBounds" />
          </mxGeometry>
        </mxCell>
        <mxCell id="9sxgn1_CPgtoZr-VSsLu-4" value="plane_type PlaneType NOT NULL" style="shape=partialRectangle;connectable=0;fillColor=none;top=0;left=0;bottom=0;right=0;align=left;spacingLeft=6;overflow=hidden;" parent="9sxgn1_CPgtoZr-VSsLu-2" vertex="1">
          <mxGeometry x="30" width="261" height="30" as="geometry">
            <mxRectangle width="261" height="30" as="alternateBounds" />
          </mxGeometry>
        </mxCell>
        <mxCell id="QZeqmvYRpOHpBTYo1mOe-86" value="" style="shape=tableRow;horizontal=0;startSize=0;swimlaneHead=0;swimlaneBody=0;fillColor=none;collapsible=0;dropTarget=0;points=[[0,0.5],[1,0.5]];portConstraint=eastwest;top=0;left=0;right=0;bottom=0;" parent="KQf6K9CdoITa3a_320hS-1" vertex="1">
          <mxGeometry y="117" width="291" height="30" as="geometry" />
        </mxCell>
        <mxCell id="QZeqmvYRpOHpBTYo1mOe-87" value="" style="shape=partialRectangle;connectable=0;fillColor=none;top=0;left=0;bottom=0;right=0;editable=1;overflow=hidden;" parent="QZeqmvYRpOHpBTYo1mOe-86" vertex="1">
          <mxGeometry width="30" height="30" as="geometry">
            <mxRectangle width="30" height="30" as="alternateBounds" />
          </mxGeometry>
        </mxCell>
        <mxCell id="QZeqmvYRpOHpBTYo1mOe-88" value="where_from_country char(100) NOT NULL" style="shape=partialRectangle;connectable=0;fillColor=none;top=0;left=0;bottom=0;right=0;align=left;spacingLeft=6;overflow=hidden;" parent="QZeqmvYRpOHpBTYo1mOe-86" vertex="1">
          <mxGeometry x="30" width="261" height="30" as="geometry">
            <mxRectangle width="261" height="30" as="alternateBounds" />
          </mxGeometry>
        </mxCell>
        <mxCell id="KQf6K9CdoITa3a_320hS-11" value="" style="shape=tableRow;horizontal=0;startSize=0;swimlaneHead=0;swimlaneBody=0;fillColor=none;collapsible=0;dropTarget=0;points=[[0,0.5],[1,0.5]];portConstraint=eastwest;top=0;left=0;right=0;bottom=0;" parent="KQf6K9CdoITa3a_320hS-1" vertex="1">
          <mxGeometry y="147" width="291" height="30" as="geometry" />
        </mxCell>
        <mxCell id="KQf6K9CdoITa3a_320hS-12" value="" style="shape=partialRectangle;connectable=0;fillColor=none;top=0;left=0;bottom=0;right=0;editable=1;overflow=hidden;" parent="KQf6K9CdoITa3a_320hS-11" vertex="1">
          <mxGeometry width="30" height="30" as="geometry">
            <mxRectangle width="30" height="30" as="alternateBounds" />
          </mxGeometry>
        </mxCell>
        <mxCell id="KQf6K9CdoITa3a_320hS-13" value="where_from_city char(100) NOT NULL" style="shape=partialRectangle;connectable=0;fillColor=none;top=0;left=0;bottom=0;right=0;align=left;spacingLeft=6;overflow=hidden;" parent="KQf6K9CdoITa3a_320hS-11" vertex="1">
          <mxGeometry x="30" width="261" height="30" as="geometry">
            <mxRectangle width="261" height="30" as="alternateBounds" />
          </mxGeometry>
        </mxCell>
        <mxCell id="QZeqmvYRpOHpBTYo1mOe-83" value="" style="shape=tableRow;horizontal=0;startSize=0;swimlaneHead=0;swimlaneBody=0;fillColor=none;collapsible=0;dropTarget=0;points=[[0,0.5],[1,0.5]];portConstraint=eastwest;top=0;left=0;right=0;bottom=0;" parent="KQf6K9CdoITa3a_320hS-1" vertex="1">
          <mxGeometry y="177" width="291" height="30" as="geometry" />
        </mxCell>
        <mxCell id="QZeqmvYRpOHpBTYo1mOe-84" value="" style="shape=partialRectangle;connectable=0;fillColor=none;top=0;left=0;bottom=0;right=0;editable=1;overflow=hidden;" parent="QZeqmvYRpOHpBTYo1mOe-83" vertex="1">
          <mxGeometry width="30" height="30" as="geometry">
            <mxRectangle width="30" height="30" as="alternateBounds" />
          </mxGeometry>
        </mxCell>
        <mxCell id="QZeqmvYRpOHpBTYo1mOe-85" value="where_country char(100) NOT NULL" style="shape=partialRectangle;connectable=0;fillColor=none;top=0;left=0;bottom=0;right=0;align=left;spacingLeft=6;overflow=hidden;" parent="QZeqmvYRpOHpBTYo1mOe-83" vertex="1">
          <mxGeometry x="30" width="261" height="30" as="geometry">
            <mxRectangle width="261" height="30" as="alternateBounds" />
          </mxGeometry>
        </mxCell>
        <mxCell id="KQf6K9CdoITa3a_320hS-14" value="" style="shape=tableRow;horizontal=0;startSize=0;swimlaneHead=0;swimlaneBody=0;fillColor=none;collapsible=0;dropTarget=0;points=[[0,0.5],[1,0.5]];portConstraint=eastwest;top=0;left=0;right=0;bottom=0;" parent="KQf6K9CdoITa3a_320hS-1" vertex="1">
          <mxGeometry y="207" width="291" height="30" as="geometry" />
        </mxCell>
        <mxCell id="KQf6K9CdoITa3a_320hS-15" value="" style="shape=partialRectangle;connectable=0;fillColor=none;top=0;left=0;bottom=0;right=0;editable=1;overflow=hidden;" parent="KQf6K9CdoITa3a_320hS-14" vertex="1">
          <mxGeometry width="30" height="30" as="geometry">
            <mxRectangle width="30" height="30" as="alternateBounds" />
          </mxGeometry>
        </mxCell>
        <mxCell id="KQf6K9CdoITa3a_320hS-16" value="where_city char(100) NOT NULL" style="shape=partialRectangle;connectable=0;fillColor=none;top=0;left=0;bottom=0;right=0;align=left;spacingLeft=6;overflow=hidden;" parent="KQf6K9CdoITa3a_320hS-14" vertex="1">
          <mxGeometry x="30" width="261" height="30" as="geometry">
            <mxRectangle width="261" height="30" as="alternateBounds" />
          </mxGeometry>
        </mxCell>
        <mxCell id="IjkAew8CNjYwR2uWhOrY-4" value="" style="shape=tableRow;horizontal=0;startSize=0;swimlaneHead=0;swimlaneBody=0;fillColor=none;collapsible=0;dropTarget=0;points=[[0,0.5],[1,0.5]];portConstraint=eastwest;top=0;left=0;right=0;bottom=0;" parent="KQf6K9CdoITa3a_320hS-1" vertex="1">
          <mxGeometry y="237" width="291" height="30" as="geometry" />
        </mxCell>
        <mxCell id="IjkAew8CNjYwR2uWhOrY-5" value="" style="shape=partialRectangle;connectable=0;fillColor=none;top=0;left=0;bottom=0;right=0;editable=1;overflow=hidden;" parent="IjkAew8CNjYwR2uWhOrY-4" vertex="1">
          <mxGeometry width="30" height="30" as="geometry">
            <mxRectangle width="30" height="30" as="alternateBounds" />
          </mxGeometry>
        </mxCell>
        <mxCell id="IjkAew8CNjYwR2uWhOrY-6" value="departure_datetime datetime NOT NULL" style="shape=partialRectangle;connectable=0;fillColor=none;top=0;left=0;bottom=0;right=0;align=left;spacingLeft=6;overflow=hidden;" parent="IjkAew8CNjYwR2uWhOrY-4" vertex="1">
          <mxGeometry x="30" width="261" height="30" as="geometry">
            <mxRectangle width="261" height="30" as="alternateBounds" />
          </mxGeometry>
        </mxCell>
        <mxCell id="IjkAew8CNjYwR2uWhOrY-7" value="" style="shape=tableRow;horizontal=0;startSize=0;swimlaneHead=0;swimlaneBody=0;fillColor=none;collapsible=0;dropTarget=0;points=[[0,0.5],[1,0.5]];portConstraint=eastwest;top=0;left=0;right=0;bottom=0;" parent="KQf6K9CdoITa3a_320hS-1" vertex="1">
          <mxGeometry y="267" width="291" height="30" as="geometry" />
        </mxCell>
        <mxCell id="IjkAew8CNjYwR2uWhOrY-8" value="" style="shape=partialRectangle;connectable=0;fillColor=none;top=0;left=0;bottom=0;right=0;editable=1;overflow=hidden;" parent="IjkAew8CNjYwR2uWhOrY-7" vertex="1">
          <mxGeometry width="30" height="30" as="geometry">
            <mxRectangle width="30" height="30" as="alternateBounds" />
          </mxGeometry>
        </mxCell>
        <mxCell id="IjkAew8CNjYwR2uWhOrY-9" value="datetime_of_arrival datetime NOT NULL" style="shape=partialRectangle;connectable=0;fillColor=none;top=0;left=0;bottom=0;right=0;align=left;spacingLeft=6;overflow=hidden;" parent="IjkAew8CNjYwR2uWhOrY-7" vertex="1">
          <mxGeometry x="30" width="261" height="30" as="geometry">
            <mxRectangle width="261" height="30" as="alternateBounds" />
          </mxGeometry>
        </mxCell>
        <mxCell id="IjkAew8CNjYwR2uWhOrY-32" value="" style="shape=tableRow;horizontal=0;startSize=0;swimlaneHead=0;swimlaneBody=0;fillColor=none;collapsible=0;dropTarget=0;points=[[0,0.5],[1,0.5]];portConstraint=eastwest;top=0;left=0;right=0;bottom=0;" parent="KQf6K9CdoITa3a_320hS-1" vertex="1">
          <mxGeometry y="297" width="291" height="30" as="geometry" />
        </mxCell>
        <mxCell id="IjkAew8CNjYwR2uWhOrY-33" value="" style="shape=partialRectangle;connectable=0;fillColor=none;top=0;left=0;bottom=0;right=0;editable=1;overflow=hidden;" parent="IjkAew8CNjYwR2uWhOrY-32" vertex="1">
          <mxGeometry width="30" height="30" as="geometry">
            <mxRectangle width="30" height="30" as="alternateBounds" />
          </mxGeometry>
        </mxCell>
        <mxCell id="IjkAew8CNjYwR2uWhOrY-34" value="capacity_of_people int NOT NULL" style="shape=partialRectangle;connectable=0;fillColor=none;top=0;left=0;bottom=0;right=0;align=left;spacingLeft=6;overflow=hidden;" parent="IjkAew8CNjYwR2uWhOrY-32" vertex="1">
          <mxGeometry x="30" width="261" height="30" as="geometry">
            <mxRectangle width="261" height="30" as="alternateBounds" />
          </mxGeometry>
        </mxCell>
        <mxCell id="IjkAew8CNjYwR2uWhOrY-35" value="" style="shape=tableRow;horizontal=0;startSize=0;swimlaneHead=0;swimlaneBody=0;fillColor=none;collapsible=0;dropTarget=0;points=[[0,0.5],[1,0.5]];portConstraint=eastwest;top=0;left=0;right=0;bottom=0;" parent="KQf6K9CdoITa3a_320hS-1" vertex="1">
          <mxGeometry y="327" width="291" height="30" as="geometry" />
        </mxCell>
        <mxCell id="IjkAew8CNjYwR2uWhOrY-36" value="" style="shape=partialRectangle;connectable=0;fillColor=none;top=0;left=0;bottom=0;right=0;editable=1;overflow=hidden;" parent="IjkAew8CNjYwR2uWhOrY-35" vertex="1">
          <mxGeometry width="30" height="30" as="geometry">
            <mxRectangle width="30" height="30" as="alternateBounds" />
          </mxGeometry>
        </mxCell>
        <mxCell id="IjkAew8CNjYwR2uWhOrY-37" value="ocupated_places int NOT NULL" style="shape=partialRectangle;connectable=0;fillColor=none;top=0;left=0;bottom=0;right=0;align=left;spacingLeft=6;overflow=hidden;" parent="IjkAew8CNjYwR2uWhOrY-35" vertex="1">
          <mxGeometry x="30" width="261" height="30" as="geometry">
            <mxRectangle width="261" height="30" as="alternateBounds" />
          </mxGeometry>
        </mxCell>
        <mxCell id="IjkAew8CNjYwR2uWhOrY-38" value="" style="shape=tableRow;horizontal=0;startSize=0;swimlaneHead=0;swimlaneBody=0;fillColor=none;collapsible=0;dropTarget=0;points=[[0,0.5],[1,0.5]];portConstraint=eastwest;top=0;left=0;right=0;bottom=0;" parent="KQf6K9CdoITa3a_320hS-1" vertex="1">
          <mxGeometry y="357" width="291" height="30" as="geometry" />
        </mxCell>
        <mxCell id="IjkAew8CNjYwR2uWhOrY-39" value="" style="shape=partialRectangle;connectable=0;fillColor=none;top=0;left=0;bottom=0;right=0;editable=1;overflow=hidden;" parent="IjkAew8CNjYwR2uWhOrY-38" vertex="1">
          <mxGeometry width="30" height="30" as="geometry">
            <mxRectangle width="30" height="30" as="alternateBounds" />
          </mxGeometry>
        </mxCell>
        <mxCell id="IjkAew8CNjYwR2uWhOrY-40" value="capacity_weight_of_cargo float NOT NULL" style="shape=partialRectangle;connectable=0;fillColor=none;top=0;left=0;bottom=0;right=0;align=left;spacingLeft=6;overflow=hidden;" parent="IjkAew8CNjYwR2uWhOrY-38" vertex="1">
          <mxGeometry x="30" width="261" height="30" as="geometry">
            <mxRectangle width="261" height="30" as="alternateBounds" />
          </mxGeometry>
        </mxCell>
        <mxCell id="IjkAew8CNjYwR2uWhOrY-41" value="" style="shape=tableRow;horizontal=0;startSize=0;swimlaneHead=0;swimlaneBody=0;fillColor=none;collapsible=0;dropTarget=0;points=[[0,0.5],[1,0.5]];portConstraint=eastwest;top=0;left=0;right=0;bottom=0;" parent="KQf6K9CdoITa3a_320hS-1" vertex="1">
          <mxGeometry y="387" width="291" height="30" as="geometry" />
        </mxCell>
        <mxCell id="IjkAew8CNjYwR2uWhOrY-42" value="" style="shape=partialRectangle;connectable=0;fillColor=none;top=0;left=0;bottom=0;right=0;editable=1;overflow=hidden;" parent="IjkAew8CNjYwR2uWhOrY-41" vertex="1">
          <mxGeometry width="30" height="30" as="geometry">
            <mxRectangle width="30" height="30" as="alternateBounds" />
          </mxGeometry>
        </mxCell>
        <mxCell id="IjkAew8CNjYwR2uWhOrY-43" value="ocupated_baggage_weight float NOT NULL" style="shape=partialRectangle;connectable=0;fillColor=none;top=0;left=0;bottom=0;right=0;align=left;spacingLeft=6;overflow=hidden;" parent="IjkAew8CNjYwR2uWhOrY-41" vertex="1">
          <mxGeometry x="30" width="261" height="30" as="geometry">
            <mxRectangle width="261" height="30" as="alternateBounds" />
          </mxGeometry>
        </mxCell>
        <mxCell id="5BBY3FltW9Oz70ZlMqhf-8" value="" style="shape=tableRow;horizontal=0;startSize=0;swimlaneHead=0;swimlaneBody=0;fillColor=none;collapsible=0;dropTarget=0;points=[[0,0.5],[1,0.5]];portConstraint=eastwest;top=0;left=0;right=0;bottom=0;" vertex="1" parent="KQf6K9CdoITa3a_320hS-1">
          <mxGeometry y="417" width="291" height="30" as="geometry" />
        </mxCell>
        <mxCell id="5BBY3FltW9Oz70ZlMqhf-9" value="" style="shape=partialRectangle;connectable=0;fillColor=none;top=0;left=0;bottom=0;right=0;editable=1;overflow=hidden;" vertex="1" parent="5BBY3FltW9Oz70ZlMqhf-8">
          <mxGeometry width="30" height="30" as="geometry">
            <mxRectangle width="30" height="30" as="alternateBounds" />
          </mxGeometry>
        </mxCell>
        <mxCell id="5BBY3FltW9Oz70ZlMqhf-10" value="capacity_space_of_cargo int NOT NULL" style="shape=partialRectangle;connectable=0;fillColor=none;top=0;left=0;bottom=0;right=0;align=left;spacingLeft=6;overflow=hidden;" vertex="1" parent="5BBY3FltW9Oz70ZlMqhf-8">
          <mxGeometry x="30" width="261" height="30" as="geometry">
            <mxRectangle width="261" height="30" as="alternateBounds" />
          </mxGeometry>
        </mxCell>
        <mxCell id="5BBY3FltW9Oz70ZlMqhf-5" value="" style="shape=tableRow;horizontal=0;startSize=0;swimlaneHead=0;swimlaneBody=0;fillColor=none;collapsible=0;dropTarget=0;points=[[0,0.5],[1,0.5]];portConstraint=eastwest;top=0;left=0;right=0;bottom=0;" vertex="1" parent="KQf6K9CdoITa3a_320hS-1">
          <mxGeometry y="447" width="291" height="30" as="geometry" />
        </mxCell>
        <mxCell id="5BBY3FltW9Oz70ZlMqhf-6" value="" style="shape=partialRectangle;connectable=0;fillColor=none;top=0;left=0;bottom=0;right=0;editable=1;overflow=hidden;" vertex="1" parent="5BBY3FltW9Oz70ZlMqhf-5">
          <mxGeometry width="30" height="30" as="geometry">
            <mxRectangle width="30" height="30" as="alternateBounds" />
          </mxGeometry>
        </mxCell>
        <mxCell id="5BBY3FltW9Oz70ZlMqhf-7" value="ocupated_baggage_space int NOT NULL" style="shape=partialRectangle;connectable=0;fillColor=none;top=0;left=0;bottom=0;right=0;align=left;spacingLeft=6;overflow=hidden;" vertex="1" parent="5BBY3FltW9Oz70ZlMqhf-5">
          <mxGeometry x="30" width="261" height="30" as="geometry">
            <mxRectangle width="261" height="30" as="alternateBounds" />
          </mxGeometry>
        </mxCell>
        <mxCell id="KQf6K9CdoITa3a_320hS-8" value="" style="shape=partialRectangle;collapsible=0;dropTarget=0;pointerEvents=0;fillColor=none;points=[[0,0.5],[1,0.5]];portConstraint=eastwest;top=0;left=0;right=0;bottom=0;" parent="KQf6K9CdoITa3a_320hS-1" vertex="1">
          <mxGeometry y="477" width="291" height="30" as="geometry" />
        </mxCell>
        <mxCell id="KQf6K9CdoITa3a_320hS-9" value="" style="shape=partialRectangle;overflow=hidden;connectable=0;fillColor=none;top=0;left=0;bottom=0;right=0;" parent="KQf6K9CdoITa3a_320hS-8" vertex="1">
          <mxGeometry width="30" height="30" as="geometry">
            <mxRectangle width="30" height="30" as="alternateBounds" />
          </mxGeometry>
        </mxCell>
        <mxCell id="KQf6K9CdoITa3a_320hS-10" value="flight_ticet_cost float NOT NULL" style="shape=partialRectangle;overflow=hidden;connectable=0;fillColor=none;top=0;left=0;bottom=0;right=0;align=left;spacingLeft=6;" parent="KQf6K9CdoITa3a_320hS-8" vertex="1">
          <mxGeometry x="30" width="261" height="30" as="geometry">
            <mxRectangle width="261" height="30" as="alternateBounds" />
          </mxGeometry>
        </mxCell>
        <mxCell id="9sxgn1_CPgtoZr-VSsLu-31" value="" style="shape=tableRow;horizontal=0;startSize=0;swimlaneHead=0;swimlaneBody=0;fillColor=none;collapsible=0;dropTarget=0;points=[[0,0.5],[1,0.5]];portConstraint=eastwest;top=0;left=0;right=0;bottom=0;" parent="KQf6K9CdoITa3a_320hS-1" vertex="1">
          <mxGeometry y="507" width="291" height="30" as="geometry" />
        </mxCell>
        <mxCell id="9sxgn1_CPgtoZr-VSsLu-32" value="" style="shape=partialRectangle;connectable=0;fillColor=none;top=0;left=0;bottom=0;right=0;editable=1;overflow=hidden;" parent="9sxgn1_CPgtoZr-VSsLu-31" vertex="1">
          <mxGeometry width="30" height="30" as="geometry">
            <mxRectangle width="30" height="30" as="alternateBounds" />
          </mxGeometry>
        </mxCell>
        <mxCell id="9sxgn1_CPgtoZr-VSsLu-33" value="maintenance_expenses float NOT NULL" style="shape=partialRectangle;connectable=0;fillColor=none;top=0;left=0;bottom=0;right=0;align=left;spacingLeft=6;overflow=hidden;" parent="9sxgn1_CPgtoZr-VSsLu-31" vertex="1">
          <mxGeometry x="30" width="261" height="30" as="geometry">
            <mxRectangle width="261" height="30" as="alternateBounds" />
          </mxGeometry>
        </mxCell>
        <mxCell id="IjkAew8CNjYwR2uWhOrY-13" value="Flights_card" style="shape=table;startSize=30;container=1;collapsible=1;childLayout=tableLayout;fixedRows=1;rowLines=0;fontStyle=1;align=center;resizeLast=1;html=1;" parent="1" vertex="1">
          <mxGeometry x="282" y="375" width="295.5" height="180" as="geometry" />
        </mxCell>
        <mxCell id="IjkAew8CNjYwR2uWhOrY-14" value="" style="shape=tableRow;horizontal=0;startSize=0;swimlaneHead=0;swimlaneBody=0;fillColor=none;collapsible=0;dropTarget=0;points=[[0,0.5],[1,0.5]];portConstraint=eastwest;top=0;left=0;right=0;bottom=1;" parent="IjkAew8CNjYwR2uWhOrY-13" vertex="1">
          <mxGeometry y="30" width="295.5" height="30" as="geometry" />
        </mxCell>
        <mxCell id="IjkAew8CNjYwR2uWhOrY-15" value="PK" style="shape=partialRectangle;connectable=0;fillColor=none;top=0;left=0;bottom=0;right=0;fontStyle=1;overflow=hidden;whiteSpace=wrap;html=1;" parent="IjkAew8CNjYwR2uWhOrY-14" vertex="1">
          <mxGeometry width="30" height="30" as="geometry">
            <mxRectangle width="30" height="30" as="alternateBounds" />
          </mxGeometry>
        </mxCell>
        <mxCell id="IjkAew8CNjYwR2uWhOrY-16" value="flights_card_id" style="shape=partialRectangle;connectable=0;fillColor=none;top=0;left=0;bottom=0;right=0;align=left;spacingLeft=6;fontStyle=5;overflow=hidden;whiteSpace=wrap;html=1;" parent="IjkAew8CNjYwR2uWhOrY-14" vertex="1">
          <mxGeometry x="30" width="265.5" height="30" as="geometry">
            <mxRectangle width="265.5" height="30" as="alternateBounds" />
          </mxGeometry>
        </mxCell>
        <mxCell id="IjkAew8CNjYwR2uWhOrY-17" value="" style="shape=tableRow;horizontal=0;startSize=0;swimlaneHead=0;swimlaneBody=0;fillColor=none;collapsible=0;dropTarget=0;points=[[0,0.5],[1,0.5]];portConstraint=eastwest;top=0;left=0;right=0;bottom=0;" parent="IjkAew8CNjYwR2uWhOrY-13" vertex="1">
          <mxGeometry y="60" width="295.5" height="30" as="geometry" />
        </mxCell>
        <mxCell id="IjkAew8CNjYwR2uWhOrY-18" value="FK1" style="shape=partialRectangle;connectable=0;fillColor=none;top=0;left=0;bottom=0;right=0;editable=1;overflow=hidden;whiteSpace=wrap;html=1;" parent="IjkAew8CNjYwR2uWhOrY-17" vertex="1">
          <mxGeometry width="30" height="30" as="geometry">
            <mxRectangle width="30" height="30" as="alternateBounds" />
          </mxGeometry>
        </mxCell>
        <mxCell id="IjkAew8CNjYwR2uWhOrY-19" value="flight_there_id int NOT NULL" style="shape=partialRectangle;connectable=0;fillColor=none;top=0;left=0;bottom=0;right=0;align=left;spacingLeft=6;overflow=hidden;whiteSpace=wrap;html=1;" parent="IjkAew8CNjYwR2uWhOrY-17" vertex="1">
          <mxGeometry x="30" width="265.5" height="30" as="geometry">
            <mxRectangle width="265.5" height="30" as="alternateBounds" />
          </mxGeometry>
        </mxCell>
        <mxCell id="IjkAew8CNjYwR2uWhOrY-20" value="" style="shape=tableRow;horizontal=0;startSize=0;swimlaneHead=0;swimlaneBody=0;fillColor=none;collapsible=0;dropTarget=0;points=[[0,0.5],[1,0.5]];portConstraint=eastwest;top=0;left=0;right=0;bottom=0;" parent="IjkAew8CNjYwR2uWhOrY-13" vertex="1">
          <mxGeometry y="90" width="295.5" height="30" as="geometry" />
        </mxCell>
        <mxCell id="IjkAew8CNjYwR2uWhOrY-21" value="FK2" style="shape=partialRectangle;connectable=0;fillColor=none;top=0;left=0;bottom=0;right=0;editable=1;overflow=hidden;whiteSpace=wrap;html=1;" parent="IjkAew8CNjYwR2uWhOrY-20" vertex="1">
          <mxGeometry width="30" height="30" as="geometry">
            <mxRectangle width="30" height="30" as="alternateBounds" />
          </mxGeometry>
        </mxCell>
        <mxCell id="IjkAew8CNjYwR2uWhOrY-22" value="flight_back_id int NOT NULL" style="shape=partialRectangle;connectable=0;fillColor=none;top=0;left=0;bottom=0;right=0;align=left;spacingLeft=6;overflow=hidden;whiteSpace=wrap;html=1;" parent="IjkAew8CNjYwR2uWhOrY-20" vertex="1">
          <mxGeometry x="30" width="265.5" height="30" as="geometry">
            <mxRectangle width="265.5" height="30" as="alternateBounds" />
          </mxGeometry>
        </mxCell>
        <mxCell id="IjkAew8CNjYwR2uWhOrY-23" value="" style="shape=tableRow;horizontal=0;startSize=0;swimlaneHead=0;swimlaneBody=0;fillColor=none;collapsible=0;dropTarget=0;points=[[0,0.5],[1,0.5]];portConstraint=eastwest;top=0;left=0;right=0;bottom=0;" parent="IjkAew8CNjYwR2uWhOrY-13" vertex="1">
          <mxGeometry y="120" width="295.5" height="30" as="geometry" />
        </mxCell>
        <mxCell id="IjkAew8CNjYwR2uWhOrY-24" value="" style="shape=partialRectangle;connectable=0;fillColor=none;top=0;left=0;bottom=0;right=0;editable=1;overflow=hidden;whiteSpace=wrap;html=1;" parent="IjkAew8CNjYwR2uWhOrY-23" vertex="1">
          <mxGeometry width="30" height="30" as="geometry">
            <mxRectangle width="30" height="30" as="alternateBounds" />
          </mxGeometry>
        </mxCell>
        <mxCell id="IjkAew8CNjYwR2uWhOrY-25" value="main_flight_cost float NOT NULL" style="shape=partialRectangle;connectable=0;fillColor=none;top=0;left=0;bottom=0;right=0;align=left;spacingLeft=6;overflow=hidden;whiteSpace=wrap;html=1;" parent="IjkAew8CNjYwR2uWhOrY-23" vertex="1">
          <mxGeometry x="30" width="265.5" height="30" as="geometry">
            <mxRectangle width="265.5" height="30" as="alternateBounds" />
          </mxGeometry>
        </mxCell>
        <mxCell id="9sxgn1_CPgtoZr-VSsLu-34" value="" style="shape=tableRow;horizontal=0;startSize=0;swimlaneHead=0;swimlaneBody=0;fillColor=none;collapsible=0;dropTarget=0;points=[[0,0.5],[1,0.5]];portConstraint=eastwest;top=0;left=0;right=0;bottom=0;" parent="IjkAew8CNjYwR2uWhOrY-13" vertex="1">
          <mxGeometry y="150" width="295.5" height="30" as="geometry" />
        </mxCell>
        <mxCell id="9sxgn1_CPgtoZr-VSsLu-35" value="" style="shape=partialRectangle;connectable=0;fillColor=none;top=0;left=0;bottom=0;right=0;editable=1;overflow=hidden;" parent="9sxgn1_CPgtoZr-VSsLu-34" vertex="1">
          <mxGeometry width="30" height="30" as="geometry">
            <mxRectangle width="30" height="30" as="alternateBounds" />
          </mxGeometry>
        </mxCell>
        <mxCell id="9sxgn1_CPgtoZr-VSsLu-36" value="main_maintenance_expenses float NOT NULL" style="shape=partialRectangle;connectable=0;fillColor=none;top=0;left=0;bottom=0;right=0;align=left;spacingLeft=6;overflow=hidden;" parent="9sxgn1_CPgtoZr-VSsLu-34" vertex="1">
          <mxGeometry x="30" width="265.5" height="30" as="geometry">
            <mxRectangle width="265.5" height="30" as="alternateBounds" />
          </mxGeometry>
        </mxCell>
        <mxCell id="QZeqmvYRpOHpBTYo1mOe-1" value="" style="endArrow=none;dashed=1;html=1;rounded=0;edgeStyle=orthogonalEdgeStyle;strokeColor=#FFB366;strokeWidth=2;exitX=1;exitY=0.5;exitDx=0;exitDy=0;entryX=0.25;entryY=1;entryDx=0;entryDy=0;" parent="1" source="QZeqmvYRpOHpBTYo1mOe-18" target="QZeqmvYRpOHpBTYo1mOe-2" edge="1">
          <mxGeometry width="50" height="50" relative="1" as="geometry">
            <mxPoint x="-110" y="-84" as="sourcePoint" />
            <mxPoint x="420" y="-130" as="targetPoint" />
            <Array as="points">
              <mxPoint x="-109" y="-94" />
              <mxPoint x="-100" y="-94" />
              <mxPoint x="-100" y="-130" />
              <mxPoint x="423" y="-130" />
              <mxPoint x="423" y="-59" />
            </Array>
          </mxGeometry>
        </mxCell>
        <mxCell id="QZeqmvYRpOHpBTYo1mOe-2" value="&lt;pre style=&quot;position: relative; padding: 16px 16px 8px; background: rgb(26, 27, 38); margin-top: 0px; margin-bottom: 16px; overflow-wrap: normal; overflow: auto; line-height: 1.45; border-radius: 6px; direction: ltr; text-align: start;&quot;&gt;&lt;code style=&quot;border: 0px; padding: 0px; margin: 0px; background-image: initial; background-position: initial; background-size: initial; background-repeat: initial; background-attachment: initial; background-origin: initial; background-clip: initial; border-radius: 6px; display: inline-block; overflow-x: scroll; word-break: normal; max-width: 100%; line-height: inherit; overflow-wrap: normal;&quot; class=&quot;hljs language-sql&quot;&gt;&lt;font face=&quot;ui-monospace, SFMono-Regular, SF Mono, Menlo, Consolas, Liberation Mono, monospace&quot; color=&quot;#cbd2ea&quot;&gt;CREATE TYPE TouristType AS ENUM (&lt;/font&gt;&lt;font face=&quot;ui-monospace, SFMono-Regular, SF Mono, Menlo, Consolas, Liberation Mono, monospace&quot; color=&quot;#9ece6a&quot;&gt;&lt;span style=&quot;font-size: 11.9px;&quot;&gt;&#39;турист-грузоперевозчик&#39;, &#39;турист-отдыхающий&#39;&lt;/span&gt;&lt;/font&gt;&lt;font face=&quot;ui-monospace, SFMono-Regular, SF Mono, Menlo, Consolas, Liberation Mono, monospace&quot; color=&quot;#cbd2ea&quot;&gt;&lt;span style=&quot;font-size: 11.9px;&quot;&gt;);&lt;/span&gt;&lt;/font&gt;&lt;/code&gt;&lt;/pre&gt;" style="rounded=0;whiteSpace=wrap;html=1;fillColor=#344756;dashed=1;" parent="1" vertex="1">
          <mxGeometry x="350" y="-99" width="380" height="40" as="geometry" />
        </mxCell>
        <mxCell id="QZeqmvYRpOHpBTYo1mOe-82" value="" style="edgeStyle=elbowEdgeStyle;fontSize=12;html=1;endArrow=ERmandOne;startArrow=ERmandOne;rounded=0;strokeWidth=3;entryX=0;entryY=0.5;entryDx=0;entryDy=0;exitX=1;exitY=0.5;exitDx=0;exitDy=0;" parent="1" source="W1w_GPU8LvK_WI4qFMCy-157" target="IjkAew8CNjYwR2uWhOrY-14" edge="1">
          <mxGeometry width="100" height="100" relative="1" as="geometry">
            <mxPoint x="900" y="860" as="sourcePoint" />
            <mxPoint x="980" y="910" as="targetPoint" />
            <Array as="points">
              <mxPoint x="250" y="320" />
            </Array>
          </mxGeometry>
        </mxCell>
        <mxCell id="QZeqmvYRpOHpBTYo1mOe-100" value="Hotel_card" style="shape=table;startSize=30;container=1;collapsible=1;childLayout=tableLayout;fixedRows=1;rowLines=0;fontStyle=1;align=center;resizeLast=1;html=1;" parent="1" vertex="1">
          <mxGeometry x="638" y="481" width="252" height="235" as="geometry" />
        </mxCell>
        <mxCell id="QZeqmvYRpOHpBTYo1mOe-101" value="" style="shape=tableRow;horizontal=0;startSize=0;swimlaneHead=0;swimlaneBody=0;fillColor=none;collapsible=0;dropTarget=0;points=[[0,0.5],[1,0.5]];portConstraint=eastwest;top=0;left=0;right=0;bottom=1;" parent="QZeqmvYRpOHpBTYo1mOe-100" vertex="1">
          <mxGeometry y="30" width="252" height="30" as="geometry" />
        </mxCell>
        <mxCell id="QZeqmvYRpOHpBTYo1mOe-102" value="PK" style="shape=partialRectangle;connectable=0;fillColor=none;top=0;left=0;bottom=0;right=0;fontStyle=1;overflow=hidden;whiteSpace=wrap;html=1;" parent="QZeqmvYRpOHpBTYo1mOe-101" vertex="1">
          <mxGeometry width="30" height="30" as="geometry">
            <mxRectangle width="30" height="30" as="alternateBounds" />
          </mxGeometry>
        </mxCell>
        <mxCell id="QZeqmvYRpOHpBTYo1mOe-103" value="hotel_card_id int NOT NULL" style="shape=partialRectangle;connectable=0;fillColor=none;top=0;left=0;bottom=0;right=0;align=left;spacingLeft=6;fontStyle=5;overflow=hidden;whiteSpace=wrap;html=1;" parent="QZeqmvYRpOHpBTYo1mOe-101" vertex="1">
          <mxGeometry x="30" width="222" height="30" as="geometry">
            <mxRectangle width="222" height="30" as="alternateBounds" />
          </mxGeometry>
        </mxCell>
        <mxCell id="QZeqmvYRpOHpBTYo1mOe-104" value="" style="shape=tableRow;horizontal=0;startSize=0;swimlaneHead=0;swimlaneBody=0;fillColor=none;collapsible=0;dropTarget=0;points=[[0,0.5],[1,0.5]];portConstraint=eastwest;top=0;left=0;right=0;bottom=0;" parent="QZeqmvYRpOHpBTYo1mOe-100" vertex="1">
          <mxGeometry y="60" width="252" height="30" as="geometry" />
        </mxCell>
        <mxCell id="QZeqmvYRpOHpBTYo1mOe-105" value="FK1" style="shape=partialRectangle;connectable=0;fillColor=none;top=0;left=0;bottom=0;right=0;editable=1;overflow=hidden;whiteSpace=wrap;html=1;" parent="QZeqmvYRpOHpBTYo1mOe-104" vertex="1">
          <mxGeometry width="30" height="30" as="geometry">
            <mxRectangle width="30" height="30" as="alternateBounds" />
          </mxGeometry>
        </mxCell>
        <mxCell id="QZeqmvYRpOHpBTYo1mOe-106" value="booked_hotel_id int NOT NULL" style="shape=partialRectangle;connectable=0;fillColor=none;top=0;left=0;bottom=0;right=0;align=left;spacingLeft=6;overflow=hidden;whiteSpace=wrap;html=1;" parent="QZeqmvYRpOHpBTYo1mOe-104" vertex="1">
          <mxGeometry x="30" width="222" height="30" as="geometry">
            <mxRectangle width="222" height="30" as="alternateBounds" />
          </mxGeometry>
        </mxCell>
        <mxCell id="QZeqmvYRpOHpBTYo1mOe-107" value="" style="shape=tableRow;horizontal=0;startSize=0;swimlaneHead=0;swimlaneBody=0;fillColor=none;collapsible=0;dropTarget=0;points=[[0,0.5],[1,0.5]];portConstraint=eastwest;top=0;left=0;right=0;bottom=0;" parent="QZeqmvYRpOHpBTYo1mOe-100" vertex="1">
          <mxGeometry y="90" width="252" height="30" as="geometry" />
        </mxCell>
        <mxCell id="QZeqmvYRpOHpBTYo1mOe-108" value="FK2" style="shape=partialRectangle;connectable=0;fillColor=none;top=0;left=0;bottom=0;right=0;editable=1;overflow=hidden;whiteSpace=wrap;html=1;" parent="QZeqmvYRpOHpBTYo1mOe-107" vertex="1">
          <mxGeometry width="30" height="30" as="geometry">
            <mxRectangle width="30" height="30" as="alternateBounds" />
          </mxGeometry>
        </mxCell>
        <mxCell id="QZeqmvYRpOHpBTYo1mOe-109" value="reserved_room_id int NOT NULL" style="shape=partialRectangle;connectable=0;fillColor=none;top=0;left=0;bottom=0;right=0;align=left;spacingLeft=6;overflow=hidden;whiteSpace=wrap;html=1;" parent="QZeqmvYRpOHpBTYo1mOe-107" vertex="1">
          <mxGeometry x="30" width="222" height="30" as="geometry">
            <mxRectangle width="222" height="30" as="alternateBounds" />
          </mxGeometry>
        </mxCell>
        <mxCell id="QZeqmvYRpOHpBTYo1mOe-110" value="" style="shape=tableRow;horizontal=0;startSize=0;swimlaneHead=0;swimlaneBody=0;fillColor=none;collapsible=0;dropTarget=0;points=[[0,0.5],[1,0.5]];portConstraint=eastwest;top=0;left=0;right=0;bottom=0;" parent="QZeqmvYRpOHpBTYo1mOe-100" vertex="1">
          <mxGeometry y="120" width="252" height="30" as="geometry" />
        </mxCell>
        <mxCell id="QZeqmvYRpOHpBTYo1mOe-111" value="" style="shape=partialRectangle;connectable=0;fillColor=none;top=0;left=0;bottom=0;right=0;editable=1;overflow=hidden;whiteSpace=wrap;html=1;" parent="QZeqmvYRpOHpBTYo1mOe-110" vertex="1">
          <mxGeometry width="30" height="30" as="geometry">
            <mxRectangle width="30" height="30" as="alternateBounds" />
          </mxGeometry>
        </mxCell>
        <mxCell id="QZeqmvYRpOHpBTYo1mOe-112" value="check-in_date date NOT NULL" style="shape=partialRectangle;connectable=0;fillColor=none;top=0;left=0;bottom=0;right=0;align=left;spacingLeft=6;overflow=hidden;whiteSpace=wrap;html=1;" parent="QZeqmvYRpOHpBTYo1mOe-110" vertex="1">
          <mxGeometry x="30" width="222" height="30" as="geometry">
            <mxRectangle width="222" height="30" as="alternateBounds" />
          </mxGeometry>
        </mxCell>
        <mxCell id="QZeqmvYRpOHpBTYo1mOe-166" value="" style="shape=tableRow;horizontal=0;startSize=0;swimlaneHead=0;swimlaneBody=0;fillColor=none;collapsible=0;dropTarget=0;points=[[0,0.5],[1,0.5]];portConstraint=eastwest;top=0;left=0;right=0;bottom=0;" parent="QZeqmvYRpOHpBTYo1mOe-100" vertex="1">
          <mxGeometry y="150" width="252" height="25" as="geometry" />
        </mxCell>
        <mxCell id="QZeqmvYRpOHpBTYo1mOe-167" value="" style="shape=partialRectangle;connectable=0;fillColor=none;top=0;left=0;bottom=0;right=0;editable=1;overflow=hidden;" parent="QZeqmvYRpOHpBTYo1mOe-166" vertex="1">
          <mxGeometry width="30" height="25" as="geometry">
            <mxRectangle width="30" height="25" as="alternateBounds" />
          </mxGeometry>
        </mxCell>
        <mxCell id="QZeqmvYRpOHpBTYo1mOe-168" value="eviction-date date NOT NULL" style="shape=partialRectangle;connectable=0;fillColor=none;top=0;left=0;bottom=0;right=0;align=left;spacingLeft=6;overflow=hidden;" parent="QZeqmvYRpOHpBTYo1mOe-166" vertex="1">
          <mxGeometry x="30" width="222" height="25" as="geometry">
            <mxRectangle width="222" height="25" as="alternateBounds" />
          </mxGeometry>
        </mxCell>
        <mxCell id="QZeqmvYRpOHpBTYo1mOe-169" value="" style="shape=tableRow;horizontal=0;startSize=0;swimlaneHead=0;swimlaneBody=0;fillColor=none;collapsible=0;dropTarget=0;points=[[0,0.5],[1,0.5]];portConstraint=eastwest;top=0;left=0;right=0;bottom=0;" parent="QZeqmvYRpOHpBTYo1mOe-100" vertex="1">
          <mxGeometry y="175" width="252" height="30" as="geometry" />
        </mxCell>
        <mxCell id="QZeqmvYRpOHpBTYo1mOe-170" value="" style="shape=partialRectangle;connectable=0;fillColor=none;top=0;left=0;bottom=0;right=0;editable=1;overflow=hidden;" parent="QZeqmvYRpOHpBTYo1mOe-169" vertex="1">
          <mxGeometry width="30" height="30" as="geometry">
            <mxRectangle width="30" height="30" as="alternateBounds" />
          </mxGeometry>
        </mxCell>
        <mxCell id="QZeqmvYRpOHpBTYo1mOe-171" value="main_living_cost float NOT NULL" style="shape=partialRectangle;connectable=0;fillColor=none;top=0;left=0;bottom=0;right=0;align=left;spacingLeft=6;overflow=hidden;" parent="QZeqmvYRpOHpBTYo1mOe-169" vertex="1">
          <mxGeometry x="30" width="222" height="30" as="geometry">
            <mxRectangle width="222" height="30" as="alternateBounds" />
          </mxGeometry>
        </mxCell>
        <mxCell id="9sxgn1_CPgtoZr-VSsLu-37" value="" style="shape=tableRow;horizontal=0;startSize=0;swimlaneHead=0;swimlaneBody=0;fillColor=none;collapsible=0;dropTarget=0;points=[[0,0.5],[1,0.5]];portConstraint=eastwest;top=0;left=0;right=0;bottom=0;" parent="QZeqmvYRpOHpBTYo1mOe-100" vertex="1">
          <mxGeometry y="205" width="252" height="30" as="geometry" />
        </mxCell>
        <mxCell id="9sxgn1_CPgtoZr-VSsLu-38" value="" style="shape=partialRectangle;connectable=0;fillColor=none;top=0;left=0;bottom=0;right=0;editable=1;overflow=hidden;" parent="9sxgn1_CPgtoZr-VSsLu-37" vertex="1">
          <mxGeometry width="30" height="30" as="geometry">
            <mxRectangle width="30" height="30" as="alternateBounds" />
          </mxGeometry>
        </mxCell>
        <mxCell id="9sxgn1_CPgtoZr-VSsLu-39" value="main_living_expenses float NOT NULL" style="shape=partialRectangle;connectable=0;fillColor=none;top=0;left=0;bottom=0;right=0;align=left;spacingLeft=6;overflow=hidden;" parent="9sxgn1_CPgtoZr-VSsLu-37" vertex="1">
          <mxGeometry x="30" width="222" height="30" as="geometry">
            <mxRectangle width="222" height="30" as="alternateBounds" />
          </mxGeometry>
        </mxCell>
        <mxCell id="QZeqmvYRpOHpBTYo1mOe-114" value="Hotel" style="shape=table;startSize=30;container=1;collapsible=1;childLayout=tableLayout;fixedRows=1;rowLines=0;fontStyle=1;align=center;resizeLast=1;html=1;" parent="1" vertex="1">
          <mxGeometry x="621" y="-5" width="330" height="180" as="geometry" />
        </mxCell>
        <mxCell id="QZeqmvYRpOHpBTYo1mOe-115" value="" style="shape=tableRow;horizontal=0;startSize=0;swimlaneHead=0;swimlaneBody=0;fillColor=none;collapsible=0;dropTarget=0;points=[[0,0.5],[1,0.5]];portConstraint=eastwest;top=0;left=0;right=0;bottom=1;" parent="QZeqmvYRpOHpBTYo1mOe-114" vertex="1">
          <mxGeometry y="30" width="330" height="30" as="geometry" />
        </mxCell>
        <mxCell id="QZeqmvYRpOHpBTYo1mOe-116" value="PK" style="shape=partialRectangle;connectable=0;fillColor=none;top=0;left=0;bottom=0;right=0;fontStyle=1;overflow=hidden;whiteSpace=wrap;html=1;" parent="QZeqmvYRpOHpBTYo1mOe-115" vertex="1">
          <mxGeometry width="30" height="30" as="geometry">
            <mxRectangle width="30" height="30" as="alternateBounds" />
          </mxGeometry>
        </mxCell>
        <mxCell id="QZeqmvYRpOHpBTYo1mOe-117" value="hotel_id int NOT NULL" style="shape=partialRectangle;connectable=0;fillColor=none;top=0;left=0;bottom=0;right=0;align=left;spacingLeft=6;fontStyle=5;overflow=hidden;whiteSpace=wrap;html=1;" parent="QZeqmvYRpOHpBTYo1mOe-115" vertex="1">
          <mxGeometry x="30" width="300" height="30" as="geometry">
            <mxRectangle width="300" height="30" as="alternateBounds" />
          </mxGeometry>
        </mxCell>
        <mxCell id="QZeqmvYRpOHpBTYo1mOe-208" value="" style="shape=tableRow;horizontal=0;startSize=0;swimlaneHead=0;swimlaneBody=0;fillColor=none;collapsible=0;dropTarget=0;points=[[0,0.5],[1,0.5]];portConstraint=eastwest;top=0;left=0;right=0;bottom=0;" parent="QZeqmvYRpOHpBTYo1mOe-114" vertex="1">
          <mxGeometry y="60" width="330" height="30" as="geometry" />
        </mxCell>
        <mxCell id="QZeqmvYRpOHpBTYo1mOe-209" value="" style="shape=partialRectangle;connectable=0;fillColor=none;top=0;left=0;bottom=0;right=0;editable=1;overflow=hidden;" parent="QZeqmvYRpOHpBTYo1mOe-208" vertex="1">
          <mxGeometry width="30" height="30" as="geometry">
            <mxRectangle width="30" height="30" as="alternateBounds" />
          </mxGeometry>
        </mxCell>
        <mxCell id="QZeqmvYRpOHpBTYo1mOe-210" value="hotel_name char(100) NOT NULL" style="shape=partialRectangle;connectable=0;fillColor=none;top=0;left=0;bottom=0;right=0;align=left;spacingLeft=6;overflow=hidden;" parent="QZeqmvYRpOHpBTYo1mOe-208" vertex="1">
          <mxGeometry x="30" width="300" height="30" as="geometry">
            <mxRectangle width="300" height="30" as="alternateBounds" />
          </mxGeometry>
        </mxCell>
        <mxCell id="QZeqmvYRpOHpBTYo1mOe-118" value="" style="shape=tableRow;horizontal=0;startSize=0;swimlaneHead=0;swimlaneBody=0;fillColor=none;collapsible=0;dropTarget=0;points=[[0,0.5],[1,0.5]];portConstraint=eastwest;top=0;left=0;right=0;bottom=0;" parent="QZeqmvYRpOHpBTYo1mOe-114" vertex="1">
          <mxGeometry y="90" width="330" height="30" as="geometry" />
        </mxCell>
        <mxCell id="QZeqmvYRpOHpBTYo1mOe-119" value="" style="shape=partialRectangle;connectable=0;fillColor=none;top=0;left=0;bottom=0;right=0;editable=1;overflow=hidden;whiteSpace=wrap;html=1;" parent="QZeqmvYRpOHpBTYo1mOe-118" vertex="1">
          <mxGeometry width="30" height="30" as="geometry">
            <mxRectangle width="30" height="30" as="alternateBounds" />
          </mxGeometry>
        </mxCell>
        <mxCell id="QZeqmvYRpOHpBTYo1mOe-120" value="hotel_country char(50) NOT NULL" style="shape=partialRectangle;connectable=0;fillColor=none;top=0;left=0;bottom=0;right=0;align=left;spacingLeft=6;overflow=hidden;whiteSpace=wrap;html=1;" parent="QZeqmvYRpOHpBTYo1mOe-118" vertex="1">
          <mxGeometry x="30" width="300" height="30" as="geometry">
            <mxRectangle width="300" height="30" as="alternateBounds" />
          </mxGeometry>
        </mxCell>
        <mxCell id="QZeqmvYRpOHpBTYo1mOe-121" value="" style="shape=tableRow;horizontal=0;startSize=0;swimlaneHead=0;swimlaneBody=0;fillColor=none;collapsible=0;dropTarget=0;points=[[0,0.5],[1,0.5]];portConstraint=eastwest;top=0;left=0;right=0;bottom=0;" parent="QZeqmvYRpOHpBTYo1mOe-114" vertex="1">
          <mxGeometry y="120" width="330" height="30" as="geometry" />
        </mxCell>
        <mxCell id="QZeqmvYRpOHpBTYo1mOe-122" value="" style="shape=partialRectangle;connectable=0;fillColor=none;top=0;left=0;bottom=0;right=0;editable=1;overflow=hidden;whiteSpace=wrap;html=1;" parent="QZeqmvYRpOHpBTYo1mOe-121" vertex="1">
          <mxGeometry width="30" height="30" as="geometry">
            <mxRectangle width="30" height="30" as="alternateBounds" />
          </mxGeometry>
        </mxCell>
        <mxCell id="QZeqmvYRpOHpBTYo1mOe-123" value="hotel_city char(50) NOT NULL" style="shape=partialRectangle;connectable=0;fillColor=none;top=0;left=0;bottom=0;right=0;align=left;spacingLeft=6;overflow=hidden;whiteSpace=wrap;html=1;" parent="QZeqmvYRpOHpBTYo1mOe-121" vertex="1">
          <mxGeometry x="30" width="300" height="30" as="geometry">
            <mxRectangle width="300" height="30" as="alternateBounds" />
          </mxGeometry>
        </mxCell>
        <mxCell id="QZeqmvYRpOHpBTYo1mOe-124" value="" style="shape=tableRow;horizontal=0;startSize=0;swimlaneHead=0;swimlaneBody=0;fillColor=none;collapsible=0;dropTarget=0;points=[[0,0.5],[1,0.5]];portConstraint=eastwest;top=0;left=0;right=0;bottom=0;" parent="QZeqmvYRpOHpBTYo1mOe-114" vertex="1">
          <mxGeometry y="150" width="330" height="30" as="geometry" />
        </mxCell>
        <mxCell id="QZeqmvYRpOHpBTYo1mOe-125" value="" style="shape=partialRectangle;connectable=0;fillColor=none;top=0;left=0;bottom=0;right=0;editable=1;overflow=hidden;whiteSpace=wrap;html=1;" parent="QZeqmvYRpOHpBTYo1mOe-124" vertex="1">
          <mxGeometry width="30" height="30" as="geometry">
            <mxRectangle width="30" height="30" as="alternateBounds" />
          </mxGeometry>
        </mxCell>
        <mxCell id="QZeqmvYRpOHpBTYo1mOe-126" value="hotel_address char(100) NOT NULL" style="shape=partialRectangle;connectable=0;fillColor=none;top=0;left=0;bottom=0;right=0;align=left;spacingLeft=6;overflow=hidden;whiteSpace=wrap;html=1;" parent="QZeqmvYRpOHpBTYo1mOe-124" vertex="1">
          <mxGeometry x="30" width="300" height="30" as="geometry">
            <mxRectangle width="300" height="30" as="alternateBounds" />
          </mxGeometry>
        </mxCell>
        <mxCell id="QZeqmvYRpOHpBTYo1mOe-127" value="Type_of_room" style="shape=table;startSize=30;container=1;collapsible=1;childLayout=tableLayout;fixedRows=1;rowLines=0;fontStyle=1;align=center;resizeLast=1;html=1;" parent="1" vertex="1">
          <mxGeometry x="662" y="792" width="220" height="90" as="geometry" />
        </mxCell>
        <mxCell id="QZeqmvYRpOHpBTYo1mOe-128" value="" style="shape=tableRow;horizontal=0;startSize=0;swimlaneHead=0;swimlaneBody=0;fillColor=none;collapsible=0;dropTarget=0;points=[[0,0.5],[1,0.5]];portConstraint=eastwest;top=0;left=0;right=0;bottom=1;" parent="QZeqmvYRpOHpBTYo1mOe-127" vertex="1">
          <mxGeometry y="30" width="220" height="30" as="geometry" />
        </mxCell>
        <mxCell id="QZeqmvYRpOHpBTYo1mOe-129" value="PK" style="shape=partialRectangle;connectable=0;fillColor=none;top=0;left=0;bottom=0;right=0;fontStyle=1;overflow=hidden;whiteSpace=wrap;html=1;" parent="QZeqmvYRpOHpBTYo1mOe-128" vertex="1">
          <mxGeometry width="30" height="30" as="geometry">
            <mxRectangle width="30" height="30" as="alternateBounds" />
          </mxGeometry>
        </mxCell>
        <mxCell id="QZeqmvYRpOHpBTYo1mOe-130" value="type_id int NOT NULL" style="shape=partialRectangle;connectable=0;fillColor=none;top=0;left=0;bottom=0;right=0;align=left;spacingLeft=6;fontStyle=5;overflow=hidden;whiteSpace=wrap;html=1;" parent="QZeqmvYRpOHpBTYo1mOe-128" vertex="1">
          <mxGeometry x="30" width="190" height="30" as="geometry">
            <mxRectangle width="190" height="30" as="alternateBounds" />
          </mxGeometry>
        </mxCell>
        <mxCell id="QZeqmvYRpOHpBTYo1mOe-131" value="" style="shape=tableRow;horizontal=0;startSize=0;swimlaneHead=0;swimlaneBody=0;fillColor=none;collapsible=0;dropTarget=0;points=[[0,0.5],[1,0.5]];portConstraint=eastwest;top=0;left=0;right=0;bottom=0;" parent="QZeqmvYRpOHpBTYo1mOe-127" vertex="1">
          <mxGeometry y="60" width="220" height="30" as="geometry" />
        </mxCell>
        <mxCell id="QZeqmvYRpOHpBTYo1mOe-132" value="" style="shape=partialRectangle;connectable=0;fillColor=none;top=0;left=0;bottom=0;right=0;editable=1;overflow=hidden;whiteSpace=wrap;html=1;" parent="QZeqmvYRpOHpBTYo1mOe-131" vertex="1">
          <mxGeometry width="30" height="30" as="geometry">
            <mxRectangle width="30" height="30" as="alternateBounds" />
          </mxGeometry>
        </mxCell>
        <mxCell id="QZeqmvYRpOHpBTYo1mOe-133" value="type_room char(20) NOT NULL" style="shape=partialRectangle;connectable=0;fillColor=none;top=0;left=0;bottom=0;right=0;align=left;spacingLeft=6;overflow=hidden;whiteSpace=wrap;html=1;" parent="QZeqmvYRpOHpBTYo1mOe-131" vertex="1">
          <mxGeometry x="30" width="190" height="30" as="geometry">
            <mxRectangle width="190" height="30" as="alternateBounds" />
          </mxGeometry>
        </mxCell>
        <mxCell id="QZeqmvYRpOHpBTYo1mOe-140" value="" style="edgeStyle=orthogonalEdgeStyle;fontSize=12;html=1;endArrow=ERone;startArrow=ERoneToMany;rounded=0;exitX=1;exitY=0.5;exitDx=0;exitDy=0;entryX=0;entryY=0.5;entryDx=0;entryDy=0;strokeWidth=3;strokeColor=#99004D;startFill=0;endFill=0;" parent="1" source="QZeqmvYRpOHpBTYo1mOe-40" target="QZeqmvYRpOHpBTYo1mOe-101" edge="1">
          <mxGeometry width="100" height="100" relative="1" as="geometry">
            <mxPoint x="181" y="185" as="sourcePoint" />
            <mxPoint x="299" y="478" as="targetPoint" />
            <Array as="points">
              <mxPoint x="270" y="205" />
              <mxPoint x="270" y="360" />
              <mxPoint x="600" y="360" />
              <mxPoint x="600" y="460" />
              <mxPoint x="620" y="460" />
              <mxPoint x="620" y="526" />
            </Array>
          </mxGeometry>
        </mxCell>
        <mxCell id="QZeqmvYRpOHpBTYo1mOe-204" value="" style="edgeStyle=orthogonalEdgeStyle;fontSize=12;html=1;endArrow=ERmandOne;startArrow=ERmandOne;rounded=0;exitX=1;exitY=0.5;exitDx=0;exitDy=0;entryX=1;entryY=0.5;entryDx=0;entryDy=0;strokeWidth=2;" parent="1" source="QZeqmvYRpOHpBTYo1mOe-107" target="QZeqmvYRpOHpBTYo1mOe-128" edge="1">
          <mxGeometry width="100" height="100" relative="1" as="geometry">
            <mxPoint x="181" y="185" as="sourcePoint" />
            <mxPoint x="299" y="478" as="targetPoint" />
            <Array as="points">
              <mxPoint x="940" y="586" />
              <mxPoint x="940" y="837" />
            </Array>
          </mxGeometry>
        </mxCell>
        <mxCell id="QZeqmvYRpOHpBTYo1mOe-205" value="" style="edgeStyle=orthogonalEdgeStyle;fontSize=12;html=1;endArrow=ERmandOne;startArrow=ERmandOne;rounded=0;entryX=1;entryY=0.5;entryDx=0;entryDy=0;strokeWidth=2;strokeColor=#FF4C2B;exitX=1;exitY=0.5;exitDx=0;exitDy=0;" parent="1" source="QZeqmvYRpOHpBTYo1mOe-115" target="QZeqmvYRpOHpBTYo1mOe-104" edge="1">
          <mxGeometry width="100" height="100" relative="1" as="geometry">
            <mxPoint x="598" y="320" as="sourcePoint" />
            <mxPoint x="598" y="499" as="targetPoint" />
            <Array as="points">
              <mxPoint x="980" y="40" />
              <mxPoint x="980" y="556" />
            </Array>
          </mxGeometry>
        </mxCell>
        <mxCell id="QZeqmvYRpOHpBTYo1mOe-206" value="&lt;p style=&quot;margin-bottom: 0cm; font-size: 13px;&quot; class=&quot;MsoNormal&quot;&gt;Четыре типа комнат по вместимости человек от 1 до 4&lt;/p&gt;" style="rounded=0;whiteSpace=wrap;html=1;fillColor=#344756;dashed=1;" parent="1" vertex="1">
          <mxGeometry x="639" y="917" width="220" height="50" as="geometry" />
        </mxCell>
        <mxCell id="QZeqmvYRpOHpBTYo1mOe-207" value="" style="endArrow=none;dashed=1;html=1;rounded=0;entryX=0;entryY=0.5;entryDx=0;entryDy=0;exitX=0;exitY=0.5;exitDx=0;exitDy=0;edgeStyle=orthogonalEdgeStyle;strokeWidth=2;strokeColor=#FFB366;" parent="1" source="QZeqmvYRpOHpBTYo1mOe-206" target="QZeqmvYRpOHpBTYo1mOe-131" edge="1">
          <mxGeometry width="50" height="50" relative="1" as="geometry">
            <mxPoint x="600" y="730" as="sourcePoint" />
            <mxPoint x="650" y="680" as="targetPoint" />
            <Array as="points">
              <mxPoint x="620" y="942" />
              <mxPoint x="620" y="867" />
            </Array>
          </mxGeometry>
        </mxCell>
        <mxCell id="QZeqmvYRpOHpBTYo1mOe-217" value="" style="edgeStyle=elbowEdgeStyle;fontSize=12;html=1;endArrow=ERone;startArrow=ERoneToMany;rounded=0;exitX=0;exitY=0.5;exitDx=0;exitDy=0;entryX=0;entryY=0.5;entryDx=0;entryDy=0;strokeWidth=3;strokeColor=#67AB9F;startFill=0;endFill=0;" parent="1" source="KQf6K9CdoITa3a_320hS-2" target="IjkAew8CNjYwR2uWhOrY-17" edge="1">
          <mxGeometry width="100" height="100" relative="1" as="geometry">
            <mxPoint x="181" y="245" as="sourcePoint" />
            <mxPoint x="648" y="396" as="targetPoint" />
            <Array as="points">
              <mxPoint x="260" y="600" />
            </Array>
          </mxGeometry>
        </mxCell>
        <mxCell id="QZeqmvYRpOHpBTYo1mOe-218" value="" style="edgeStyle=elbowEdgeStyle;fontSize=12;html=1;endArrow=ERone;startArrow=ERoneToMany;rounded=0;exitX=1;exitY=0.5;exitDx=0;exitDy=0;entryX=1;entryY=0.5;entryDx=0;entryDy=0;strokeWidth=3;strokeColor=#67AB9F;startFill=0;endFill=0;" parent="1" source="KQf6K9CdoITa3a_320hS-2" target="IjkAew8CNjYwR2uWhOrY-20" edge="1">
          <mxGeometry width="100" height="100" relative="1" as="geometry">
            <mxPoint x="299" y="700" as="sourcePoint" />
            <mxPoint x="319" y="510" as="targetPoint" />
            <Array as="points">
              <mxPoint x="600" y="600" />
            </Array>
          </mxGeometry>
        </mxCell>
        <mxCell id="9sxgn1_CPgtoZr-VSsLu-5" value="&lt;pre style=&quot;position: relative; padding: 16px 16px 8px; font-family: ui-monospace, SFMono-Regular, &amp;quot;SF Mono&amp;quot;, Menlo, Consolas, &amp;quot;Liberation Mono&amp;quot;, monospace; background: rgb(26, 27, 38); color: rgb(203, 210, 234); font-size: 11.9px; margin-top: 0px; margin-bottom: 16px; overflow-wrap: normal; overflow: auto; line-height: 1.45; border-radius: 6px; direction: ltr; text-align: start;&quot;&gt;&lt;code style=&quot;font-family: ui-monospace, SFMono-Regular, &amp;quot;SF Mono&amp;quot;, Menlo, Consolas, &amp;quot;Liberation Mono&amp;quot;, monospace; padding: 0px; font-size: 11.9px; margin: 0px; background-image: initial; background-position: initial; background-size: initial; background-repeat: initial; background-attachment: initial; background-origin: initial; background-clip: initial; border-radius: 6px; display: inline-block; overflow-x: scroll; word-break: normal; border: 0px; max-width: 100%; line-height: inherit; overflow-wrap: normal;&quot; class=&quot;hljs language-sql&quot;&gt;CREATE TYPE PlaneType &lt;span style=&quot;color: rgb(187, 154, 247);&quot; class=&quot;hljs-keyword&quot;&gt;AS&lt;/span&gt; ENUM (&lt;span style=&quot;color: rgb(158, 206, 106);&quot; class=&quot;hljs-string&quot;&gt;&#39;Грузовой&#39;&lt;/span&gt;, &lt;span style=&quot;color: rgb(158, 206, 106);&quot; class=&quot;hljs-string&quot;&gt;&#39;Грузо-пассажирский&#39;&lt;/span&gt;);&lt;/code&gt;&lt;/pre&gt;" style="rounded=0;whiteSpace=wrap;html=1;fillColor=none;dashed=1;strokeColor=none;" parent="1" vertex="1">
          <mxGeometry x="613" y="1031" width="419" height="80" as="geometry" />
        </mxCell>
        <mxCell id="9sxgn1_CPgtoZr-VSsLu-6" value="" style="endArrow=none;dashed=1;html=1;rounded=0;edgeStyle=orthogonalEdgeStyle;strokeColor=#FFB366;strokeWidth=2;exitX=1;exitY=0.5;exitDx=0;exitDy=0;" parent="1" source="9sxgn1_CPgtoZr-VSsLu-2" edge="1">
          <mxGeometry width="50" height="50" relative="1" as="geometry">
            <mxPoint x="570" y="753" as="sourcePoint" />
            <mxPoint x="610" y="1075" as="targetPoint" />
            <Array as="points">
              <mxPoint x="590" y="681" />
              <mxPoint x="590" y="1075" />
            </Array>
          </mxGeometry>
        </mxCell>
        <mxCell id="9sxgn1_CPgtoZr-VSsLu-41" value="" style="endArrow=none;dashed=1;html=1;rounded=0;edgeStyle=orthogonalEdgeStyle;strokeColor=#FFB366;strokeWidth=2;entryX=0;entryY=0.5;entryDx=0;entryDy=0;exitX=0;exitY=0.5;exitDx=0;exitDy=0;" parent="1" source="9sxgn1_CPgtoZr-VSsLu-13" edge="1" target="HcK2ptrwDDL_3AdnxCNw-1">
          <mxGeometry width="50" height="50" relative="1" as="geometry">
            <mxPoint x="583" y="758" as="sourcePoint" />
            <mxPoint x="-412.25" y="1023" as="targetPoint" />
            <Array as="points">
              <mxPoint x="-433" y="957" />
              <mxPoint x="-433" y="1065" />
            </Array>
          </mxGeometry>
        </mxCell>
        <mxCell id="9sxgn1_CPgtoZr-VSsLu-59" value="Tourists_group" style="shape=table;startSize=30;container=1;collapsible=1;childLayout=tableLayout;fixedRows=1;rowLines=0;fontStyle=1;align=center;resizeLast=1;strokeColor=default;" parent="1" vertex="1">
          <mxGeometry x="716" y="-349" width="280" height="120" as="geometry" />
        </mxCell>
        <mxCell id="9sxgn1_CPgtoZr-VSsLu-63" value="" style="shape=partialRectangle;collapsible=0;dropTarget=0;pointerEvents=0;fillColor=none;points=[[0,0.5],[1,0.5]];portConstraint=eastwest;top=0;left=0;right=0;bottom=0;" parent="9sxgn1_CPgtoZr-VSsLu-59" vertex="1">
          <mxGeometry y="30" width="280" height="30" as="geometry" />
        </mxCell>
        <mxCell id="9sxgn1_CPgtoZr-VSsLu-64" value="PK, FK1" style="shape=partialRectangle;overflow=hidden;connectable=0;fillColor=none;top=0;left=0;bottom=0;right=0;" parent="9sxgn1_CPgtoZr-VSsLu-63" vertex="1">
          <mxGeometry width="54" height="30" as="geometry">
            <mxRectangle width="54" height="30" as="alternateBounds" />
          </mxGeometry>
        </mxCell>
        <mxCell id="9sxgn1_CPgtoZr-VSsLu-65" value="tourist_id int NOT NULL" style="shape=partialRectangle;overflow=hidden;connectable=0;fillColor=none;top=0;left=0;bottom=0;right=0;align=left;spacingLeft=6;" parent="9sxgn1_CPgtoZr-VSsLu-63" vertex="1">
          <mxGeometry x="54" width="226" height="30" as="geometry">
            <mxRectangle width="226" height="30" as="alternateBounds" />
          </mxGeometry>
        </mxCell>
        <mxCell id="9sxgn1_CPgtoZr-VSsLu-87" value="" style="shape=tableRow;horizontal=0;startSize=0;swimlaneHead=0;swimlaneBody=0;fillColor=none;collapsible=0;dropTarget=0;points=[[0,0.5],[1,0.5]];portConstraint=eastwest;top=0;left=0;right=0;bottom=0;" parent="9sxgn1_CPgtoZr-VSsLu-59" vertex="1">
          <mxGeometry y="60" width="280" height="30" as="geometry" />
        </mxCell>
        <mxCell id="9sxgn1_CPgtoZr-VSsLu-88" value="PK, FK2" style="shape=partialRectangle;connectable=0;fillColor=none;top=0;left=0;bottom=0;right=0;editable=1;overflow=hidden;" parent="9sxgn1_CPgtoZr-VSsLu-87" vertex="1">
          <mxGeometry width="54" height="30" as="geometry">
            <mxRectangle width="54" height="30" as="alternateBounds" />
          </mxGeometry>
        </mxCell>
        <mxCell id="9sxgn1_CPgtoZr-VSsLu-89" value="tour_id int NOT NULL" style="shape=partialRectangle;connectable=0;fillColor=none;top=0;left=0;bottom=0;right=0;align=left;spacingLeft=6;overflow=hidden;" parent="9sxgn1_CPgtoZr-VSsLu-87" vertex="1">
          <mxGeometry x="54" width="226" height="30" as="geometry">
            <mxRectangle width="226" height="30" as="alternateBounds" />
          </mxGeometry>
        </mxCell>
        <mxCell id="9sxgn1_CPgtoZr-VSsLu-66" value="" style="shape=tableRow;horizontal=0;startSize=0;swimlaneHead=0;swimlaneBody=0;fillColor=none;collapsible=0;dropTarget=0;points=[[0,0.5],[1,0.5]];portConstraint=eastwest;top=0;left=0;right=0;bottom=0;" parent="9sxgn1_CPgtoZr-VSsLu-59" vertex="1">
          <mxGeometry y="90" width="280" height="30" as="geometry" />
        </mxCell>
        <mxCell id="9sxgn1_CPgtoZr-VSsLu-67" value="" style="shape=partialRectangle;connectable=0;fillColor=none;top=0;left=0;bottom=0;right=0;editable=1;overflow=hidden;" parent="9sxgn1_CPgtoZr-VSsLu-66" vertex="1">
          <mxGeometry width="54" height="30" as="geometry">
            <mxRectangle width="54" height="30" as="alternateBounds" />
          </mxGeometry>
        </mxCell>
        <mxCell id="9sxgn1_CPgtoZr-VSsLu-68" value="group_name char(100) NOT NULL" style="shape=partialRectangle;connectable=0;fillColor=none;top=0;left=0;bottom=0;right=0;align=left;spacingLeft=6;overflow=hidden;" parent="9sxgn1_CPgtoZr-VSsLu-66" vertex="1">
          <mxGeometry x="54" width="226" height="30" as="geometry">
            <mxRectangle width="226" height="30" as="alternateBounds" />
          </mxGeometry>
        </mxCell>
        <mxCell id="9sxgn1_CPgtoZr-VSsLu-90" value="" style="edgeStyle=orthogonalEdgeStyle;fontSize=12;html=1;endArrow=ERmandOne;startArrow=ERmandOne;rounded=0;exitX=1;exitY=0.5;exitDx=0;exitDy=0;entryX=1;entryY=0.5;entryDx=0;entryDy=0;strokeWidth=2;" parent="1" source="W1w_GPU8LvK_WI4qFMCy-174" target="9sxgn1_CPgtoZr-VSsLu-87" edge="1">
          <mxGeometry width="100" height="100" relative="1" as="geometry">
            <mxPoint x="220" y="95" as="sourcePoint" />
            <mxPoint x="300" y="95" as="targetPoint" />
            <Array as="points">
              <mxPoint x="570" y="85" />
              <mxPoint x="570" y="-40" />
              <mxPoint x="1040" y="-40" />
              <mxPoint x="1040" y="-274" />
            </Array>
          </mxGeometry>
        </mxCell>
        <mxCell id="9sxgn1_CPgtoZr-VSsLu-91" value="" style="edgeStyle=orthogonalEdgeStyle;fontSize=12;html=1;endArrow=ERone;startArrow=ERoneToMany;rounded=0;exitX=1.006;exitY=0.041;exitDx=0;exitDy=0;entryX=0;entryY=0.5;entryDx=0;entryDy=0;strokeWidth=2;strokeColor=#67AB9F;startFill=0;endFill=0;exitPerimeter=0;" parent="1" source="C-vyLk0tnHw3VtMMgP7b-23" target="9sxgn1_CPgtoZr-VSsLu-63" edge="1">
          <mxGeometry width="100" height="100" relative="1" as="geometry">
            <mxPoint x="220" y="215" as="sourcePoint" />
            <mxPoint x="648" y="396" as="targetPoint" />
            <Array as="points">
              <mxPoint x="-80" y="-337" />
              <mxPoint x="-80" y="-370" />
              <mxPoint x="690" y="-370" />
              <mxPoint x="690" y="-304" />
            </Array>
          </mxGeometry>
        </mxCell>
        <mxCell id="ZO-J2TBk0OJasq5sorBM-1" value="" style="shape=partialRectangle;collapsible=0;dropTarget=0;pointerEvents=0;fillColor=none;points=[[0,0.5],[1,0.5]];portConstraint=eastwest;top=0;left=0;right=0;bottom=0;" parent="1" vertex="1">
          <mxGeometry x="-380" y="240" width="250" height="30" as="geometry" />
        </mxCell>
        <mxCell id="ZO-J2TBk0OJasq5sorBM-2" value="" style="shape=partialRectangle;overflow=hidden;connectable=0;fillColor=none;top=0;left=0;bottom=0;right=0;" parent="ZO-J2TBk0OJasq5sorBM-1" vertex="1">
          <mxGeometry width="30" height="30" as="geometry">
            <mxRectangle width="30" height="30" as="alternateBounds" />
          </mxGeometry>
        </mxCell>
        <mxCell id="ZO-J2TBk0OJasq5sorBM-3" value="sex char(10) NOT NULL" style="shape=partialRectangle;overflow=hidden;connectable=0;fillColor=none;top=0;left=0;bottom=0;right=0;align=left;spacingLeft=6;" parent="ZO-J2TBk0OJasq5sorBM-1" vertex="1">
          <mxGeometry x="30" width="220" height="30" as="geometry">
            <mxRectangle width="220" height="30" as="alternateBounds" />
          </mxGeometry>
        </mxCell>
        <mxCell id="HcK2ptrwDDL_3AdnxCNw-1" value="&lt;pre style=&quot;position: relative; padding: 16px 16px 8px; background: rgb(26, 27, 38); margin-top: 0px; margin-bottom: 16px; overflow-wrap: normal; overflow: auto; line-height: 1.45; border-radius: 6px; direction: ltr; text-align: start;&quot;&gt;&lt;code style=&quot;padding: 0px; margin: 0px; background-image: initial; background-position: initial; background-size: initial; background-repeat: initial; background-attachment: initial; background-origin: initial; background-clip: initial; border-radius: 6px; display: inline-block; overflow-x: scroll; word-break: normal; border: 0px; max-width: 100%; line-height: inherit; overflow-wrap: normal;&quot; class=&quot;hljs language-sql&quot;&gt;&lt;font face=&quot;ui-monospace, SFMono-Regular, SF Mono, Menlo, Consolas, Liberation Mono, monospace&quot; color=&quot;#cbd2ea&quot;&gt;CREATE TYPE CargoType &lt;/font&gt;&lt;span style=&quot;color: rgb(187, 154, 247); font-family: ui-monospace, SFMono-Regular, &amp;quot;SF Mono&amp;quot;, Menlo, Consolas, &amp;quot;Liberation Mono&amp;quot;, monospace; font-size: 11.9px;&quot; class=&quot;hljs-keyword&quot;&gt;AS&lt;/span&gt;&lt;font face=&quot;ui-monospace, SFMono-Regular, SF Mono, Menlo, Consolas, Liberation Mono, monospace&quot; color=&quot;#cbd2ea&quot;&gt;&lt;span style=&quot;font-size: 11.9px;&quot;&gt; ENUM (&lt;/span&gt;&lt;/font&gt;&lt;font face=&quot;ui-monospace, SFMono-Regular, SF Mono, Menlo, Consolas, Liberation Mono, monospace&quot; color=&quot;#9ece6a&quot;&gt;&lt;span style=&quot;font-size: 11.9px;&quot;&gt;&#39;стандартный&#39;, &#39;негабаритный&#39;, &#39;жидкий&#39;, &#39;сыпучий&#39;&lt;/span&gt;&lt;/font&gt;&lt;font face=&quot;ui-monospace, SFMono-Regular, SF Mono, Menlo, Consolas, Liberation Mono, monospace&quot; color=&quot;#cbd2ea&quot;&gt;&lt;span style=&quot;font-size: 11.9px;&quot;&gt;);&lt;br/&gt;//Создаём свой перечислимый тип данных&lt;/span&gt;&lt;/font&gt;&lt;/code&gt;&lt;/pre&gt;" style="rounded=0;whiteSpace=wrap;html=1;fillColor=#344756;dashed=1;strokeColor=none;" parent="1" vertex="1">
          <mxGeometry x="-391" y="1040" width="520" height="50" as="geometry" />
        </mxCell>
        <mxCell id="HcK2ptrwDDL_3AdnxCNw-2" value="Hotel_rooms" style="shape=table;startSize=30;container=1;collapsible=1;childLayout=tableLayout;fixedRows=1;rowLines=0;fontStyle=1;align=center;resizeLast=1;html=1;" parent="1" vertex="1">
          <mxGeometry x="635" y="240" width="315" height="180" as="geometry" />
        </mxCell>
        <mxCell id="HcK2ptrwDDL_3AdnxCNw-6" value="" style="shape=tableRow;horizontal=0;startSize=0;swimlaneHead=0;swimlaneBody=0;fillColor=none;collapsible=0;dropTarget=0;points=[[0,0.5],[1,0.5]];portConstraint=eastwest;top=0;left=0;right=0;bottom=0;" parent="HcK2ptrwDDL_3AdnxCNw-2" vertex="1">
          <mxGeometry y="30" width="315" height="30" as="geometry" />
        </mxCell>
        <mxCell id="HcK2ptrwDDL_3AdnxCNw-7" value="PK, FK1" style="shape=partialRectangle;connectable=0;fillColor=none;top=0;left=0;bottom=0;right=0;editable=1;overflow=hidden;whiteSpace=wrap;html=1;" parent="HcK2ptrwDDL_3AdnxCNw-6" vertex="1">
          <mxGeometry width="65" height="30" as="geometry">
            <mxRectangle width="65" height="30" as="alternateBounds" />
          </mxGeometry>
        </mxCell>
        <mxCell id="HcK2ptrwDDL_3AdnxCNw-8" value="Hotel_id int NOT NULL" style="shape=partialRectangle;connectable=0;fillColor=none;top=0;left=0;bottom=0;right=0;align=left;spacingLeft=6;overflow=hidden;whiteSpace=wrap;html=1;" parent="HcK2ptrwDDL_3AdnxCNw-6" vertex="1">
          <mxGeometry x="65" width="250" height="30" as="geometry">
            <mxRectangle width="250" height="30" as="alternateBounds" />
          </mxGeometry>
        </mxCell>
        <mxCell id="HcK2ptrwDDL_3AdnxCNw-9" value="" style="shape=tableRow;horizontal=0;startSize=0;swimlaneHead=0;swimlaneBody=0;fillColor=none;collapsible=0;dropTarget=0;points=[[0,0.5],[1,0.5]];portConstraint=eastwest;top=0;left=0;right=0;bottom=0;" parent="HcK2ptrwDDL_3AdnxCNw-2" vertex="1">
          <mxGeometry y="60" width="315" height="30" as="geometry" />
        </mxCell>
        <mxCell id="HcK2ptrwDDL_3AdnxCNw-10" value="PK, FK2" style="shape=partialRectangle;connectable=0;fillColor=none;top=0;left=0;bottom=0;right=0;editable=1;overflow=hidden;whiteSpace=wrap;html=1;" parent="HcK2ptrwDDL_3AdnxCNw-9" vertex="1">
          <mxGeometry width="65" height="30" as="geometry">
            <mxRectangle width="65" height="30" as="alternateBounds" />
          </mxGeometry>
        </mxCell>
        <mxCell id="HcK2ptrwDDL_3AdnxCNw-11" value="room_type_id NOT NULL" style="shape=partialRectangle;connectable=0;fillColor=none;top=0;left=0;bottom=0;right=0;align=left;spacingLeft=6;overflow=hidden;whiteSpace=wrap;html=1;" parent="HcK2ptrwDDL_3AdnxCNw-9" vertex="1">
          <mxGeometry x="65" width="250" height="30" as="geometry">
            <mxRectangle width="250" height="30" as="alternateBounds" />
          </mxGeometry>
        </mxCell>
        <mxCell id="HcK2ptrwDDL_3AdnxCNw-12" value="" style="shape=tableRow;horizontal=0;startSize=0;swimlaneHead=0;swimlaneBody=0;fillColor=none;collapsible=0;dropTarget=0;points=[[0,0.5],[1,0.5]];portConstraint=eastwest;top=0;left=0;right=0;bottom=0;" parent="HcK2ptrwDDL_3AdnxCNw-2" vertex="1">
          <mxGeometry y="90" width="315" height="30" as="geometry" />
        </mxCell>
        <mxCell id="HcK2ptrwDDL_3AdnxCNw-13" value="" style="shape=partialRectangle;connectable=0;fillColor=none;top=0;left=0;bottom=0;right=0;editable=1;overflow=hidden;whiteSpace=wrap;html=1;" parent="HcK2ptrwDDL_3AdnxCNw-12" vertex="1">
          <mxGeometry width="65" height="30" as="geometry">
            <mxRectangle width="65" height="30" as="alternateBounds" />
          </mxGeometry>
        </mxCell>
        <mxCell id="HcK2ptrwDDL_3AdnxCNw-14" value="number_of_available_rooms int NOT NULL" style="shape=partialRectangle;connectable=0;fillColor=none;top=0;left=0;bottom=0;right=0;align=left;spacingLeft=6;overflow=hidden;whiteSpace=wrap;html=1;" parent="HcK2ptrwDDL_3AdnxCNw-12" vertex="1">
          <mxGeometry x="65" width="250" height="30" as="geometry">
            <mxRectangle width="250" height="30" as="alternateBounds" />
          </mxGeometry>
        </mxCell>
        <mxCell id="HcK2ptrwDDL_3AdnxCNw-15" value="" style="shape=tableRow;horizontal=0;startSize=0;swimlaneHead=0;swimlaneBody=0;fillColor=none;collapsible=0;dropTarget=0;points=[[0,0.5],[1,0.5]];portConstraint=eastwest;top=0;left=0;right=0;bottom=0;" parent="HcK2ptrwDDL_3AdnxCNw-2" vertex="1">
          <mxGeometry y="120" width="315" height="30" as="geometry" />
        </mxCell>
        <mxCell id="HcK2ptrwDDL_3AdnxCNw-16" value="" style="shape=partialRectangle;connectable=0;fillColor=none;top=0;left=0;bottom=0;right=0;editable=1;overflow=hidden;" parent="HcK2ptrwDDL_3AdnxCNw-15" vertex="1">
          <mxGeometry width="65" height="30" as="geometry">
            <mxRectangle width="65" height="30" as="alternateBounds" />
          </mxGeometry>
        </mxCell>
        <mxCell id="HcK2ptrwDDL_3AdnxCNw-17" value="number_of_occupied_rooms int NOT NULL" style="shape=partialRectangle;connectable=0;fillColor=none;top=0;left=0;bottom=0;right=0;align=left;spacingLeft=6;overflow=hidden;" parent="HcK2ptrwDDL_3AdnxCNw-15" vertex="1">
          <mxGeometry x="65" width="250" height="30" as="geometry">
            <mxRectangle width="250" height="30" as="alternateBounds" />
          </mxGeometry>
        </mxCell>
        <mxCell id="HcK2ptrwDDL_3AdnxCNw-18" value="" style="shape=tableRow;horizontal=0;startSize=0;swimlaneHead=0;swimlaneBody=0;fillColor=none;collapsible=0;dropTarget=0;points=[[0,0.5],[1,0.5]];portConstraint=eastwest;top=0;left=0;right=0;bottom=0;" parent="HcK2ptrwDDL_3AdnxCNw-2" vertex="1">
          <mxGeometry y="150" width="315" height="30" as="geometry" />
        </mxCell>
        <mxCell id="HcK2ptrwDDL_3AdnxCNw-19" value="" style="shape=partialRectangle;connectable=0;fillColor=none;top=0;left=0;bottom=0;right=0;editable=1;overflow=hidden;" parent="HcK2ptrwDDL_3AdnxCNw-18" vertex="1">
          <mxGeometry width="65" height="30" as="geometry">
            <mxRectangle width="65" height="30" as="alternateBounds" />
          </mxGeometry>
        </mxCell>
        <mxCell id="HcK2ptrwDDL_3AdnxCNw-20" value="room_rate_per_night float NOT NULL" style="shape=partialRectangle;connectable=0;fillColor=none;top=0;left=0;bottom=0;right=0;align=left;spacingLeft=6;overflow=hidden;" parent="HcK2ptrwDDL_3AdnxCNw-18" vertex="1">
          <mxGeometry x="65" width="250" height="30" as="geometry">
            <mxRectangle width="250" height="30" as="alternateBounds" />
          </mxGeometry>
        </mxCell>
        <mxCell id="HcK2ptrwDDL_3AdnxCNw-21" value="" style="edgeStyle=orthogonalEdgeStyle;fontSize=12;html=1;endArrow=ERone;startArrow=ERoneToMany;rounded=0;exitX=0;exitY=0.5;exitDx=0;exitDy=0;entryX=0;entryY=0.5;entryDx=0;entryDy=0;strokeWidth=3;strokeColor=#99004D;startFill=0;endFill=0;" parent="1" source="HcK2ptrwDDL_3AdnxCNw-6" target="QZeqmvYRpOHpBTYo1mOe-115" edge="1">
          <mxGeometry width="100" height="100" relative="1" as="geometry">
            <mxPoint x="220" y="215" as="sourcePoint" />
            <mxPoint x="648" y="536" as="targetPoint" />
            <Array as="points">
              <mxPoint x="600" y="285" />
              <mxPoint x="600" y="40" />
            </Array>
          </mxGeometry>
        </mxCell>
        <mxCell id="HcK2ptrwDDL_3AdnxCNw-22" value="" style="edgeStyle=elbowEdgeStyle;fontSize=12;html=1;endArrow=ERmandOne;startArrow=ERmandOne;rounded=0;strokeWidth=3;exitX=0;exitY=0.5;exitDx=0;exitDy=0;" parent="1" source="HcK2ptrwDDL_3AdnxCNw-9" target="QZeqmvYRpOHpBTYo1mOe-128" edge="1">
          <mxGeometry width="100" height="100" relative="1" as="geometry">
            <mxPoint x="220" y="185" as="sourcePoint" />
            <mxPoint x="292" y="480" as="targetPoint" />
            <Array as="points">
              <mxPoint x="610" y="600" />
            </Array>
          </mxGeometry>
        </mxCell>
        <mxCell id="63rDpyINKcPnCmhJKeLQ-1" value="&lt;h1&gt;&lt;font color=&quot;#ff4c2b&quot;&gt;&amp;nbsp; Важно!!!&lt;/font&gt;&lt;/h1&gt;&lt;p&gt;&lt;font color=&quot;#ff4c2b&quot;&gt;&amp;nbsp; &amp;nbsp; Все типы данных и кол-во выделяемых байт в диаграмме&amp;nbsp; &amp;nbsp; &amp;nbsp; условные, при создании базы были пересмотренны и&amp;nbsp; &amp;nbsp; &amp;nbsp; &amp;nbsp; &amp;nbsp; &amp;nbsp; изменены. Использую здесь&amp;nbsp; не существующий в Oracle&amp;nbsp; &amp;nbsp; &amp;nbsp; &amp;nbsp; тип int, так как он пишется короче чем number.&lt;/font&gt;&lt;/p&gt;" style="text;html=1;strokeColor=#0A1F32;fillColor=#D2D2D2;spacing=5;spacingTop=-20;whiteSpace=wrap;overflow=hidden;rounded=1;shadow=1;glass=0;strokeWidth=3;" parent="1" vertex="1">
          <mxGeometry x="282" y="-355" width="348" height="118" as="geometry" />
        </mxCell>
        <mxCell id="63rDpyINKcPnCmhJKeLQ-4" value="&lt;h1 style=&quot;line-height: 50%;&quot;&gt;&lt;span style=&quot;background-color: initial; font-weight: normal;&quot;&gt;&lt;font style=&quot;font-size: 13px;&quot;&gt;P.S. Все кастомные типы данных, создание которых здесь прописанно через ENUM на самом же деле создаются как полноценные типы с шапкой и телом, с функциями is_valid и to_string.&lt;/font&gt;&lt;/span&gt;&lt;br&gt;&lt;/h1&gt;" style="text;html=1;strokeColor=none;fillColor=#D2D2D2;spacing=5;spacingTop=-20;whiteSpace=wrap;overflow=hidden;rounded=1;fontColor=#FF4C2B;" parent="1" vertex="1">
          <mxGeometry x="282" y="-227" width="400" height="84" as="geometry" />
        </mxCell>
        <mxCell id="63rDpyINKcPnCmhJKeLQ-5" value="" style="endArrow=none;html=1;rounded=0;entryX=0.12;entryY=0.033;entryDx=0;entryDy=0;entryPerimeter=0;" parent="1" target="C-vyLk0tnHw3VtMMgP7b-14" edge="1">
          <mxGeometry width="50" height="50" relative="1" as="geometry">
            <mxPoint x="-350" y="270" as="sourcePoint" />
            <mxPoint x="-350" y="130" as="targetPoint" />
          </mxGeometry>
        </mxCell>
      </root>
    </mxGraphModel>
  </diagram>
</mxfile>
